<svg id="DESENNHOS" xmlns="http://www.w3.org/2000/svg" viewBox="0 0 237.44 71.39"><defs><style>.cls-1{stroke:#000;stroke-miterlimit:10;}.cls-2{fill:#fff;}</style></defs><rect class="cls-1" x="0.14" y="-0.23" width="237" height="72"/><path class="cls-2" d="M.1,56.84A158.65,158.65,0,0,1,8,30.46C10.89,23.33,14,15.3,19.64,9.89a17,17,0,0,1,9.82-4.77,22.44,22.44,0,0,1,12.2,2.37,48.62,48.62,0,0,1,10.52,7.38c3.39,3,6.68,6.05,9.92,9.18,6.45,6.23,12.44,12.85,18.41,19.54C86.05,49.8,91.94,55.9,99.29,60c14.25,7.89,31.58,7.92,46.67,2.56,16.35-5.81,32.29-17.3,50.49-14.69a32.16,32.16,0,0,1,6.2,1.55,23.69,23.69,0,0,1,0-2.5,11.46,11.46,0,0,0,0-2.5c-17.51-6.29-34.84,4.06-50.5,10.71-7.76,3.29-15.77,5.69-24.23,6.12A55.06,55.06,0,0,1,104.6,57.5c-7.68-3.1-14-8.25-19.73-14.17C78.77,37,73.18,30.16,67,23.89Q62.16,19,57.1,14.33a103.68,103.68,0,0,0-10-8.57C40.5,1,31.61-2.19,23.89,1.8c-6.76,3.5-10.33,11-13.29,17.63a157.93,157.93,0,0,0-9,25.8C1.07,47.42.56,49.63.1,51.84c-.34,1.6.33,3.41,0,5Z"/><path class="cls-2" d="M202.18,27.51c3.45,5.33,8.95,8.67,14.52,11.44,6.8,3.38,13.75,6.5,20.63,9.74v-5c-.84,2.94-3.7,4.46-6.18,5.88q-5.09,2.91-10.21,5.76Q210.68,61,200.26,66.39a10.9,10.9,0,0,0,0,2.5,11.66,11.66,0,0,1,0,2.5Q210.69,66,220.94,60.33q5.13-2.85,10.21-5.76c2.48-1.42,5.34-2.94,6.18-5.88a10,10,0,0,0,0-2.5c0-.26.19-2.4,0-2.5-6.88-3.24-13.83-6.36-20.63-9.74-5.57-2.77-11.07-6.11-14.52-11.44a4.16,4.16,0,0,1,0,.73c0,.59,0,1.18,0,1.77s0,1.18,0,1.77c0,.17-.07.6,0,.73Z"/></svg>