<svg xmlns="http://www.w3.org/2000/svg" viewBox="0 0 862.07 271.48"><defs><style>.cls-1{fill:none;stroke:#000;stroke-miterlimit:10;stroke-width:3px;}</style></defs><g id="DESENNHOS"><path d="M163.21,185.13a377,377,0,0,1-.45-54.4l-.82,1.08c1.59-.36,2.65,1.79,3.15,3,.83,2,1.45,4.06,2.08,6.1A121.92,121.92,0,0,1,172.68,179h2.25c-.35-3.93-1.17-10-5.86-11-3.26-.75-8.14,1.9-6.68,5.77.51,1.34,2.69.76,2.17-.6-.93-2.46,2.94-3.64,4.68-2.74,2.86,1.48,3.19,5.81,3.44,8.6a1.13,1.13,0,0,0,2.25,0A125.24,125.24,0,0,0,172,150.28a124.14,124.14,0,0,0-4-14c-1-2.93-2.71-7.52-6.67-6.63a1.16,1.16,0,0,0-.83,1.09,377,377,0,0,0,.45,54.4c.12,1.43,2.37,1.45,2.25,0Z"/><path d="M162.43,120.24c6.43,0,6.44-10,0-10s-6.45,10,0,10Z"/><path d="M386.59,188.15a375.58,375.58,0,0,1-.44-54.4l-.83,1.08c1.6-.36,2.65,1.79,3.15,3,.83,2,1.45,4.06,2.08,6.1a120.92,120.92,0,0,1,3.14,12.29,122.65,122.65,0,0,1,2.37,25.86h2.25c-.34-3.93-1.17-9.95-5.85-11-3.27-.75-8.15,1.9-6.68,5.77.51,1.34,2.68.76,2.17-.6-.93-2.45,2.93-3.64,4.67-2.74,2.86,1.49,3.2,5.81,3.44,8.6a1.13,1.13,0,0,0,2.25,0,125.79,125.79,0,0,0-2.93-28.76,124.14,124.14,0,0,0-4-14c-1-2.93-2.72-7.52-6.68-6.62a1.14,1.14,0,0,0-.82,1.08,375.58,375.58,0,0,0,.44,54.4c.12,1.43,2.37,1.45,2.25,0Z"/><path d="M385.81,123.26c6.44,0,6.45-10,0-10s-6.44,10,0,10Z"/><path d="M642.62,186.77a374.3,374.3,0,0,1-.45-54.41l-.82,1.09c1.59-.36,2.65,1.78,3.15,3,.83,2,1.44,4.06,2.08,6.1a126.44,126.44,0,0,1,3.14,12.29,123.41,123.41,0,0,1,2.37,25.87h2.25c-.35-3.94-1.17-10-5.86-11-3.26-.75-8.14,1.91-6.68,5.77.51,1.34,2.69.76,2.17-.6-.93-2.45,2.94-3.63,4.68-2.73,2.86,1.48,3.19,5.81,3.44,8.6a1.13,1.13,0,0,0,2.25,0,124.48,124.48,0,0,0-6.92-42.78c-1-2.93-2.71-7.52-6.67-6.62a1.13,1.13,0,0,0-.83,1.08,374.3,374.3,0,0,0,.45,54.41c.11,1.43,2.37,1.44,2.25,0Z"/><path d="M636.74,124.93c6.43,0,6.44-10,0-10s-6.45,10,0,10Z"/><path d="M616.29,184.35l-.22-19.86-1.13,1.13a241.65,241.65,0,0,0,37,2q9.15-.21,18.25-1.1,4.4-.43,8.77-1l2.41-.34c.67-.09,1.24-.3,1.57.41a18.06,18.06,0,0,1,.94,4.28c1,5.62,2,11.71,7.07,15.2,1.19.83,2.31-1.12,1.13-1.94-4.71-3.27-5.22-9.64-6.2-14.78-.39-2.05-.61-5.37-3.31-5.51a19.49,19.49,0,0,0-3.72.45c-1.68.22-3.35.43-5,.62a240.52,240.52,0,0,1-37.47,1.34q-10.72-.45-21.37-1.86a1.12,1.12,0,0,0-1.12,1.12l.22,19.86a1.13,1.13,0,0,0,2.25,0Z"/><path d="M615.05,143.34l.21-.05h-.8c-.32-.06-.11-.28-.17.08a4.79,4.79,0,0,0,.09.84c0,.55.07,1.1.09,1.66,0,1.09-.15,2.22-.08,3.31.19,2.69,3.4,2.61,5.45,2.9a96.28,96.28,0,0,0,14.6,1,1.5,1.5,0,0,0,0-3,92.32,92.32,0,0,1-15-1l-1.71-.28-.57-.1.18.4a5.25,5.25,0,0,0,0-.59,29.36,29.36,0,0,0,0-3.51c-.1-1.85-.45-5.2-3.18-4.49a1.5,1.5,0,0,0,.8,2.89Z"/><path d="M614,141a89.54,89.54,0,0,0,19.41,1.28c1.92-.09,1.93-3.09,0-3a86.55,86.55,0,0,1-18.61-1.17,1.55,1.55,0,0,0-1.85,1A1.52,1.52,0,0,0,614,141Z"/><path d="M650.33,139.92c10.44.87,20.92,1.72,31.39,1l-1.5-1.5a30.64,30.64,0,0,0,.7,9.21,8.07,8.07,0,0,1,.59,2.17c.19,0,.22,0,.07,0a1.37,1.37,0,0,1-.29.07,4.14,4.14,0,0,1-.61,0c-1.72,0-3.45-.05-5.18-.07l-20-.3c-1.93,0-1.93,3,0,3l22.93.34c1.43,0,3.13.28,4.47-.37a2.84,2.84,0,0,0,1.51-3.34c-.36-1.74-.92-3.4-1.13-5.18a29,29,0,0,1-.09-5.59,1.5,1.5,0,0,0-1.5-1.5c-10.47.75-21-.1-31.39-1-1.92-.16-1.91,2.84,0,3Z"/><path d="M617,171.77q10.93.19,21.87-.21c1.93-.07,1.94-3.07,0-3q-10.93.41-21.87.21c-1.93,0-1.93,3,0,3Z"/><path d="M653.46,171.26A191.92,191.92,0,0,0,685,169.88c1.89-.24,1.91-3.24,0-3a191.92,191.92,0,0,1-31.52,1.38c-1.93-.07-1.93,2.93,0,3Z"/><path d="M458.55,144.55c9.2-9.77,24.66-11.4,35.85-4.22,3.31,2.12,6.33,4.67,9.74,6.63a29.47,29.47,0,0,0,8.3,3.23,33.81,33.81,0,0,0,17.65-.89A31.79,31.79,0,0,0,546,138c.57-.78-.73-1.53-1.3-.76-7.23,9.89-20.76,14.31-32.55,11.39a29.29,29.29,0,0,1-8.8-3.85c-3.31-2.12-6.33-4.67-9.73-6.63a29.12,29.12,0,0,0-18-3.56,29.83,29.83,0,0,0-18.13,8.94c-.66.7.4,1.76,1.06,1.06Z"/><path d="M538.66,131.5A73.86,73.86,0,0,1,548.71,134c3.17,1,6.72,2.14,9.51,4,5.25,3.51,2.56,10.79.43,15.34-.4.87.89,1.63,1.3.76,2.24-4.79,4.88-12,.39-16.32a14.84,14.84,0,0,0-4.54-2.68c-1.74-.76-3.5-1.46-5.29-2.08a74.17,74.17,0,0,0-11.45-3c-.94-.17-1.35,1.28-.4,1.45Z"/><path d="M221.5,144.55c9.2-9.77,24.66-11.4,35.85-4.22,3.31,2.12,6.33,4.67,9.74,6.63a29.47,29.47,0,0,0,8.3,3.23A33.81,33.81,0,0,0,293,149.3,31.79,31.79,0,0,0,309,138c.57-.78-.73-1.53-1.3-.76-7.23,9.89-20.76,14.31-32.55,11.39a29.29,29.29,0,0,1-8.8-3.85c-3.31-2.12-6.33-4.67-9.73-6.63a29.12,29.12,0,0,0-18-3.56,29.83,29.83,0,0,0-18.13,8.94c-.66.7.4,1.76,1.06,1.06Z"/><path d="M301.61,131.5A73.86,73.86,0,0,1,311.66,134c3.17,1,6.72,2.14,9.51,4,5.25,3.51,2.56,10.79.43,15.34-.4.87.89,1.63,1.3.76,2.24-4.79,4.88-12,.39-16.32a14.84,14.84,0,0,0-4.54-2.68c-1.74-.76-3.5-1.46-5.29-2.08a74.17,74.17,0,0,0-11.45-3c-.94-.17-1.35,1.28-.4,1.45Z"/><path d="M344.81,92.16c-1.76-1.57-.59-4.28,1.14-5.36,2.46-1.53,5.75-1.26,8.53-1.29l20-.19q19.79-.16,39.57-.27,39.36-.21,78.74-.16,39.57.06,79.13.37,39.36.31,78.74.9,19.77.28,39.55.64c5.67.1,11.62-.29,17.23.59,3.82.61,8.38,1.81,11,4.86A5.6,5.6,0,0,1,719.72,97c-.33,1.88,2.56,2.69,2.9.79,1.63-9.15-9.07-12.74-16.25-13.56-6.32-.72-12.86-.39-19.21-.5l-20.72-.35q-41.82-.68-83.64-1t-83.64-.46q-41.82-.08-83.65.14-20.91.1-41.82.29c-7,.06-14,.1-21,.2-4.63.07-10.42,1-11.57,6.35a5.51,5.51,0,0,0,1.6,5.4c1.44,1.28,3.57-.83,2.12-2.12Z"/><line class="cls-1" x1="-0.37" y1="187.76" x2="861.63" y2="187.76"/></g></svg>