<svg xmlns="http://www.w3.org/2000/svg" viewBox="0 0 1650 241.84"><g id="DESENNHOS"><path d="M.14,33c29.2,94.34,110.9,163.9,203.35,193.25,54.39,17.27,111,18.52,167.29,11.77C436,230.22,500.69,215.54,565,202.53c64.64-13.06,129.12-27.1,192.86-44.06C820.07,141.92,881.1,121.77,942,101c116.41-39.8,234.26-81.75,357.6-93,107.92-9.82,222,3.14,316.94,58.48a396.5,396.5,0,0,1,33.26,21.75c-.77-.55.81-4.4,0-5C1560.51,18.41,1448.52-3.41,1339.93.42,1218,4.73,1100.66,41.91,986.05,80.89c-60.35,20.53-120.49,41.75-181.68,59.63-63.31,18.49-127.54,33.6-192,47.25s-129.11,26.91-194,38.16c-59.37,10.3-120.5,16.57-180.07,4.39C143.59,211,54.2,150.05,12.82,61.13A262.37,262.37,0,0,1,.14,28c.46,1.51-.48,3.47,0,5Z"/></g></svg>