<svg xmlns="http://www.w3.org/2000/svg" viewBox="0 0 862.07 271.48"><g id="DESENNHOS"><path d="M324.27,126.71c6.43,0,6.44-10,0-10s-6.45,10,0,10Z"/><path d="M381.76,87.18c6.44,0,6.45-10,0-10s-6.44,10,0,10Z"/><path d="M394.34,162.64c6.43,0,6.44-10,0-10s-6.45,10,0,10Z"/><path d="M435.66,110.54c6.43,0,6.44-10,0-10s-6.45,10,0,10Z"/><path d="M323.54,197.16l.18-63.46-1.69,1c6.93,3.07,8.43,11.86,9.77,18.49a197.73,197.73,0,0,1,3.67,28.9q.43,8.26.2,16.55c0,1.23,2,1.56,2.21.29a45,45,0,0,0-5.4-30.19,1.14,1.14,0,0,0-2,0,87.27,87.27,0,0,0-7.4,35.64,1.13,1.13,0,0,0,2.25,0,84.28,84.28,0,0,1,7.1-34.5h-2a42.59,42.59,0,0,1,5.18,28.46l2.21.3A202.1,202.1,0,0,0,336.48,168q-.92-7.4-2.37-14.72a60,60,0,0,0-3.22-11.87c-1.56-3.66-4-7-7.73-8.67a1.13,1.13,0,0,0-1.69,1l-.18,63.46a1.13,1.13,0,0,0,2.25,0Z"/><path d="M370.25,157.58a358.4,358.4,0,0,1,2-54.51c.59-5.13,1.3-10.26,2.11-15.36l-2.51.66c7.4,6.32,9.53,16.18,10.12,25.48.34,5.27.22,10.56.17,15.84L382,149.41l-.2,22,2.8-.76A85.37,85.37,0,0,1,377,143.75a1.52,1.52,0,0,0-2.8-.75,25.22,25.22,0,0,0-4.45,20.38c.4,1.89,3.29,1.09,2.89-.8a22.34,22.34,0,0,1,4.16-18.07l-2.8-.76a89.93,89.93,0,0,0,8,28.38c.66,1.41,2.78.65,2.79-.75q.19-20.22.37-40.44c.1-10.32.65-21.11-2.53-31.09A29.36,29.36,0,0,0,374,86.25c-.77-.65-2.32-.55-2.51.66a360.73,360.73,0,0,0-4.53,55c0,5.22.07,10.45.27,15.66.07,1.93,3.07,1.94,3,0Z"/><path d="M393,218.15a80,80,0,0,1,2.22-44.54,78.43,78.43,0,0,1,5.17-11.72l-2-.27a161.67,161.67,0,0,1,3.54,55.06c-.13,1.26,2,1.54,2.21.3A34.46,34.46,0,0,0,401,194.62a1.14,1.14,0,0,0-1.77-.22,30.92,30.92,0,0,0-8.31,30.16,1.12,1.12,0,0,0,2.17-.59,28.62,28.62,0,0,1,7.73-28l-1.77-.23a31.85,31.85,0,0,1,2.85,20.62l2.21.3A163.34,163.34,0,0,0,400.46,161a1.14,1.14,0,0,0-2.06-.27,82.13,82.13,0,0,0-9.65,45,80.82,80.82,0,0,0,2,13c.34,1.41,2.51.81,2.17-.6Z"/><path d="M437.17,195.37l0-58.89c0-2.5,0-5,0-7.49,0-1.07,0-3.81,1.79-3.25,1.48.47,2.53,2.35,3.13,3.66.93,2,1.73,4.16,2.53,6.25a167.3,167.3,0,0,1,10.92,57.2l2.95-.4A41.8,41.8,0,0,0,453.93,182c-1.94-2.9-4.84-5.72-8.41-6.32-5.74-1-14,3.78-11.6,10.52.65,1.8,3.55,1,2.89-.8-1.76-4.86,5.24-7.83,9.06-6.55,5.75,1.93,8,9.26,9.68,14.4a1.51,1.51,0,0,0,2.95-.4,170.33,170.33,0,0,0-10.95-57.78c-.86-2.29-1.77-4.56-2.75-6.81a10.8,10.8,0,0,0-3.48-4.58,4.37,4.37,0,0,0-4.89-.43c-1.7,1-2.19,3-2.29,4.87-.25,5.09,0,10.25,0,15.35v16l0,35.93a1.5,1.5,0,0,0,3,0Z"/><path d="M406.9,107c6.43,0,6.44-10,0-10s-6.45,10,0,10Z"/><path d="M464.39,67.51c6.43,0,6.44-10,0-10s-6.45,10,0,10Z"/><path d="M477,143c6.44,0,6.45-10,0-10s-6.44,10,0,10Z"/><path d="M518.28,90.86c6.44,0,6.45-10,0-10s-6.44,10,0,10Z"/><path d="M406.54,177.49l.18-63.47-2.25,1.3c6.83,3,8.27,11.74,9.59,18.26a196.72,196.72,0,0,1,3.66,28.8c.29,5.51.35,11,.2,16.55-.05,1.65,2.65,2.1,2.94.4a45.42,45.42,0,0,0-5.43-30.48,1.52,1.52,0,0,0-2.6,0,87.68,87.68,0,0,0-7.45,35.83,1.5,1.5,0,0,0,3,0,83.92,83.92,0,0,1,7.05-34.32h-2.6A42.13,42.13,0,0,1,418,178.53l2.95.4a202,202,0,0,0-1.44-30.61c-.62-5-1.4-9.91-2.38-14.82a59.61,59.61,0,0,0-3.24-11.91c-1.59-3.73-4.08-7.18-7.88-8.86a1.52,1.52,0,0,0-2.26,1.29l-.18,63.47a1.5,1.5,0,0,0,3,0Z"/><path d="M452.87,137.91a359.65,359.65,0,0,1,2.05-54.51Q455.8,75.69,457,68l-2.51.67c7.4,6.32,9.52,16.18,10.12,25.48.34,5.27.22,10.56.17,15.84l-.18,19.72-.2,22,2.8-.75a85.37,85.37,0,0,1-7.59-26.87,1.52,1.52,0,0,0-2.8-.76,25.27,25.27,0,0,0-4.46,20.38c.4,1.89,3.29,1.09,2.9-.79a22.36,22.36,0,0,1,4.15-18.07l-2.79-.76a89.67,89.67,0,0,0,8,28.38c.65,1.4,2.78.64,2.79-.76q.18-20.2.37-40.43c.09-10.33.64-21.12-2.53-31.09a29.33,29.33,0,0,0-8.63-13.61c-.76-.65-2.31-.55-2.5.67a360.62,360.62,0,0,0-4.53,55q0,7.83.26,15.66c.08,1.93,3.08,1.94,3,0Z"/><path d="M475.58,198.48a79.85,79.85,0,0,1,2.22-44.54A77,77,0,0,1,483,142.22l-2.06-.27A161.41,161.41,0,0,1,484.46,197c-.14,1.25,2,1.54,2.21.3A34.46,34.46,0,0,0,483.59,175a1.14,1.14,0,0,0-1.76-.23,30.92,30.92,0,0,0-8.32,30.17,1.13,1.13,0,0,0,2.17-.6,28.66,28.66,0,0,1,7.74-28l-1.77-.22a31.91,31.91,0,0,1,2.85,20.62l2.21.3a163.41,163.41,0,0,0-3.63-55.66,1.13,1.13,0,0,0-2.05-.27,81.54,81.54,0,0,0-7.62,58c.33,1.4,2.5.81,2.17-.6Z"/><path d="M519.43,175.7l0-58.89c0-2.5,0-5,0-7.49,0-1.34.15-4.29,2.26-3.61,1.59.5,2.71,2.41,3.36,3.83,1,2.07,1.76,4.22,2.57,6.34a167.57,167.57,0,0,1,10.93,57.3l2.21-.3a41.29,41.29,0,0,0-4.48-10.36c-1.89-2.83-4.71-5.56-8.19-6.15-5.48-.93-13.46,3.63-11.14,10,.49,1.36,2.67.77,2.17-.59-1.86-5.15,5.45-8.37,9.52-7,5.9,2,8.25,9.39,9.95,14.67a1.13,1.13,0,0,0,2.21-.3,170,170,0,0,0-10.93-57.68c-.86-2.26-1.75-4.51-2.71-6.73a10.6,10.6,0,0,0-3.36-4.44,4,4,0,0,0-4.51-.43c-1.57,1-2,2.82-2.09,4.55-.25,5.09,0,10.25,0,15.34v16l0,35.94a1.13,1.13,0,0,0,2.25,0Z"/></g></svg>