<svg xmlns="http://www.w3.org/2000/svg" viewBox="0 0 1649.62 275.96"><defs><style>.cls-1{font-size:36px;font-family:Montserrat-ExtraLight, Montserrat;font-weight:200;}</style></defs><g id="TEXTOS"><text class="cls-1" transform="translate(120.09 212.76) rotate(30.91)">C</text><text class="cls-1" transform="translate(149.63 230.01) rotate(24.82)">O</text><text class="cls-1" transform="matrix(0.95, 0.32, -0.32, 0.95, 184.6, 245.63)">N</text><text class="cls-1" transform="matrix(0.98, 0.21, -0.21, 0.98, 220.45, 257.12)">D</text><text class="cls-1" transform="translate(257.6 264.6) rotate(5.68)">U</text><text class="cls-1" transform="translate(293.93 267.61) rotate(0.3)">Z</text><text class="cls-1" transform="translate(325.52 267.35) rotate(-2.85)">I</text><text class="cls-1" transform="translate(343.6 266.43) rotate(-5.59)">R</text><text class="cls-1" transform="matrix(0.99, -0.13, 0.13, 0.99, 376.49, 262.92)"> </text><text class="cls-1" transform="matrix(0.99, -0.16, 0.16, 0.99, 394.17, 260.5)">E</text><text class="cls-1" transform="translate(424.13 255.49) rotate(-10.28)"> </text><text class="cls-1" transform="matrix(0.98, -0.19, 0.19, 0.98, 441.78, 252.26)">E</text><text class="cls-1" transform="matrix(0.98, -0.19, 0.19, 0.98, 471.7, 246.49)">S</text><text class="cls-1" transform="translate(499.95 240.99) rotate(-11.08)">T</text><text class="cls-1" transform="translate(526 235.88) rotate(-11.18)">I</text><text class="cls-1" transform="translate(543 232.53) rotate(-11.38)">M</text><text class="cls-1" transform="translate(582.36 224.59) rotate(-11.74)">U</text><text class="cls-1" transform="matrix(0.98, -0.21, 0.21, 0.98, 616.58, 217.44)">L</text><text class="cls-1" transform="translate(641.22 212.13) rotate(-12.58)">A</text><text class="cls-1" transform="translate(672.68 205.08) rotate(-13.18)">R</text><text class="cls-1" transform="translate(704.94 197.46) rotate(-13.71)"> </text><text class="cls-1" transform="matrix(0.97, -0.25, 0.25, 0.97, 722.38, 193.21)">O</text><text class="cls-1" transform="translate(757.72 184.08) rotate(-15.05)"> </text><text class="cls-1" transform="translate(775.02 179.43) rotate(-15.75)">C</text><text class="cls-1" transform="translate(806.19 170.59) rotate(-16.8)">O</text><text class="cls-1" transform="translate(841.1 159.97) rotate(-17.71)">R</text><text class="cls-1" transform="translate(872.64 149.84) rotate(-18.31)">P</text><text class="cls-1" transform="translate(902.13 140.05) rotate(-18.72)">O</text><text class="cls-1" transform="translate(936.74 128.29) rotate(-18.88)"> </text><text class="cls-1" transform="translate(953.77 122.46) rotate(-18.88)">A</text><text class="cls-1" transform="translate(984.35 112.01) rotate(-18.76)"> </text><text class="cls-1" transform="translate(1001.36 106.23) rotate(-18.51)">P</text><text class="cls-1" transform="translate(1030.83 96.39) rotate(-18.02)">E</text><text class="cls-1" transform="translate(1059.75 87.01) rotate(-17.3)">R</text><text class="cls-1" transform="translate(1091.34 77.19) rotate(-16.21)">M</text><text class="cls-1" transform="matrix(0.97, -0.26, 0.26, 0.97, 1129.82, 66.13)">E</text><text class="cls-1" transform="matrix(0.97, -0.23, 0.23, 0.97, 1159.16, 58.39)">A</text><text class="cls-1" transform="matrix(0.98, -0.21, 0.21, 0.98, 1190.43, 50.97)">R</text><text class="cls-1" transform="translate(1222.8 44.38) rotate(-10.51)"> </text><text class="cls-1" transform="translate(1240.29 41.12) rotate(-8.5)">O</text><text class="cls-1" transform="matrix(0.99, -0.11, 0.11, 0.99, 1276.3, 36.01)"> </text><text class="cls-1" transform="translate(1293.99 34) rotate(-4.73)">E</text><text class="cls-1" transform="matrix(1, -0.04, 0.04, 1, 1324.14, 31.65)">S</text><text class="cls-1" transform="translate(1352.62 30.57) rotate(0.04)">P</text><text class="cls-1" transform="translate(1383.42 30.74) rotate(2.81)">A</text><text class="cls-1" transform="matrix(0.99, 0.1, -0.1, 0.99, 1415.39, 32.48)">Ç</text><text class="cls-1" transform="translate(1447.33 35.88) rotate(9.32)">O</text></g></svg>