<svg id="Layer_1" data-name="Layer 1" xmlns="http://www.w3.org/2000/svg" viewBox="0 0 603.17 188.57"><path d="M55.16,13.1h-.72C53.93,10.94,50.12.93,45.8.93H31.18V67.17c0,2.16,1.37,4.33,5.69,4.33v.72H19.73V71.5c4.32,0,5.69-2.17,5.69-4.33V.93H10.8c-4.32,0-8.14,10-8.64,12.17H1.44L3.6.21H53Z"/><path d="M108.58,59.33h.72l-2.16,12.89H58V71.5c4.32,0,5.69-2.17,5.69-4.33V5.25C63.72,3.09,62.35.93,58,.93V.21H91.3L93.46,13.1h-.72C92.23,10.94,88.42.93,84.1.93H69.48V21.45h9.29c2.16,0,2.16-3.53,2.16-5.69h.72v12.1h-.72c0-2.16,0-5.69-2.16-5.69H69.48V71.5H99.94C104.26,71.5,108.08,61.49,108.58,59.33ZM134.07,71.5v.72H116.93V71.5c4.32,0,4.9-2,4.25-4.11L110,29.59H99.65L92.52,54.14c-.57,2.09,0,4.11,4.32,4.11V59H84.75v-.72c4.32,0,6.48-2,7.13-4.11L107.5.21,127,67.39C127.59,69.48,129.75,71.5,134.07,71.5ZM109.73,28.87l-5-16.71L99.87,28.87Z"/><path d="M172.37,13.1h-.72C171.15,10.94,167.33.93,163,.93H148.39V67.17c0,2.16,1.37,4.33,5.69,4.33v.72H136.94V71.5c4.33,0,5.69-2.17,5.69-4.33V.93H128c-4.32,0-8.14,10-8.64,12.17h-.72L120.82.21h49.39Z"/><path d="M267.13,79.63a42.43,42.43,0,0,1-22.76,7c-18.36,0-36.72-11.45-50.47-50.41h-7.2v31c0,2.16,1.36,4.33,5.68,4.33v.72H175.25V71.5c4.32,0,5.69-2.17,5.69-4.33V5.25c0-2.16-1.37-4.32-5.69-4.32V.21h23.18c9.94,0,20.17,8.06,20.17,18,0,9.51-9.44,17.35-18.94,17.93,13.1,36.65,29.23,49.76,45.58,49.76,11.59,0,21.46-6.7,21.46-6.7Zm-68.7-44.14c9.22,0,14.4-7.77,14.4-17.28S207.65.93,198.43.93H186.7V35.49Z"/><path d="M265.11,0A36.12,36.12,0,1,1,229,36.07,36.15,36.15,0,0,1,265.11,0Zm0,71.51c19.15,0,30.38-16.28,30.38-35.43S284.26.71,265.11.71C247.39.71,234.72,17,234.72,36.07S246,71.5,265.11,71.5Z"/><path d="M350.14,113.3V114c-8.34,0-12.9-6.18-14.34-8.4a5.28,5.28,0,0,1-.36-.6c-3.3,5.82-8.1,9-14.16,9-7,0-19.08-4-19.08-17.4,0-10.32,11.34-16.86,16.26-19.32a38.23,38.23,0,0,1-3.72-8.88c-1.62-7.74,1.92-14.22,9.3-14.22,4,0,7.2,3.42,7.2,9.36,0,5.76-3.48,9.48-8,12.3,3.6,7,9.12,15.6,14,23a50.49,50.49,0,0,0,2.16-12.6c.06-1.8-1-3.6-4.62-3.6v-.6H345v.6c-3.6,0-4.8,1.8-4.86,3.6a53.42,53.42,0,0,1-2.34,13.44c.9,1.32,1.74,2.64,2.58,3.9C342.28,106.52,346.66,113.3,350.14,113.3Zm-15.18-9c-5-7.92-11.82-18.18-16.14-26.28-4,2-11.82,7.2-11.82,17,0,14.94,9,18.36,14.28,18.36C327,113.42,331.78,110.18,335,104.3ZM319.54,66.8a35.49,35.49,0,0,0,3.3,8.4c4-2.52,7.8-5.94,7.8-11.64,0-6.18-3.78-8.76-6.6-8.76C319.42,54.8,318.22,60.44,319.54,66.8Z"/><path d="M142.91,130.82a23.86,23.86,0,0,1,8.74,1.63v7.1h-.48c0-6.48-2.16-8.25-8.26-8.25-11.76,0-20.11,10.75-20.11,23.42s7.39,23.77,20.11,23.77a23.19,23.19,0,0,0,8.74-1.92,17.65,17.65,0,0,0,5.28-3.12l.34.33a22.35,22.35,0,0,1-5.62,3.22A23.31,23.31,0,0,1,119,154.72,23.92,23.92,0,0,1,142.91,130.82Z"/><path d="M182.32,170.37h.48l-1.44,8.6H159.18v-.48c2.88,0,3.8-1.44,3.8-2.88V134.32c0-1.44-.92-2.88-3.8-2.88V131h22.18l1.44,8.59h-.48c-.33-1.44-2.88-8.11-5.76-8.11h-9.74v13.68H173c1.44,0,1.44-2.35,1.44-3.79h.48v8.07h-.48c0-1.44,0-3.8-1.44-3.8h-6.19v32.89h9.74C179.44,178.49,182,171.81,182.32,170.37Z"/><path d="M213.14,131.44c-2.88,0-3.79,1.44-3.79,2.88V179L189,139.6v36c0,1.44.91,2.88,3.8,2.88V179h-8.07v-.48c2.88,0,3.79-1.44,3.79-2.88V134.32c0-1.44-.91-2.88-3.79-2.88V131H189l19.88,39.32v-36c0-1.44-.92-2.88-3.8-2.88V131h8.07Z"/><path d="M250.87,139.55h-.48c-.34-1.44-2.88-8.11-5.76-8.11h-9.75v44.17c0,1.44.91,2.88,3.79,2.88V179H227.25v-.48c2.88,0,3.79-1.44,3.79-2.88V131.44H221.3c-2.88,0-5.43,6.67-5.76,8.11h-.48L216.5,131h32.93Z"/><path d="M286.29,178.49V179H274.87v-.48c2.88,0,2.83-1.2,2.16-2.45L265.22,155h-4.8v20.65c0,1.44.91,2.88,3.79,2.88V179H252.78v-.48c2.88,0,3.8-1.44,3.8-2.88V134.32c0-1.44-.92-2.88-3.8-2.88V131h15.46c6.63,0,13.44,5.38,13.44,12,0,6.34-6.29,11.57-12.62,12L280.87,176C281.54,177.29,283.41,178.49,286.29,178.49Zm-18.05-24c6.15,0,9.6-5.18,9.6-11.52s-3.45-11.52-9.6-11.52h-7.82v23Z"/><path d="M309.91,130.82a24.08,24.08,0,1,1-24.1,24.05A24.1,24.1,0,0,1,309.91,130.82Zm0,47.67c12.77,0,20.25-10.85,20.25-23.62s-7.48-23.57-20.25-23.57c-11.81,0-20.26,10.85-20.26,23.57S297.14,178.49,309.91,178.49Z"/><path d="M385.31,155a24,24,0,0,1-24,24H347.44v-.48c2.88,0,3.79-1.44,3.79-2.88V134.32c0-1.44-.91-2.88-3.79-2.88V131h13.87A24,24,0,0,1,385.31,155Zm-3.83,0c0-12.72-7.88-23.52-20.17-23.52h-6.24v47.05h6.24C373.6,178.49,381.48,167.69,381.48,155Z"/><path d="M411.33,170.37h.48l-1.44,8.6H388.19v-.48c2.88,0,3.79-1.44,3.79-2.88V134.32c0-1.44-.91-2.88-3.79-2.88V131h22.18l1.44,8.59h-.48c-.34-1.44-2.88-8.11-5.76-8.11h-9.75v13.68H402c1.44,0,1.44-2.35,1.44-3.79h.48v8.07h-.48c0-1.44,0-3.8-1.44-3.8h-6.2v32.89h9.75C408.45,178.49,411,171.81,411.33,170.37Z"/><path d="M461.2,155a24,24,0,0,1-24,24H423.33v-.48c2.88,0,3.79-1.44,3.79-2.88V134.32c0-1.44-.91-2.88-3.79-2.88V131H437.2A24,24,0,0,1,461.2,155Zm-3.84,0c0-12.72-7.87-23.52-20.16-23.52H431v47.05h6.24C449.49,178.49,457.36,167.69,457.36,155Z"/><path d="M494.18,178.49V179H482.75v-.48c2.88,0,3.27-1.35,2.84-2.74l-7.49-25.2h-6.82l-7.3,25.2c-.38,1.39,0,2.74,2.88,2.74V179H458.8v-.48c2.88,0,4.32-1.35,4.7-2.74l13-44.79,13,44.79C489.86,177.14,491.3,178.49,494.18,178.49ZM478,150.07,474.64,139l-3.22,11.09Z"/><path d="M524.51,131.44c-2.88,0-3.79,1.44-3.79,2.88V179L500.37,139.6v36c0,1.44.91,2.88,3.79,2.88V179h-8.07v-.48c2.89,0,3.8-1.44,3.8-2.88V134.32c0-1.44-.91-2.88-3.8-2.88V131h4.28l19.87,39.32v-36c0-1.44-.91-2.88-3.79-2.88V131h8.06Z"/><path d="M559.12,177a23.31,23.31,0,0,1-32.69-22.28,24,24,0,0,1,32.69-22.27v7.1h-.48c0-6.48-2.16-8.25-8.26-8.25-11.76,0-20.11,10.75-20.11,23.42s7.39,23.77,20.11,23.77a23.19,23.19,0,0,0,8.74-1.92,17.65,17.65,0,0,0,5.28-3.12l.34.33A22.35,22.35,0,0,1,559.12,177Zm-9,2h.48l-1.15,2.2a4.07,4.07,0,0,1,3.7,3.7c0,2-2.11,3.7-4.18,3.7a3.7,3.7,0,0,1-3.69-3.7h.48a3.37,3.37,0,0,0,3.21,3.22c1.78,0,2.74-1.44,2.74-3.22a3.16,3.16,0,0,0-3-3.26l.29-.48Z"/><path d="M602,178.49V179H590.61v-.48c2.88,0,3.26-1.35,2.83-2.74L586,150.55h-6.81l-7.3,25.2c-.39,1.39,0,2.74,2.88,2.74V179h-8.07v-.48c2.88,0,4.32-1.35,4.71-2.74l13-44.79,13,44.79C597.71,177.14,599.15,178.49,602,178.49Zm-16.22-28.42L582.5,139l-3.22,11.09Z"/></svg>