<svg id="Layer_1" data-name="Layer 1" xmlns="http://www.w3.org/2000/svg" viewBox="0 0 1041.52 1041.52"><defs><style>.cls-1{fill:none;stroke:#000;stroke-miterlimit:10;}</style></defs><path d="M604.24,302.48H598c-4.34-18.61-37.23-104.86-74.46-104.86h-126V768.48c0,18.61,11.79,37.23,49,37.23v6.2H299v-6.2c37.23,0,49-18.62,49-37.23V197.62H222c-37.23,0-70.12,86.25-74.46,104.86h-6.21L160,191.41H585.63Z"/><path d="M579.87,318.53A197.31,197.31,0,0,1,651.76,332v58.47h-4c0-53.33-17.77-67.95-67.94-67.95-96.78,0-165.51,88.49-165.51,192.77s60.83,195.52,165.51,195.52c26.86,0,50.17-7.11,71.89-15.8,14.22-5.53,31.6-14.61,43.45-25.67l2.77,2.76c-13.83,11.06-29.63,19.75-46.22,26.47-22.12,8.69-46.61,16.19-71.89,16.19-109,0-197.11-90.85-197.11-199.47S470.85,318.53,579.87,318.53Z"/><path d="M939.34,710.26c0,105.38-85.53,190.91-190.91,190.91H638.07v-3.81c22.92,0,30.17-11.46,30.17-22.91V546.07c0-11.46-7.25-22.91-30.17-22.91v-3.82H748.43C853.81,519.34,939.34,604.87,939.34,710.26Zm-30.54,0c0-101.19-62.62-187.1-160.37-187.1H698.79v374.2h49.64C846.18,897.36,908.8,811.44,908.8,710.26Z"/><circle class="cls-1" cx="520.76" cy="520.76" r="520.26"/></svg>