<?xml version="1.0" standalone="no"?>
<!DOCTYPE svg PUBLIC "-//W3C//DTD SVG 1.1//EN" "http://www.w3.org/Graphics/SVG/1.1/DTD/svg11.dtd" >
<svg xmlns="http://www.w3.org/2000/svg" xmlns:xlink="http://www.w3.org/1999/xlink" version="1.1">
<metadata>
Created by FontForge 20170812 at Mon Jan 20 21:20:35 2020
 By www-data
Copyright (c) 2020 by Sweetest Goods. All rights reserved.
</metadata>
<defs>
<font id="Sauvage-Regular" horiz-adv-x="532" >
  <font-face 
    font-family="Sauvage"
    font-weight="400"
    font-stretch="normal"
    units-per-em="1000"
    panose-1="0 0 5 0 0 0 0 0 0 0"
    ascent="800"
    descent="-200"
    x-height="600"
    cap-height="1000"
    bbox="-870 -200 1580 1205"
    underline-thickness="50"
    underline-position="-100"
    unicode-range="U+0020-E064"
  />
<missing-glyph horiz-adv-x="716" 
d="M635.5 973q-18.5 -17 -18.5 -43v-860q0 -26 18.5 -43t60.5 -17v-10h-676v10q42 0 60.5 17t18.5 43v860q0 26 -18.5 43t-60.5 17v10h676v-10q-42 0 -60.5 -17zM537 930q0 26 -18.5 43t-60.5 17h-200q-42 0 -60.5 -17t-18.5 -43v-860q0 -26 18.5 -43t60.5 -17h200
q42 0 60.5 17t18.5 43v860z" />
    <glyph glyph-name="f_f" unicode="ff" horiz-adv-x="597" 
d="M577 496h-10q-6 26 -14 44.5t-30.5 34t-63.5 15.5h-82v-167h61q20 0 25 14.5t5 44.5h10v-124h-10q0 30 -5 44.5t-25 14.5h-61v-367q0 -23 11.5 -31.5t47.5 -8.5v-10h-166v10q36 0 47.5 8.5t11.5 31.5v540h-182v-167h61q20 0 25 14.5t5 44.5h10v-124h-10q0 30 -5 44.5
t-25 14.5h-61v-367q0 -23 11.5 -31.5t47.5 -8.5v-10h-166v10q36 0 47.5 8.5t11.5 31.5v480q0 26 -18.5 43t-60.5 17v10h539v-5z" />
    <glyph glyph-name=".notdef" horiz-adv-x="716" 
d="M635.5 973q-18.5 -17 -18.5 -43v-860q0 -26 18.5 -43t60.5 -17v-10h-676v10q42 0 60.5 17t18.5 43v860q0 26 -18.5 43t-60.5 17v10h676v-10q-42 0 -60.5 -17zM537 930q0 26 -18.5 43t-60.5 17h-200q-42 0 -60.5 -17t-18.5 -43v-860q0 -26 18.5 -43t60.5 -17h200
q42 0 60.5 17t18.5 43v860z" />
    <glyph glyph-name="space" unicode=" " horiz-adv-x="200" 
 />
    <glyph glyph-name="A" unicode="A" horiz-adv-x="777" 
d="M690.5 26.5q24.5 -16.5 66.5 -16.5v-10h-238v10q62 0 62 39q0 9 -3 18l-156 525h-142l-152 -525q-3 -9 -3 -17q0 -40 63 -40v-10h-168v10q42 0 66.5 16.5t31.5 40.5l270 933l271 -933q7 -24 31.5 -40.5zM419 602l-69 231l-67 -231h136z" />
    <glyph glyph-name="Aacute" unicode="&#xc1;" horiz-adv-x="777" 
d="M690.5 26.5q24.5 -16.5 66.5 -16.5v-10h-238v10q62 0 62 39q0 9 -3 18l-156 525h-142l-152 -525q-3 -9 -3 -17q0 -40 63 -40v-10h-168v10q42 0 66.5 16.5t31.5 40.5l270 933l271 -933q7 -24 31.5 -40.5zM419 602l-69 231l-67 -231h136zM384 1037q52 52 115 138l15 20
q7 7 16 7q10 0 18 -8q7 -7 7 -17q0 -11 -7 -18q-6 -6 -26 -19q-41 -30 -71 -53t-57 -50h-10z" />
    <glyph glyph-name="Abreve" unicode="&#x102;" horiz-adv-x="777" 
d="M690.5 26.5q24.5 -16.5 66.5 -16.5v-10h-238v10q62 0 62 39q0 9 -3 18l-156 525h-142l-152 -525q-3 -9 -3 -17q0 -40 63 -40v-10h-168v10q42 0 66.5 16.5t31.5 40.5l270 933l271 -933q7 -24 31.5 -40.5zM419 602l-69 231l-67 -231h136zM293 1140q0 -21 29 -35.5t66 -14.5
t66 14.5t29 35.5h5q0 -17 -12.5 -36t-35 -31.5t-52.5 -12.5t-52.5 12.5t-35 31.5t-12.5 36h5z" />
    <glyph glyph-name="Acircumflex" unicode="&#xc2;" horiz-adv-x="777" 
d="M690.5 26.5q24.5 -16.5 66.5 -16.5v-10h-238v10q62 0 62 39q0 9 -3 18l-156 525h-142l-152 -525q-3 -9 -3 -17q0 -40 63 -40v-10h-168v10q42 0 66.5 16.5t31.5 40.5l270 933l271 -933q7 -24 31.5 -40.5zM419 602l-69 231l-67 -231h136zM515 1063q0 -11 -7 -18t-17 -7
q-11 0 -17 6q-6 5 -32 55q-38 71 -53 95q-24 -37 -64 -112q-17 -34 -21 -38q-6 -7 -15 -7q-11 0 -19 8t-8 18q0 9 8 17q4 4 44 38.5t70 83.5h10q30 -51 70.5 -85t43.5 -37q7 -6 7 -17z" />
    <glyph glyph-name="Adieresis" unicode="&#xc4;" horiz-adv-x="777" 
d="M690.5 26.5q24.5 -16.5 66.5 -16.5v-10h-238v10q62 0 62 39q0 9 -3 18l-156 525h-142l-152 -525q-3 -9 -3 -17q0 -40 63 -40v-10h-168v10q42 0 66.5 16.5t31.5 40.5l270 933l271 -933q7 -24 31.5 -40.5zM419 602l-69 231l-67 -231h136zM283.5 1132q-11.5 12 -11.5 28
q0 17 11.5 28.5t28.5 11.5q16 0 28 -11.5t12 -28.5q0 -16 -12 -28t-28 -12q-17 0 -28.5 12zM433.5 1132q-11.5 12 -11.5 28q0 17 11.5 28.5t28.5 11.5q16 0 28 -11.5t12 -28.5q0 -16 -12 -28t-28 -12q-17 0 -28.5 12z" />
    <glyph glyph-name="Agrave" unicode="&#xc0;" horiz-adv-x="777" 
d="M690.5 26.5q24.5 -16.5 66.5 -16.5v-10h-238v10q62 0 62 39q0 9 -3 18l-156 525h-142l-152 -525q-3 -9 -3 -17q0 -40 63 -40v-10h-168v10q42 0 66.5 16.5t31.5 40.5l270 933l271 -933q7 -24 31.5 -40.5zM419 602l-69 231l-67 -231h136zM323 1085.5q-28 21.5 -74 54.5
q-20 13 -26 19q-7 7 -7 17t8 18t18 8q9 0 16 -7q4 -4 17 -22q66 -89 113 -136h-10q-27 27 -55 48.5z" />
    <glyph glyph-name="Amacron" unicode="&#x100;" horiz-adv-x="777" 
d="M690.5 26.5q24.5 -16.5 66.5 -16.5v-10h-238v10q62 0 62 39q0 9 -3 18l-156 525h-142l-152 -525q-3 -9 -3 -17q0 -40 63 -40v-10h-168v10q42 0 66.5 16.5t31.5 40.5l270 933l271 -933q7 -24 31.5 -40.5zM419 602l-69 231l-67 -231h136zM488 1100v-10h-200v10h200z" />
    <glyph glyph-name="Aogonek" unicode="&#x104;" horiz-adv-x="777" 
d="M690.5 26.5q24.5 -16.5 66.5 -16.5v-10h-238v10q62 0 62 39q0 9 -3 18l-156 525h-142l-152 -525q-3 -9 -3 -17q0 -40 63 -40v-10h-168v10q42 0 66.5 16.5t31.5 40.5l270 933l271 -933q7 -24 31.5 -40.5zM419 602l-69 231l-67 -231h136zM688.5 -177.5
q-22.5 -22.5 -54.5 -22.5q-34 0 -60.5 24.5t-26.5 62.5q0 41 25.5 70t61.5 43h10q-23 -16 -36 -28t-22 -32.5t-9 -52.5q0 -36 15 -56.5t42 -20.5q23 0 45 19t22 48h10q0 -32 -22.5 -54.5z" />
    <glyph glyph-name="Aring" unicode="&#xc5;" horiz-adv-x="777" 
d="M690.5 26.5q24.5 -16.5 66.5 -16.5v-10h-238v10q62 0 62 39q0 9 -3 18l-156 525h-142l-152 -525q-3 -9 -3 -17q0 -40 63 -40v-10h-168v10q42 0 66.5 16.5t31.5 40.5l270 933l271 -933q7 -24 31.5 -40.5zM419 602l-69 231l-67 -231h136zM344.5 1182.5q17.5 17.5 42.5 17.5
t42.5 -17.5t17.5 -42.5t-17.5 -42.5t-42.5 -17.5t-42.5 17.5t-17.5 42.5t17.5 42.5zM351.5 1104.5q14.5 -14.5 35.5 -14.5t35.5 14.5t14.5 35.5t-14.5 35.5t-35.5 14.5t-35.5 -14.5t-14.5 -35.5t14.5 -35.5z" />
    <glyph glyph-name="Atilde" unicode="&#xc3;" horiz-adv-x="777" 
d="M690.5 26.5q24.5 -16.5 66.5 -16.5v-10h-238v10q62 0 62 39q0 9 -3 18l-156 525h-142l-152 -525q-3 -9 -3 -17q0 -40 63 -40v-10h-168v10q42 0 66.5 16.5t31.5 40.5l270 933l271 -933q7 -24 31.5 -40.5zM419 602l-69 231l-67 -231h136zM256.5 1121.5q13.5 22.5 34.5 35.5
t42 13q24 0 41.5 -8t39.5 -24q22 -15 36 -21.5t33 -6.5q60 0 60 60h10q0 -29 -13.5 -51.5t-34.5 -35.5t-42 -13q-24 0 -41.5 8t-39.5 24q-22 15 -36 21.5t-33 6.5q-60 0 -60 -60h-10q0 29 13.5 51.5z" />
    <glyph glyph-name="AE" unicode="&#xc6;" horiz-adv-x="822" 
d="M725 43q26 33 44 74t23 62h10l-30 -179h-462v10q42 0 60.5 17t18.5 43v522h-96l-163 -525q-3 -9 -3 -19q0 -38 61 -38v-10h-168v10q42 0 67 16.5t33 40.5l269 868q-2 24 -20.5 39.5t-58.5 15.5v10h462l30 -179h-10q-5 21 -23 62t-44 74t-53 33h-124q-42 0 -60.5 -17
t-18.5 -43v-225h129q20 0 25 22t5 57h10v-168h-10q0 35 -5 57t-25 22h-129v-685h203q27 0 53 33zM389 602v301l-93 -301h93z" />
    <glyph glyph-name="B" unicode="B" horiz-adv-x="749" 
d="M538.5 553.5q76.5 -40.5 123.5 -108.5t47 -147q0 -80 -47 -148.5t-123 -109t-158 -40.5h-202h-159v10q42 0 60.5 17t18.5 43v860q0 26 -18.5 43t-60.5 17v10h159h134q57 0 114.5 -28.5t95 -76.5t37.5 -103q0 -67 -53 -122t-127 -76h1q81 0 157.5 -40.5zM179 990v-396h134
q77 0 122 56.5t45 141.5q0 86 -45 142t-122 56h-134zM511.5 48.5q56.5 38.5 87 104.5t30.5 145t-30.5 144t-87 103.5t-130.5 38.5h-68h-134v-574h202q74 0 130.5 38.5z" />
    <glyph glyph-name="C" unicode="C" horiz-adv-x="838" 
d="M87 754.5q67 114.5 181.5 181.5t250.5 67q95 0 182 -34v-148h-10q0 68 -16.5 105t-53 52t-102.5 15q-119 0 -215 -66.5t-150 -178.5t-54 -243q0 -134 50.5 -247t145.5 -180.5t223 -67.5q47 0 91 10.5t91 29.5q69 27 110 65l7 -7q-50 -40 -117 -67q-104 -41 -182 -41
q-135 0 -250 68.5t-182 185t-67 251.5t67 249.5z" />
    <glyph glyph-name="Cacute" unicode="&#x106;" horiz-adv-x="838" 
d="M87 754.5q67 114.5 181.5 181.5t250.5 67q95 0 182 -34v-148h-10q0 68 -16.5 105t-53 52t-102.5 15q-119 0 -215 -66.5t-150 -178.5t-54 -243q0 -134 50.5 -247t145.5 -180.5t223 -67.5q47 0 91 10.5t91 29.5q69 27 110 65l7 -7q-50 -40 -117 -67q-104 -41 -182 -41
q-135 0 -250 68.5t-182 185t-67 251.5t67 249.5zM465 1040q52 52 115 138l15 20q7 7 16 7q10 0 18 -8q7 -7 7 -17q0 -11 -7 -18q-6 -6 -26 -19q-41 -30 -71 -53t-57 -50h-10z" />
    <glyph glyph-name="Ccaron" unicode="&#x10c;" horiz-adv-x="838" 
d="M87 754.5q67 114.5 181.5 181.5t250.5 67q95 0 182 -34v-148h-10q0 68 -16.5 105t-53 52t-102.5 15q-119 0 -215 -66.5t-150 -178.5t-54 -243q0 -134 50.5 -247t145.5 -180.5t223 -67.5q47 0 91 10.5t91 29.5q69 27 110 65l7 -7q-50 -40 -117 -67q-104 -41 -182 -41
q-135 0 -250 68.5t-182 185t-67 251.5t67 249.5zM595 1179q0 -10 -7 -17q-3 -3 -43.5 -37t-70.5 -85h-10q-30 49 -70 83.5t-44 38.5q-8 8 -8 18q0 9 8 17t19 8q9 0 15 -7q4 -4 21 -38q40 -75 64 -112q15 24 53 95q26 50 32 55q6 6 17 6q10 0 17 -7t7 -18z" />
    <glyph glyph-name="Ccedilla" unicode="&#xc7;" horiz-adv-x="838" 
d="M87 754.5q67 114.5 181.5 181.5t250.5 67q95 0 182 -34v-148h-10q0 68 -16.5 105t-53 52t-102.5 15q-119 0 -215 -66.5t-150 -178.5t-54 -243q0 -134 50.5 -247t145.5 -180.5t223 -67.5q47 0 91 10.5t91 29.5q69 27 110 65l7 -7q-50 -40 -117 -67q-104 -41 -182 -41
q-135 0 -250 68.5t-182 185t-67 251.5t67 249.5zM553.5 -71.5q23.5 -22.5 23.5 -51.5q0 -31 -27 -54t-60 -23q-32 0 -54.5 22.5t-22.5 54.5h10q0 -29 22 -48t45 -19q27 0 42 19t15 48q0 24 -16.5 46t-46.5 22l6 10l24 45h10l-24 -46q30 -3 53.5 -25.5z" />
    <glyph glyph-name="Ccircumflex" unicode="&#x108;" horiz-adv-x="838" 
d="M87 754.5q67 114.5 181.5 181.5t250.5 67q95 0 182 -34v-148h-10q0 68 -16.5 105t-53 52t-102.5 15q-119 0 -215 -66.5t-150 -178.5t-54 -243q0 -134 50.5 -247t145.5 -180.5t223 -67.5q47 0 91 10.5t91 29.5q69 27 110 65l7 -7q-50 -40 -117 -67q-104 -41 -182 -41
q-135 0 -250 68.5t-182 185t-67 251.5t67 249.5zM596 1066q0 -11 -7 -18t-17 -7q-11 0 -17 6q-6 5 -32 55q-38 71 -53 95q-24 -37 -64 -112q-17 -34 -21 -38q-6 -7 -15 -7q-11 0 -19 8t-8 18q0 9 8 17q4 4 44 38.5t70 83.5h10q30 -51 70.5 -85t43.5 -37q7 -6 7 -17z" />
    <glyph glyph-name="D" unicode="D" horiz-adv-x="869" 
d="M559.5 932.5q114.5 -67.5 182 -182t67.5 -250.5t-67.5 -250.5t-182 -182t-250.5 -67.5h-130h-159v10q42 0 60.5 17t18.5 43v860q0 26 -18.5 43t-60.5 17v10h159h130q136 0 250.5 -67.5zM529 76.5q96 66.5 148 178.5t52 245t-52 245t-148 178.5t-220 66.5h-130v-980h130
q124 0 220 66.5z" />
    <glyph glyph-name="Dcaron" unicode="&#x10e;" horiz-adv-x="869" 
d="M559.5 932.5q114.5 -67.5 182 -182t67.5 -250.5t-67.5 -250.5t-182 -182t-250.5 -67.5h-130h-159v10q42 0 60.5 17t18.5 43v860q0 26 -18.5 43t-60.5 17v10h159h130q136 0 250.5 -67.5zM529 76.5q96 66.5 148 178.5t52 245t-52 245t-148 178.5t-220 66.5h-130v-980h130
q124 0 220 66.5zM435 1176q0 -10 -7 -17q-3 -3 -43.5 -37t-70.5 -85h-10q-30 49 -70 83.5t-44 38.5q-8 8 -8 18q0 9 8 17t19 8q9 0 15 -7q4 -4 21 -38q40 -75 64 -112q15 24 53 95q26 50 32 55q6 6 17 6q10 0 17 -7t7 -18z" />
    <glyph glyph-name="Dcroat" unicode="&#x110;" horiz-adv-x="905" 
d="M595.5 932.5q114.5 -67.5 182 -182t67.5 -250.5t-67.5 -250.5t-182 -182t-250.5 -67.5h-130h-159v10q42 0 60.5 17t18.5 43v425h-115v10h115v425q0 26 -18.5 43t-60.5 17v10h159h130q136 0 250.5 -67.5zM565 76.5q96 66.5 148 178.5t52 245t-52 245t-148 178.5t-220 66.5
h-130v-485h115v-10h-115v-485h130q124 0 220 66.5z" />
    <glyph glyph-name="E" unicode="E" 
d="M435 43q26 33 44 74t23 62h10l-30 -179h-462v10q42 0 60.5 17t18.5 43v860q0 26 -18.5 43t-60.5 17v10h462l30 -179h-10q-5 21 -23 62t-44 74t-53 33h-203v-285h129q20 0 25 22t5 57h10v-168h-10q0 35 -5 57t-25 22h-129v-685h203q27 0 53 33z" />
    <glyph glyph-name="Eacute" unicode="&#xc9;" 
d="M435 43q26 33 44 74t23 62h10l-30 -179h-462v10q42 0 60.5 17t18.5 43v860q0 26 -18.5 43t-60.5 17v10h462l30 -179h-10q-5 21 -23 62t-44 74t-53 33h-203v-285h129q20 0 25 22t5 57h10v-168h-10q0 35 -5 57t-25 22h-129v-685h203q27 0 53 33zM266 1037q52 52 115 138
l15 20q7 7 16 7q10 0 18 -8q7 -7 7 -17q0 -11 -7 -18q-6 -6 -26 -19q-41 -30 -71 -53t-57 -50h-10z" />
    <glyph glyph-name="Ebreve" unicode="&#x114;" 
d="M435 43q26 33 44 74t23 62h10l-30 -179h-462v10q42 0 60.5 17t18.5 43v860q0 26 -18.5 43t-60.5 17v10h462l30 -179h-10q-5 21 -23 62t-44 74t-53 33h-203v-285h129q20 0 25 22t5 57h10v-168h-10q0 35 -5 57t-25 22h-129v-685h203q27 0 53 33zM175 1140q0 -21 29 -35.5
t66 -14.5t66 14.5t29 35.5h5q0 -17 -12.5 -36t-35 -31.5t-52.5 -12.5t-52.5 12.5t-35 31.5t-12.5 36h5z" />
    <glyph glyph-name="Ecaron" unicode="&#x11a;" 
d="M435 43q26 33 44 74t23 62h10l-30 -179h-462v10q42 0 60.5 17t18.5 43v860q0 26 -18.5 43t-60.5 17v10h462l30 -179h-10q-5 21 -23 62t-44 74t-53 33h-203v-285h129q20 0 25 22t5 57h10v-168h-10q0 35 -5 57t-25 22h-129v-685h203q27 0 53 33zM396 1176q0 -10 -7 -17
q-3 -3 -43.5 -37t-70.5 -85h-10q-30 49 -70 83.5t-44 38.5q-8 8 -8 18q0 9 8 17t19 8q9 0 15 -7q4 -4 21 -38q40 -75 64 -112q15 24 53 95q26 50 32 55q6 6 17 6q10 0 17 -7t7 -18z" />
    <glyph glyph-name="Ecircumflex" unicode="&#xca;" 
d="M435 43q26 33 44 74t23 62h10l-30 -179h-462v10q42 0 60.5 17t18.5 43v860q0 26 -18.5 43t-60.5 17v10h462l30 -179h-10q-5 21 -23 62t-44 74t-53 33h-203v-285h129q20 0 25 22t5 57h10v-168h-10q0 35 -5 57t-25 22h-129v-685h203q27 0 53 33zM397 1063q0 -11 -7 -18
t-17 -7q-11 0 -17 6q-6 5 -32 55q-38 71 -53 95q-24 -37 -64 -112q-17 -34 -21 -38q-6 -7 -15 -7q-11 0 -19 8t-8 18q0 9 8 17q4 4 44 38.5t70 83.5h10q30 -51 70.5 -85t43.5 -37q7 -6 7 -17z" />
    <glyph glyph-name="Edieresis" unicode="&#xcb;" 
d="M435 43q26 33 44 74t23 62h10l-30 -179h-462v10q42 0 60.5 17t18.5 43v860q0 26 -18.5 43t-60.5 17v10h462l30 -179h-10q-5 21 -23 62t-44 74t-53 33h-203v-285h129q20 0 25 22t5 57h10v-168h-10q0 35 -5 57t-25 22h-129v-685h203q27 0 53 33zM165.5 1132
q-11.5 12 -11.5 28q0 17 11.5 28.5t28.5 11.5q16 0 28 -11.5t12 -28.5q0 -16 -12 -28t-28 -12q-17 0 -28.5 12zM315.5 1132q-11.5 12 -11.5 28q0 17 11.5 28.5t28.5 11.5q16 0 28 -11.5t12 -28.5q0 -16 -12 -28t-28 -12q-17 0 -28.5 12z" />
    <glyph glyph-name="Edotaccent" unicode="&#x116;" 
d="M435 43q26 33 44 74t23 62h10l-30 -179h-462v10q42 0 60.5 17t18.5 43v860q0 26 -18.5 43t-60.5 17v10h462l30 -179h-10q-5 21 -23 62t-44 74t-53 33h-203v-285h129q20 0 25 22t5 57h10v-168h-10q0 35 -5 57t-25 22h-129v-685h203q27 0 53 33zM241.5 1132
q-11.5 12 -11.5 28q0 17 11.5 28.5t28.5 11.5q16 0 28 -11.5t12 -28.5q0 -16 -12 -28t-28 -12q-17 0 -28.5 12z" />
    <glyph glyph-name="Egrave" unicode="&#xc8;" 
d="M435 43q26 33 44 74t23 62h10l-30 -179h-462v10q42 0 60.5 17t18.5 43v860q0 26 -18.5 43t-60.5 17v10h462l30 -179h-10q-5 21 -23 62t-44 74t-53 33h-203v-285h129q20 0 25 22t5 57h10v-168h-10q0 35 -5 57t-25 22h-129v-685h203q27 0 53 33zM205 1085.5
q-28 21.5 -74 54.5q-20 13 -26 19q-7 7 -7 17t8 18t18 8q9 0 16 -7q4 -4 17 -22q66 -89 113 -136h-10q-27 27 -55 48.5z" />
    <glyph glyph-name="Emacron" unicode="&#x112;" 
d="M435 43q26 33 44 74t23 62h10l-30 -179h-462v10q42 0 60.5 17t18.5 43v860q0 26 -18.5 43t-60.5 17v10h462l30 -179h-10q-5 21 -23 62t-44 74t-53 33h-203v-285h129q20 0 25 22t5 57h10v-168h-10q0 35 -5 57t-25 22h-129v-685h203q27 0 53 33zM370 1100v-10h-200v10h200z
" />
    <glyph glyph-name="Eogonek" unicode="&#x118;" 
d="M435 43q26 33 44 74t23 62h10l-30 -179h-462v10q42 0 60.5 17t18.5 43v860q0 26 -18.5 43t-60.5 17v10h462l30 -179h-10q-5 21 -23 62t-44 74t-53 33h-203v-285h129q20 0 25 22t5 57h10v-168h-10q0 35 -5 57t-25 22h-129v-685h203q27 0 53 33zM440.5 -177.5
q-22.5 -22.5 -54.5 -22.5q-34 0 -60.5 24.5t-26.5 62.5q0 41 25.5 70t61.5 43h10q-23 -16 -36 -28t-22 -32.5t-9 -52.5q0 -36 15 -56.5t42 -20.5q23 0 45 19t22 48h10q0 -32 -22.5 -54.5z" />
    <glyph glyph-name="F" unicode="F" 
d="M512 821h-10q-5 21 -23 62t-44 74t-53 33h-203v-285h129q20 0 25 22t5 57h10v-168h-10q0 35 -5 57t-25 22h-129v-625q0 -26 18.5 -43t60.5 -17v-10h-238v10q42 0 60.5 17t18.5 43v860q0 26 -18.5 43t-60.5 17v10h462z" />
    <glyph glyph-name="G" unicode="G" horiz-adv-x="911" 
d="M851 495q-42 0 -60.5 -17t-18.5 -43v-375q-95 -38 -140.5 -49t-109.5 -11q-136 0 -251.5 67.5t-183 183t-67.5 251.5t67.5 250.5t182.5 182.5t251 68h1q20 0 38 -2q74 -6 141 -32v-148h-10q0 67 -16.5 104t-53 52.5t-100.5 15.5q-120 0 -216 -67t-150.5 -179.5
t-54.5 -244.5q0 -135 51 -247t146.5 -178.5t224.5 -66.5q93 0 170 31v453h-122q-26 0 -43 -18.5t-17 -60.5h-10v90h351v-10z" />
    <glyph glyph-name="Gbreve" unicode="&#x11e;" horiz-adv-x="911" 
d="M851 495q-42 0 -60.5 -17t-18.5 -43v-375q-95 -38 -140.5 -49t-109.5 -11q-136 0 -251.5 67.5t-183 183t-67.5 251.5t67.5 250.5t182.5 182.5t251 68h1q20 0 38 -2q74 -6 141 -32v-148h-10q0 67 -16.5 104t-53 52.5t-100.5 15.5q-120 0 -216 -67t-150.5 -179.5
t-54.5 -244.5q0 -135 51 -247t146.5 -178.5t224.5 -66.5q93 0 170 31v453h-122q-26 0 -43 -18.5t-17 -60.5h-10v90h351v-10zM424 1143q0 -21 29 -35.5t66 -14.5t66 14.5t29 35.5h5q0 -17 -12.5 -36t-35 -31.5t-52.5 -12.5t-52.5 12.5t-35 31.5t-12.5 36h5z" />
    <glyph glyph-name="Gcircumflex" unicode="&#x11c;" horiz-adv-x="911" 
d="M851 495q-42 0 -60.5 -17t-18.5 -43v-375q-95 -38 -140.5 -49t-109.5 -11q-136 0 -251.5 67.5t-183 183t-67.5 251.5t67.5 250.5t182.5 182.5t251 68h1q20 0 38 -2q74 -6 141 -32v-148h-10q0 67 -16.5 104t-53 52.5t-100.5 15.5q-120 0 -216 -67t-150.5 -179.5
t-54.5 -244.5q0 -135 51 -247t146.5 -178.5t224.5 -66.5q93 0 170 31v453h-122q-26 0 -43 -18.5t-17 -60.5h-10v90h351v-10zM646 1066q0 -11 -7 -18t-17 -7q-11 0 -17 6q-6 5 -32 55q-38 71 -53 95q-24 -37 -64 -112q-17 -34 -21 -38q-6 -7 -15 -7q-11 0 -19 8t-8 18
q0 9 8 17q4 4 44 38.5t70 83.5h10q30 -51 70.5 -85t43.5 -37q7 -6 7 -17z" />
    <glyph glyph-name="H" unicode="H" horiz-adv-x="793" 
d="M712.5 973q-18.5 -17 -18.5 -43v-860q0 -26 18.5 -43t60.5 -17v-10h-238v10q42 0 60.5 17t18.5 43v625h-435v-625q0 -26 18.5 -43t60.5 -17v-10h-238v10q42 0 60.5 17t18.5 43v860q0 26 -18.5 43t-60.5 17v10h238v-10q-42 0 -60.5 -17t-18.5 -43v-225h435v225
q0 26 -18.5 43t-60.5 17v10h238v-10q-42 0 -60.5 -17z" />
    <glyph glyph-name="Hcircumflex" unicode="&#x124;" horiz-adv-x="793" 
d="M712.5 973q-18.5 -17 -18.5 -43v-860q0 -26 18.5 -43t60.5 -17v-10h-238v10q42 0 60.5 17t18.5 43v625h-435v-625q0 -26 18.5 -43t60.5 -17v-10h-238v10q42 0 60.5 17t18.5 43v860q0 26 -18.5 43t-60.5 17v10h238v-10q-42 0 -60.5 -17t-18.5 -43v-225h435v225
q0 26 -18.5 43t-60.5 17v10h238v-10q-42 0 -60.5 -17zM523 1063q0 -11 -7 -18t-17 -7q-11 0 -17 6q-6 5 -32 55q-38 71 -53 95q-24 -37 -64 -112q-17 -34 -21 -38q-6 -7 -15 -7q-11 0 -19 8t-8 18q0 9 8 17q4 4 44 38.5t70 83.5h10q30 -51 70.5 -85t43.5 -37q7 -6 7 -17z
" />
    <glyph glyph-name="I" unicode="I" horiz-adv-x="278" 
d="M20 10q42 0 60.5 17t18.5 43v860q0 26 -18.5 43t-60.5 17v10h238v-10q-42 0 -60.5 -17t-18.5 -43v-860q0 -26 18.5 -43t60.5 -17v-10h-238v10z" />
    <glyph glyph-name="Iacute" unicode="&#xcd;" horiz-adv-x="278" 
d="M20 10q42 0 60.5 17t18.5 43v860q0 26 -18.5 43t-60.5 17v10h238v-10q-42 0 -60.5 -17t-18.5 -43v-860q0 -26 18.5 -43t60.5 -17v-10h-238v10zM135 1037q52 52 115 138l15 20q7 7 16 7q10 0 18 -8q7 -7 7 -17q0 -11 -7 -18q-6 -6 -26 -19q-41 -30 -71 -53t-57 -50h-10z
" />
    <glyph glyph-name="Ibreve" unicode="&#x12c;" horiz-adv-x="278" 
d="M20 10q42 0 60.5 17t18.5 43v860q0 26 -18.5 43t-60.5 17v10h238v-10q-42 0 -60.5 -17t-18.5 -43v-860q0 -26 18.5 -43t60.5 -17v-10h-238v10zM44 1140q0 -21 29 -35.5t66 -14.5t66 14.5t29 35.5h5q0 -17 -12.5 -36t-35 -31.5t-52.5 -12.5t-52.5 12.5t-35 31.5t-12.5 36
h5z" />
    <glyph glyph-name="Icircumflex" unicode="&#xce;" horiz-adv-x="278" 
d="M20 10q42 0 60.5 17t18.5 43v860q0 26 -18.5 43t-60.5 17v10h238v-10q-42 0 -60.5 -17t-18.5 -43v-860q0 -26 18.5 -43t60.5 -17v-10h-238v10zM266 1063q0 -11 -7 -18t-17 -7q-11 0 -17 6q-6 5 -32 55q-38 71 -53 95q-24 -37 -64 -112q-17 -34 -21 -38q-6 -7 -15 -7
q-11 0 -19 8t-8 18q0 9 8 17q4 4 44 38.5t70 83.5h10q30 -51 70.5 -85t43.5 -37q7 -6 7 -17z" />
    <glyph glyph-name="Idieresis" unicode="&#xcf;" horiz-adv-x="278" 
d="M20 10q42 0 60.5 17t18.5 43v860q0 26 -18.5 43t-60.5 17v10h238v-10q-42 0 -60.5 -17t-18.5 -43v-860q0 -26 18.5 -43t60.5 -17v-10h-238v10zM34.5 1132q-11.5 12 -11.5 28q0 17 11.5 28.5t28.5 11.5q16 0 28 -11.5t12 -28.5q0 -16 -12 -28t-28 -12q-17 0 -28.5 12z
M184.5 1132q-11.5 12 -11.5 28q0 17 11.5 28.5t28.5 11.5q16 0 28 -11.5t12 -28.5q0 -16 -12 -28t-28 -12q-17 0 -28.5 12z" />
    <glyph glyph-name="Idotaccent" unicode="&#x130;" horiz-adv-x="278" 
d="M20 10q42 0 60.5 17t18.5 43v860q0 26 -18.5 43t-60.5 17v10h238v-10q-42 0 -60.5 -17t-18.5 -43v-860q0 -26 18.5 -43t60.5 -17v-10h-238v10zM110.5 1132q-11.5 12 -11.5 28q0 17 11.5 28.5t28.5 11.5q16 0 28 -11.5t12 -28.5q0 -16 -12 -28t-28 -12q-17 0 -28.5 12z
" />
    <glyph glyph-name="Igrave" unicode="&#xcc;" horiz-adv-x="278" 
d="M20 10q42 0 60.5 17t18.5 43v860q0 26 -18.5 43t-60.5 17v10h238v-10q-42 0 -60.5 -17t-18.5 -43v-860q0 -26 18.5 -43t60.5 -17v-10h-238v10zM74 1085.5q-28 21.5 -74 54.5q-20 13 -26 19q-7 7 -7 17t8 18t18 8q9 0 16 -7q4 -4 17 -22q66 -89 113 -136h-10
q-27 27 -55 48.5z" />
    <glyph glyph-name="Imacron" unicode="&#x12a;" horiz-adv-x="278" 
d="M20 10q42 0 60.5 17t18.5 43v860q0 26 -18.5 43t-60.5 17v10h238v-10q-42 0 -60.5 -17t-18.5 -43v-860q0 -26 18.5 -43t60.5 -17v-10h-238v10zM239 1100v-10h-200v10h200z" />
    <glyph glyph-name="Iogonek" unicode="&#x12e;" horiz-adv-x="278" 
d="M20 10q42 0 60.5 17t18.5 43v860q0 26 -18.5 43t-60.5 17v10h238v-10q-42 0 -60.5 -17t-18.5 -43v-860q0 -26 18.5 -43t60.5 -17v-10h-238v10zM188.5 -177.5q-22.5 -22.5 -54.5 -22.5q-34 0 -60.5 24.5t-26.5 62.5q0 41 25.5 70t61.5 43h10q-23 -16 -36 -28t-22 -32.5
t-9 -52.5q0 -36 15 -56.5t42 -20.5q23 0 45 19t22 48h10q0 -32 -22.5 -54.5z" />
    <glyph glyph-name="Itilde" unicode="&#x128;" horiz-adv-x="278" 
d="M20 10q42 0 60.5 17t18.5 43v860q0 26 -18.5 43t-60.5 17v10h238v-10q-42 0 -60.5 -17t-18.5 -43v-860q0 -26 18.5 -43t60.5 -17v-10h-238v10zM7.5 1121.5q13.5 22.5 34.5 35.5t42 13q24 0 41.5 -8t39.5 -24q22 -15 36 -21.5t33 -6.5q60 0 60 60h10q0 -29 -13.5 -51.5
t-34.5 -35.5t-42 -13q-24 0 -41.5 8t-39.5 24q-22 15 -36 21.5t-33 6.5q-60 0 -60 -60h-10q0 29 13.5 51.5z" />
    <glyph glyph-name="J" unicode="J" horiz-adv-x="274" 
d="M258 990q-42 0 -60.5 -17t-18.5 -43v-751q0 -196 -81.5 -287.5t-241.5 -91.5v10q88 0 141 37t77.5 117.5t24.5 214.5v751q0 26 -18.5 43t-60.5 17v10h238v-10z" />
    <glyph glyph-name="Jcircumflex" unicode="&#x134;" horiz-adv-x="274" 
d="M258 990q-42 0 -60.5 -17t-18.5 -43v-751q0 -196 -81.5 -287.5t-241.5 -91.5v10q88 0 141 37t77.5 117.5t24.5 214.5v751q0 26 -18.5 43t-60.5 17v10h238v-10zM266 1063q0 -11 -7 -18t-17 -7q-11 0 -17 6q-6 5 -32 55q-38 71 -53 95q-24 -37 -64 -112q-17 -34 -21 -38
q-6 -7 -15 -7q-11 0 -19 8t-8 18q0 9 8 17q4 4 44 38.5t70 83.5h10q30 -51 70.5 -85t43.5 -37q7 -6 7 -17z" />
    <glyph glyph-name="K" unicode="K" horiz-adv-x="832" 
d="M740 25q30 -15 72 -15v-10h-250v10q53 0 53 26q0 9 -9 25l-337 595l-90 -109v-477q0 -26 18.5 -43t60.5 -17v-10h-238v10q42 0 60.5 17t18.5 43v860q0 26 -18.5 43t-60.5 17v10h238v-10q-42 0 -60.5 -17t-18.5 -43v-367l315 383q13 15 13 26q0 18 -48 18v10h171v-10
q-43 0 -75.5 -12.5t-47.5 -31.5l-184 -224l375 -661q12 -21 42 -36z" />
    <glyph glyph-name="L" unicode="L" 
d="M512 179l-30 -179h-462v10q42 0 60.5 17t18.5 43v860q0 26 -18.5 43t-60.5 17v10h238v-10q-42 0 -60.5 -17t-18.5 -43v-920h203q27 0 53 33t44 74t23 62h10z" />
    <glyph glyph-name="Lacute" unicode="&#x139;" 
d="M512 179l-30 -179h-462v10q42 0 60.5 17t18.5 43v860q0 26 -18.5 43t-60.5 17v10h238v-10q-42 0 -60.5 -17t-18.5 -43v-920h203q27 0 53 33t44 74t23 62h10zM135 1037q52 52 115 138l15 20q7 7 16 7q10 0 18 -8q7 -7 7 -17q0 -11 -7 -18q-6 -6 -26 -19q-41 -30 -71 -53
t-57 -50h-10z" />
    <glyph glyph-name="Lcaron" unicode="&#x13d;" 
d="M512 179l-30 -179h-462v10q42 0 60.5 17t18.5 43v860q0 26 -18.5 43t-60.5 17v10h238v-10q-42 0 -60.5 -17t-18.5 -43v-920h203q27 0 53 33t44 74t23 62h10zM265 1176q0 -10 -7 -17q-3 -3 -43.5 -37t-70.5 -85h-10q-30 49 -70 83.5t-44 38.5q-8 8 -8 18q0 9 8 17t19 8
q9 0 15 -7q4 -4 21 -38q40 -75 64 -112q15 24 53 95q26 50 32 55q6 6 17 6q10 0 17 -7t7 -18z" />
    <glyph glyph-name="M" unicode="M" horiz-adv-x="863" 
d="M782.5 973q-18.5 -17 -18.5 -43v-860q0 -26 18.5 -43t60.5 -17v-10h-238v10q42 0 60.5 17t18.5 43v903l-287 -703l-288 550v-750q0 -26 18.5 -43t60.5 -17v-10h-168v10q42 0 60.5 17t18.5 43v860q0 26 -18.5 43t-60.5 17v10h89l318 -627l-3 -11l260 638h159v-10
q-42 0 -60.5 -17z" />
    <glyph glyph-name="N" unicode="N" horiz-adv-x="632" 
d="M612 990q-42 0 -60.5 -17t-18.5 -43v-930l-424 820v-750q0 -26 18.5 -43t60.5 -17v-10h-168v10q42 0 60.5 17t18.5 43v860q0 26 -18.5 43t-60.5 17v10h89l414 -819v749q0 26 -18.5 43t-60.5 17v10h168v-10z" />
    <glyph glyph-name="Nacute" unicode="&#x143;" horiz-adv-x="632" 
d="M612 990q-42 0 -60.5 -17t-18.5 -43v-930l-424 820v-750q0 -26 18.5 -43t60.5 -17v-10h-168v10q42 0 60.5 17t18.5 43v860q0 26 -18.5 43t-60.5 17v10h89l414 -819v749q0 26 -18.5 43t-60.5 17v10h168v-10zM291 1037q52 52 115 138l15 20q7 7 16 7q10 0 18 -8q7 -7 7 -17
q0 -11 -7 -18q-6 -6 -26 -19q-41 -30 -71 -53t-57 -50h-10z" />
    <glyph glyph-name="Ncaron" unicode="&#x147;" horiz-adv-x="632" 
d="M612 990q-42 0 -60.5 -17t-18.5 -43v-930l-424 820v-750q0 -26 18.5 -43t60.5 -17v-10h-168v10q42 0 60.5 17t18.5 43v860q0 26 -18.5 43t-60.5 17v10h89l414 -819v749q0 26 -18.5 43t-60.5 17v10h168v-10zM421 1176q0 -10 -7 -17q-3 -3 -43.5 -37t-70.5 -85h-10
q-30 49 -70 83.5t-44 38.5q-8 8 -8 18q0 9 8 17t19 8q9 0 15 -7q4 -4 21 -38q40 -75 64 -112q15 24 53 95q26 50 32 55q6 6 17 6q10 0 17 -7t7 -18z" />
    <glyph glyph-name="Ntilde" unicode="&#xd1;" horiz-adv-x="632" 
d="M612 990q-42 0 -60.5 -17t-18.5 -43v-930l-424 820v-750q0 -26 18.5 -43t60.5 -17v-10h-168v10q42 0 60.5 17t18.5 43v860q0 26 -18.5 43t-60.5 17v10h89l414 -819v749q0 26 -18.5 43t-60.5 17v10h168v-10zM163.5 1121.5q13.5 22.5 34.5 35.5t42 13q24 0 41.5 -8
t39.5 -24q22 -15 36 -21.5t33 -6.5q60 0 60 60h10q0 -29 -13.5 -51.5t-34.5 -35.5t-42 -13q-24 0 -41.5 8t-39.5 24q-22 15 -36 21.5t-33 6.5q-60 0 -60 -60h-10q0 29 13.5 51.5z" />
    <glyph glyph-name="O" unicode="O" horiz-adv-x="1084" 
d="M87.5 753q67.5 115 183 182.5t251.5 67.5t251.5 -67.5t183 -182.5t67.5 -251t-67.5 -251.5t-183 -183t-251.5 -67.5t-251.5 67.5t-183 183t-67.5 251.5t67.5 251zM151 255q51 -112 146.5 -178.5t224.5 -66.5t224.5 66.5t146.5 178.5t51 247q0 134 -51 246t-146.5 178.5
t-224.5 66.5q-120 0 -216.5 -67t-151 -179.5t-54.5 -244.5q0 -135 51 -247z" />
    <glyph glyph-name="Oacute" unicode="&#xd3;" horiz-adv-x="1084" 
d="M87.5 753q67.5 115 183 182.5t251.5 67.5t251.5 -67.5t183 -182.5t67.5 -251t-67.5 -251.5t-183 -183t-251.5 -67.5t-251.5 67.5t-183 183t-67.5 251.5t67.5 251zM151 255q51 -112 146.5 -178.5t224.5 -66.5t224.5 66.5t146.5 178.5t51 247q0 134 -51 246t-146.5 178.5
t-224.5 66.5q-120 0 -216.5 -67t-151 -179.5t-54.5 -244.5q0 -135 51 -247zM518 1040q52 52 115 138l15 20q7 7 16 7q10 0 18 -8q7 -7 7 -17q0 -11 -7 -18q-6 -6 -26 -19q-41 -30 -71 -53t-57 -50h-10z" />
    <glyph glyph-name="Obreve" unicode="&#x14e;" horiz-adv-x="1084" 
d="M87.5 753q67.5 115 183 182.5t251.5 67.5t251.5 -67.5t183 -182.5t67.5 -251t-67.5 -251.5t-183 -183t-251.5 -67.5t-251.5 67.5t-183 183t-67.5 251.5t67.5 251zM151 255q51 -112 146.5 -178.5t224.5 -66.5t224.5 66.5t146.5 178.5t51 247q0 134 -51 246t-146.5 178.5
t-224.5 66.5q-120 0 -216.5 -67t-151 -179.5t-54.5 -244.5q0 -135 51 -247zM427 1143q0 -21 29 -35.5t66 -14.5t66 14.5t29 35.5h5q0 -17 -12.5 -36t-35 -31.5t-52.5 -12.5t-52.5 12.5t-35 31.5t-12.5 36h5z" />
    <glyph glyph-name="Ocircumflex" unicode="&#xd4;" horiz-adv-x="1084" 
d="M87.5 753q67.5 115 183 182.5t251.5 67.5t251.5 -67.5t183 -182.5t67.5 -251t-67.5 -251.5t-183 -183t-251.5 -67.5t-251.5 67.5t-183 183t-67.5 251.5t67.5 251zM151 255q51 -112 146.5 -178.5t224.5 -66.5t224.5 66.5t146.5 178.5t51 247q0 134 -51 246t-146.5 178.5
t-224.5 66.5q-120 0 -216.5 -67t-151 -179.5t-54.5 -244.5q0 -135 51 -247zM649 1066q0 -11 -7 -18t-17 -7q-11 0 -17 6q-6 5 -32 55q-38 71 -53 95q-24 -37 -64 -112q-17 -34 -21 -38q-6 -7 -15 -7q-11 0 -19 8t-8 18q0 9 8 17q4 4 44 38.5t70 83.5h10q30 -51 70.5 -85
t43.5 -37q7 -6 7 -17z" />
    <glyph glyph-name="Odieresis" unicode="&#xd6;" horiz-adv-x="1084" 
d="M87.5 753q67.5 115 183 182.5t251.5 67.5t251.5 -67.5t183 -182.5t67.5 -251t-67.5 -251.5t-183 -183t-251.5 -67.5t-251.5 67.5t-183 183t-67.5 251.5t67.5 251zM151 255q51 -112 146.5 -178.5t224.5 -66.5t224.5 66.5t146.5 178.5t51 247q0 134 -51 246t-146.5 178.5
t-224.5 66.5q-120 0 -216.5 -67t-151 -179.5t-54.5 -244.5q0 -135 51 -247zM417.5 1135q-11.5 12 -11.5 28q0 17 11.5 28.5t28.5 11.5q16 0 28 -11.5t12 -28.5q0 -16 -12 -28t-28 -12q-17 0 -28.5 12zM567.5 1135q-11.5 12 -11.5 28q0 17 11.5 28.5t28.5 11.5q16 0 28 -11.5
t12 -28.5q0 -16 -12 -28t-28 -12q-17 0 -28.5 12z" />
    <glyph glyph-name="Ograve" unicode="&#xd2;" horiz-adv-x="1084" 
d="M87.5 753q67.5 115 183 182.5t251.5 67.5t251.5 -67.5t183 -182.5t67.5 -251t-67.5 -251.5t-183 -183t-251.5 -67.5t-251.5 67.5t-183 183t-67.5 251.5t67.5 251zM151 255q51 -112 146.5 -178.5t224.5 -66.5t224.5 66.5t146.5 178.5t51 247q0 134 -51 246t-146.5 178.5
t-224.5 66.5q-120 0 -216.5 -67t-151 -179.5t-54.5 -244.5q0 -135 51 -247zM457 1088.5q-28 21.5 -74 54.5q-20 13 -26 19q-7 7 -7 17t8 18t18 8q9 0 16 -7q4 -4 17 -22q66 -89 113 -136h-10q-27 27 -55 48.5z" />
    <glyph glyph-name="Ohungarumlaut" unicode="&#x150;" horiz-adv-x="1084" 
d="M87.5 753q67.5 115 183 182.5t251.5 67.5t251.5 -67.5t183 -182.5t67.5 -251t-67.5 -251.5t-183 -183t-251.5 -67.5t-251.5 67.5t-183 183t-67.5 251.5t67.5 251zM151 255q51 -112 146.5 -178.5t224.5 -66.5t224.5 66.5t146.5 178.5t51 247q0 134 -51 246t-146.5 178.5
t-224.5 66.5q-120 0 -216.5 -67t-151 -179.5t-54.5 -244.5q0 -135 51 -247zM400 1037q45 45 108 130q16 22 22 28q7 7 16 7q10 0 18 -8q7 -7 7 -18q0 -10 -7 -17q-6 -6 -26 -19q-41 -30 -71 -53t-57 -50h-10zM562 1037q52 52 115 138l15 20q7 7 16 7q10 0 18 -8q7 -7 7 -17
q0 -11 -7 -18q-6 -6 -26 -19q-41 -30 -71 -53t-57 -50h-10z" />
    <glyph glyph-name="Omacron" unicode="&#x14c;" horiz-adv-x="1084" 
d="M87.5 753q67.5 115 183 182.5t251.5 67.5t251.5 -67.5t183 -182.5t67.5 -251t-67.5 -251.5t-183 -183t-251.5 -67.5t-251.5 67.5t-183 183t-67.5 251.5t67.5 251zM151 255q51 -112 146.5 -178.5t224.5 -66.5t224.5 66.5t146.5 178.5t51 247q0 134 -51 246t-146.5 178.5
t-224.5 66.5q-120 0 -216.5 -67t-151 -179.5t-54.5 -244.5q0 -135 51 -247zM622 1103v-10h-200v10h200z" />
    <glyph glyph-name="Oslash" unicode="&#xd8;" horiz-adv-x="1084" 
d="M848 882.5q83 -70.5 129.5 -169.5t46.5 -211q0 -136 -67.5 -251.5t-183 -183t-251.5 -67.5q-66 0 -129 17l-41 -147h-10l41 149q-104 30 -186.5 101t-129.5 170.5t-47 211.5q0 136 67.5 251t183 182.5t251.5 67.5q67 0 130 -17l40 144h10l-41 -147q104 -30 187 -100.5z
M134 297q34 -96 98.5 -165.5t154.5 -99.5l262 942q-62 19 -127 19q-120 0 -216.5 -67t-151 -179.5t-54.5 -244.5q0 -109 34 -205zM746.5 76.5q95.5 66.5 146.5 178.5t51 247q0 109 -34 204t-98.5 164.5t-153.5 100.5l-262 -942q62 -19 126 -19q129 0 224.5 66.5z" />
    <glyph glyph-name="Otilde" unicode="&#xd5;" horiz-adv-x="1084" 
d="M87.5 753q67.5 115 183 182.5t251.5 67.5t251.5 -67.5t183 -182.5t67.5 -251t-67.5 -251.5t-183 -183t-251.5 -67.5t-251.5 67.5t-183 183t-67.5 251.5t67.5 251zM151 255q51 -112 146.5 -178.5t224.5 -66.5t224.5 66.5t146.5 178.5t51 247q0 134 -51 246t-146.5 178.5
t-224.5 66.5q-120 0 -216.5 -67t-151 -179.5t-54.5 -244.5q0 -135 51 -247zM390.5 1124.5q13.5 22.5 34.5 35.5t42 13q24 0 41.5 -8t39.5 -24q22 -15 36 -21.5t33 -6.5q60 0 60 60h10q0 -29 -13.5 -51.5t-34.5 -35.5t-42 -13q-24 0 -41.5 8t-39.5 24q-22 15 -36 21.5
t-33 6.5q-60 0 -60 -60h-10q0 29 13.5 51.5z" />
    <glyph glyph-name="OE" unicode="&#x152;" horiz-adv-x="953" 
d="M856 43q26 33 44 74t23 62h10l-30 -179h-383q-136 0 -250.5 67.5t-182 182t-67.5 250.5t67.5 250.5t182 182t250.5 67.5h383l30 -179h-10q-5 21 -23 62t-44 74t-53 33h-203v-285h129q20 0 25 22t5 57h10v-168h-10q0 35 -5 57t-25 22h-129v-685h203q27 0 53 33zM520 990
q-119 0 -215 -66.5t-150 -179t-54 -244.5q0 -134 50.5 -246t145.5 -178t223 -66v980z" />
    <glyph glyph-name="P" unicode="P" horiz-adv-x="642" 
d="M476 966q65 -34 105.5 -91.5t40.5 -124.5t-40.5 -124.5t-105.5 -91.5t-134 -34h-163v-430q0 -26 18.5 -43t60.5 -17v-10h-238v10q42 0 60.5 17t18.5 43v860q0 26 -18.5 43t-60.5 17v10h159h163q69 0 134 -34zM449.5 542q45.5 32 69 86.5t23.5 121.5t-23.5 122t-69 86.5
t-107.5 31.5h-163v-480h163q62 0 107.5 32z" />
    <glyph glyph-name="Thorn" unicode="&#xde;" horiz-adv-x="644" 
d="M478 716q65 -34 105.5 -91.5t40.5 -124.5t-40.5 -124.5t-105.5 -91.5t-134 -34h-165v-180q0 -26 18.5 -43t60.5 -17v-10h-238v10q42 0 60.5 17t18.5 43v860q0 26 -18.5 43t-60.5 17v10h238v-10q-42 0 -60.5 -17t-18.5 -43v-180h165q69 0 134 -34zM451.5 292
q45.5 32 69 86.5t23.5 121.5t-23.5 122t-69 86.5t-107.5 31.5h-165v-480h165q62 0 107.5 32z" />
    <glyph glyph-name="Q" unicode="Q" horiz-adv-x="1084" 
d="M698.5 -24.5q17.5 -24.5 23.5 -32.5q32 -46 54 -72t53 -43.5t71 -17.5v-10q-88 0 -148 29t-96 68.5t-81 105.5q-27 -3 -53 -3q-136 0 -251.5 67.5t-183 183t-67.5 251.5t67.5 251t183 182.5t251.5 67.5t251.5 -67.5t183 -182.5t67.5 -251q0 -112 -46.5 -211t-128 -170
t-185.5 -101q17 -20 34.5 -44.5zM568 12q-41 58 -77 86.5t-89 28.5v10q87 0 146.5 -28t105.5 -78q90 30 155.5 99.5t99.5 165.5t34 206q0 134 -50.5 246t-146 178.5t-224.5 66.5q-120 0 -216 -67t-150.5 -179.5t-54.5 -244.5q0 -135 50.5 -247t146 -178.5t224.5 -66.5
q16 0 46 2z" />
    <glyph glyph-name="R" unicode="R" horiz-adv-x="738" 
d="M646.5 25q29.5 -15 71.5 -15v-10h-238v10q53 0 53 26q0 11 -8 25l-246 439h-100v-430q0 -26 18.5 -43t60.5 -17v-10h-238v10q42 0 60.5 17t18.5 43v860q0 26 -18.5 43t-60.5 17v10h159h163q69 0 134 -34t105.5 -91.5t40.5 -124.5q0 -64 -37.5 -120t-98.5 -90.5
t-127 -38.5l246 -440q12 -21 41.5 -36zM342 510q62 0 107.5 32t69 86.5t23.5 121.5t-23.5 122t-69 86.5t-107.5 31.5h-163v-480h163z" />
    <glyph glyph-name="Racute" unicode="&#x154;" horiz-adv-x="738" 
d="M646.5 25q29.5 -15 71.5 -15v-10h-238v10q53 0 53 26q0 11 -8 25l-246 439h-100v-430q0 -26 18.5 -43t60.5 -17v-10h-238v10q42 0 60.5 17t18.5 43v860q0 26 -18.5 43t-60.5 17v10h159h163q69 0 134 -34t105.5 -91.5t40.5 -124.5q0 -64 -37.5 -120t-98.5 -90.5
t-127 -38.5l246 -440q12 -21 41.5 -36zM342 510q62 0 107.5 32t69 86.5t23.5 121.5t-23.5 122t-69 86.5t-107.5 31.5h-163v-480h163zM273 1037q52 52 115 138l15 20q7 7 16 7q10 0 18 -8q7 -7 7 -17q0 -11 -7 -18q-6 -6 -26 -19q-41 -30 -71 -53t-57 -50h-10z" />
    <glyph glyph-name="Rcaron" unicode="&#x158;" horiz-adv-x="738" 
d="M646.5 25q29.5 -15 71.5 -15v-10h-238v10q53 0 53 26q0 11 -8 25l-246 439h-100v-430q0 -26 18.5 -43t60.5 -17v-10h-238v10q42 0 60.5 17t18.5 43v860q0 26 -18.5 43t-60.5 17v10h159h163q69 0 134 -34t105.5 -91.5t40.5 -124.5q0 -64 -37.5 -120t-98.5 -90.5
t-127 -38.5l246 -440q12 -21 41.5 -36zM342 510q62 0 107.5 32t69 86.5t23.5 121.5t-23.5 122t-69 86.5t-107.5 31.5h-163v-480h163zM403 1176q0 -10 -7 -17q-3 -3 -43.5 -37t-70.5 -85h-10q-30 49 -70 83.5t-44 38.5q-8 8 -8 18q0 9 8 17t19 8q9 0 15 -7q4 -4 21 -38
q40 -75 64 -112q15 24 53 95q26 50 32 55q6 6 17 6q10 0 17 -7t7 -18z" />
    <glyph glyph-name="S" unicode="S" horiz-adv-x="659" 
d="M112 889q31 52 85 81.5t122 29.5q57 0 110 -23t78 -46v69h9v-265h-9q0 55 -23 114.5t-66 100t-99 40.5q-77 0 -122.5 -45t-45.5 -134q0 -62 32.5 -108t79.5 -78.5t127 -76.5q82 -45 131.5 -79.5t83.5 -84t34 -116.5q0 -69 -36.5 -130.5t-105 -99.5t-158.5 -38
q-89 0 -154 40t-78 55.5t-77 102.5v-71h-10v315h10q0 -99 35.5 -199t106 -166.5t167.5 -66.5q78 0 130 34.5t76 85t24 98.5q0 60 -31.5 105t-78 76.5t-125.5 74.5q-83 45 -133.5 80t-85 86.5t-34.5 120.5q0 66 31 118z" />
    <glyph glyph-name="Sacute" unicode="&#x15a;" horiz-adv-x="659" 
d="M112 889q31 52 85 81.5t122 29.5q57 0 110 -23t78 -46v69h9v-265h-9q0 55 -23 114.5t-66 100t-99 40.5q-77 0 -122.5 -45t-45.5 -134q0 -62 32.5 -108t79.5 -78.5t127 -76.5q82 -45 131.5 -79.5t83.5 -84t34 -116.5q0 -69 -36.5 -130.5t-105 -99.5t-158.5 -38
q-89 0 -154 40t-78 55.5t-77 102.5v-71h-10v315h10q0 -99 35.5 -199t106 -166.5t167.5 -66.5q78 0 130 34.5t76 85t24 98.5q0 60 -31.5 105t-78 76.5t-125.5 74.5q-83 45 -133.5 80t-85 86.5t-34.5 120.5q0 66 31 118zM315 1037q52 52 115 138l15 20q7 7 16 7q10 0 18 -8
q7 -7 7 -17q0 -11 -7 -18q-6 -6 -26 -19q-41 -30 -71 -53t-57 -50h-10z" />
    <glyph glyph-name="Scaron" unicode="&#x160;" horiz-adv-x="659" 
d="M112 889q31 52 85 81.5t122 29.5q57 0 110 -23t78 -46v69h9v-265h-9q0 55 -23 114.5t-66 100t-99 40.5q-77 0 -122.5 -45t-45.5 -134q0 -62 32.5 -108t79.5 -78.5t127 -76.5q82 -45 131.5 -79.5t83.5 -84t34 -116.5q0 -69 -36.5 -130.5t-105 -99.5t-158.5 -38
q-89 0 -154 40t-78 55.5t-77 102.5v-71h-10v315h10q0 -99 35.5 -199t106 -166.5t167.5 -66.5q78 0 130 34.5t76 85t24 98.5q0 60 -31.5 105t-78 76.5t-125.5 74.5q-83 45 -133.5 80t-85 86.5t-34.5 120.5q0 66 31 118zM445 1176q0 -10 -7 -17q-3 -3 -43.5 -37t-70.5 -85h-10
q-30 49 -70 83.5t-44 38.5q-8 8 -8 18q0 9 8 17t19 8q9 0 15 -7q4 -4 21 -38q40 -75 64 -112q15 24 53 95q26 50 32 55q6 6 17 6q10 0 17 -7t7 -18z" />
    <glyph glyph-name="Scedilla" unicode="&#x15e;" horiz-adv-x="659" 
d="M112 889q31 52 85 81.5t122 29.5q57 0 110 -23t78 -46v69h9v-265h-9q0 55 -23 114.5t-66 100t-99 40.5q-77 0 -122.5 -45t-45.5 -134q0 -62 32.5 -108t79.5 -78.5t127 -76.5q82 -45 131.5 -79.5t83.5 -84t34 -116.5q0 -69 -36.5 -130.5t-105 -99.5t-158.5 -38
q-89 0 -154 40t-78 55.5t-77 102.5v-71h-10v315h10q0 -99 35.5 -199t106 -166.5t167.5 -66.5q78 0 130 34.5t76 85t24 98.5q0 60 -31.5 105t-78 76.5t-125.5 74.5q-83 45 -133.5 80t-85 86.5t-34.5 120.5q0 66 31 118zM373.5 -71.5q23.5 -22.5 23.5 -51.5q0 -31 -27 -54
t-60 -23q-32 0 -54.5 22.5t-22.5 54.5h10q0 -29 22 -48t45 -19q27 0 42 19t15 48q0 24 -16.5 46t-46.5 22l6 10l24 45h10l-24 -46q30 -3 53.5 -25.5z" />
    <glyph glyph-name="Scircumflex" unicode="&#x15c;" horiz-adv-x="659" 
d="M112 889q31 52 85 81.5t122 29.5q57 0 110 -23t78 -46v69h9v-265h-9q0 55 -23 114.5t-66 100t-99 40.5q-77 0 -122.5 -45t-45.5 -134q0 -62 32.5 -108t79.5 -78.5t127 -76.5q82 -45 131.5 -79.5t83.5 -84t34 -116.5q0 -69 -36.5 -130.5t-105 -99.5t-158.5 -38
q-89 0 -154 40t-78 55.5t-77 102.5v-71h-10v315h10q0 -99 35.5 -199t106 -166.5t167.5 -66.5q78 0 130 34.5t76 85t24 98.5q0 60 -31.5 105t-78 76.5t-125.5 74.5q-83 45 -133.5 80t-85 86.5t-34.5 120.5q0 66 31 118zM446 1063q0 -11 -7 -18t-17 -7q-11 0 -17 6
q-6 5 -32 55q-38 71 -53 95q-24 -37 -64 -112q-17 -34 -21 -38q-6 -7 -15 -7q-11 0 -19 8t-8 18q0 9 8 17q4 4 44 38.5t70 83.5h10q30 -51 70.5 -85t43.5 -37q7 -6 7 -17z" />
    <glyph glyph-name="uni1E9E" unicode="&#x1e9e;" horiz-adv-x="715" 
d="M20 10q42 0 60.5 17t18.5 43v653q0 81 40.5 144.5t101.5 98t118 34.5q55 0 104.5 -23t80 -62t30.5 -87q0 -34 -13.5 -60t-32.5 -45t-52 -46t-51.5 -45t-31.5 -43.5t-13 -58.5q0 -30 19 -55.5t47 -45.5t76 -48q56 -33 90.5 -58t58.5 -60.5t24 -81.5q0 -56 -30 -97
t-77 -62.5t-97 -21.5q-27 0 -49 8.5t-50 23.5q-25 15 -35 15q-9 0 -13 -11t-4 -36h-10v139h10q24 -54 63 -91.5t88 -37.5q46 0 77.5 24t46.5 61t15 76q0 46 -20 82t-48 62t-75 61q-40 31 -63 51.5t-38.5 46.5t-15.5 56q0 47 20 76t61 66q41 36 62 67t21 79q0 79 -46.5 125.5
t-128.5 46.5q-53 0 -94 -31.5t-63.5 -83.5t-22.5 -112v-693q0 -26 18.5 -43t60.5 -17v-10h-238v10z" />
    <glyph glyph-name="T" unicode="T" horiz-adv-x="786" 
d="M766 821h-10q-5 21 -23 62t-44 74t-53 33h-203v-920q0 -26 18.5 -43t60.5 -17v-10h-238v10q42 0 60.5 17t18.5 43v920h-203q-27 0 -53 -33t-44 -74t-23 -62h-10l30 179h686z" />
    <glyph glyph-name="Tcaron" unicode="&#x164;" horiz-adv-x="786" 
d="M766 821h-10q-5 21 -23 62t-44 74t-53 33h-203v-920q0 -26 18.5 -43t60.5 -17v-10h-238v10q42 0 60.5 17t18.5 43v920h-203q-27 0 -53 -33t-44 -74t-23 -62h-10l30 179h686zM519 1176q0 -10 -7 -17q-3 -3 -43.5 -37t-70.5 -85h-10q-30 49 -70 83.5t-44 38.5q-8 8 -8 18
q0 9 8 17t19 8q9 0 15 -7q4 -4 21 -38q40 -75 64 -112q15 24 53 95q26 50 32 55q6 6 17 6q10 0 17 -7t7 -18z" />
    <glyph glyph-name="U" unicode="U" horiz-adv-x="944" 
d="M80.5 973q-18.5 17 -60.5 17v10h234v-10q-42 0 -60.5 -17t-18.5 -43l4 -541q1 -129 50.5 -214.5t124.5 -125t153 -39.5q89 0 163 39t119.5 124t45.5 216v541q0 26 -18.5 43t-60.5 17v10h168v-10q-42 0 -60.5 -17t-18.5 -43v-541q0 -132 -45.5 -219.5t-122 -128.5
t-170.5 -41q-97 0 -190.5 42t-155.5 129.5t-62 217.5v541q0 26 -18.5 43z" />
    <glyph glyph-name="Uacute" unicode="&#xda;" horiz-adv-x="944" 
d="M80.5 973q-18.5 17 -60.5 17v10h234v-10q-42 0 -60.5 -17t-18.5 -43l4 -541q1 -129 50.5 -214.5t124.5 -125t153 -39.5q89 0 163 39t119.5 124t45.5 216v541q0 26 -18.5 43t-60.5 17v10h168v-10q-42 0 -60.5 -17t-18.5 -43v-541q0 -132 -45.5 -219.5t-122 -128.5
t-170.5 -41q-97 0 -190.5 42t-155.5 129.5t-62 217.5v541q0 26 -18.5 43zM498 1037q52 52 115 138l15 20q7 7 16 7q10 0 18 -8q7 -7 7 -17q0 -11 -7 -18q-6 -6 -26 -19q-41 -30 -71 -53t-57 -50h-10z" />
    <glyph glyph-name="Ubreve" unicode="&#x16c;" horiz-adv-x="944" 
d="M80.5 973q-18.5 17 -60.5 17v10h234v-10q-42 0 -60.5 -17t-18.5 -43l4 -541q1 -129 50.5 -214.5t124.5 -125t153 -39.5q89 0 163 39t119.5 124t45.5 216v541q0 26 -18.5 43t-60.5 17v10h168v-10q-42 0 -60.5 -17t-18.5 -43v-541q0 -132 -45.5 -219.5t-122 -128.5
t-170.5 -41q-97 0 -190.5 42t-155.5 129.5t-62 217.5v541q0 26 -18.5 43zM407 1140q0 -21 29 -35.5t66 -14.5t66 14.5t29 35.5h5q0 -17 -12.5 -36t-35 -31.5t-52.5 -12.5t-52.5 12.5t-35 31.5t-12.5 36h5z" />
    <glyph glyph-name="Ucircumflex" unicode="&#xdb;" horiz-adv-x="944" 
d="M80.5 973q-18.5 17 -60.5 17v10h234v-10q-42 0 -60.5 -17t-18.5 -43l4 -541q1 -129 50.5 -214.5t124.5 -125t153 -39.5q89 0 163 39t119.5 124t45.5 216v541q0 26 -18.5 43t-60.5 17v10h168v-10q-42 0 -60.5 -17t-18.5 -43v-541q0 -132 -45.5 -219.5t-122 -128.5
t-170.5 -41q-97 0 -190.5 42t-155.5 129.5t-62 217.5v541q0 26 -18.5 43zM629 1063q0 -11 -7 -18t-17 -7q-11 0 -17 6q-6 5 -32 55q-38 71 -53 95q-24 -37 -64 -112q-17 -34 -21 -38q-6 -7 -15 -7q-11 0 -19 8t-8 18q0 9 8 17q4 4 44 38.5t70 83.5h10q30 -51 70.5 -85
t43.5 -37q7 -6 7 -17z" />
    <glyph glyph-name="Udieresis" unicode="&#xdc;" horiz-adv-x="944" 
d="M80.5 973q-18.5 17 -60.5 17v10h234v-10q-42 0 -60.5 -17t-18.5 -43l4 -541q1 -129 50.5 -214.5t124.5 -125t153 -39.5q89 0 163 39t119.5 124t45.5 216v541q0 26 -18.5 43t-60.5 17v10h168v-10q-42 0 -60.5 -17t-18.5 -43v-541q0 -132 -45.5 -219.5t-122 -128.5
t-170.5 -41q-97 0 -190.5 42t-155.5 129.5t-62 217.5v541q0 26 -18.5 43zM397.5 1132q-11.5 12 -11.5 28q0 17 11.5 28.5t28.5 11.5q16 0 28 -11.5t12 -28.5q0 -16 -12 -28t-28 -12q-17 0 -28.5 12zM547.5 1132q-11.5 12 -11.5 28q0 17 11.5 28.5t28.5 11.5q16 0 28 -11.5
t12 -28.5q0 -16 -12 -28t-28 -12q-17 0 -28.5 12z" />
    <glyph glyph-name="Ugrave" unicode="&#xd9;" horiz-adv-x="944" 
d="M80.5 973q-18.5 17 -60.5 17v10h234v-10q-42 0 -60.5 -17t-18.5 -43l4 -541q1 -129 50.5 -214.5t124.5 -125t153 -39.5q89 0 163 39t119.5 124t45.5 216v541q0 26 -18.5 43t-60.5 17v10h168v-10q-42 0 -60.5 -17t-18.5 -43v-541q0 -132 -45.5 -219.5t-122 -128.5
t-170.5 -41q-97 0 -190.5 42t-155.5 129.5t-62 217.5v541q0 26 -18.5 43zM437 1085.5q-28 21.5 -74 54.5q-20 13 -26 19q-7 7 -7 17t8 18t18 8q9 0 16 -7q4 -4 17 -22q66 -89 113 -136h-10q-27 27 -55 48.5z" />
    <glyph glyph-name="Uhungarumlaut" unicode="&#x170;" horiz-adv-x="944" 
d="M80.5 973q-18.5 17 -60.5 17v10h234v-10q-42 0 -60.5 -17t-18.5 -43l4 -541q1 -129 50.5 -214.5t124.5 -125t153 -39.5q89 0 163 39t119.5 124t45.5 216v541q0 26 -18.5 43t-60.5 17v10h168v-10q-42 0 -60.5 -17t-18.5 -43v-541q0 -132 -45.5 -219.5t-122 -128.5
t-170.5 -41q-97 0 -190.5 42t-155.5 129.5t-62 217.5v541q0 26 -18.5 43zM400 1037q45 45 108 130q16 22 22 28q7 7 16 7q10 0 18 -8q7 -7 7 -18q0 -10 -7 -17q-6 -6 -26 -19q-41 -30 -71 -53t-57 -50h-10zM562 1037q52 52 115 138l15 20q7 7 16 7q10 0 18 -8q7 -7 7 -17
q0 -11 -7 -18q-6 -6 -26 -19q-41 -30 -71 -53t-57 -50h-10z" />
    <glyph glyph-name="Umacron" unicode="&#x16a;" horiz-adv-x="944" 
d="M80.5 973q-18.5 17 -60.5 17v10h234v-10q-42 0 -60.5 -17t-18.5 -43l4 -541q1 -129 50.5 -214.5t124.5 -125t153 -39.5q89 0 163 39t119.5 124t45.5 216v541q0 26 -18.5 43t-60.5 17v10h168v-10q-42 0 -60.5 -17t-18.5 -43v-541q0 -132 -45.5 -219.5t-122 -128.5
t-170.5 -41q-97 0 -190.5 42t-155.5 129.5t-62 217.5v541q0 26 -18.5 43zM602 1100v-10h-200v10h200z" />
    <glyph glyph-name="Uogonek" unicode="&#x172;" horiz-adv-x="944" 
d="M80.5 973q-18.5 17 -60.5 17v10h234v-10q-42 0 -60.5 -17t-18.5 -43l4 -541q1 -129 50.5 -214.5t124.5 -125t153 -39.5q89 0 163 39t119.5 124t45.5 216v541q0 26 -18.5 43t-60.5 17v10h168v-10q-42 0 -60.5 -17t-18.5 -43v-541q0 -132 -45.5 -219.5t-122 -128.5
t-170.5 -41q-97 0 -190.5 42t-155.5 129.5t-62 217.5v541q0 26 -18.5 43zM556.5 -177.5q-22.5 -22.5 -54.5 -22.5q-34 0 -60.5 24.5t-26.5 62.5q0 41 25.5 70t61.5 43h10q-23 -16 -36 -28t-22 -32.5t-9 -52.5q0 -36 15 -56.5t42 -20.5q23 0 45 19t22 48h10
q0 -32 -22.5 -54.5z" />
    <glyph glyph-name="Utilde" unicode="&#x168;" horiz-adv-x="944" 
d="M80.5 973q-18.5 17 -60.5 17v10h234v-10q-42 0 -60.5 -17t-18.5 -43l4 -541q1 -129 50.5 -214.5t124.5 -125t153 -39.5q89 0 163 39t119.5 124t45.5 216v541q0 26 -18.5 43t-60.5 17v10h168v-10q-42 0 -60.5 -17t-18.5 -43v-541q0 -132 -45.5 -219.5t-122 -128.5
t-170.5 -41q-97 0 -190.5 42t-155.5 129.5t-62 217.5v541q0 26 -18.5 43zM370.5 1121.5q13.5 22.5 34.5 35.5t42 13q24 0 41.5 -8t39.5 -24q22 -15 36 -21.5t33 -6.5q60 0 60 60h10q0 -29 -13.5 -51.5t-34.5 -35.5t-42 -13q-24 0 -41.5 8t-39.5 24q-22 15 -36 21.5t-33 6.5
q-60 0 -60 -60h-10q0 29 13.5 51.5z" />
    <glyph glyph-name="V" unicode="V" horiz-adv-x="778" 
d="M758 990q-42 0 -66.5 -16.5t-31.5 -40.5l-271 -933l-271 933q-7 24 -31.5 40.5t-66.5 16.5v10h241v-10q-62 0 -62 -39q0 -9 3 -18l224 -773l224 773q3 9 3 17q0 40 -63 40v10h168v-10z" />
    <glyph glyph-name="W" unicode="W" horiz-adv-x="1110" 
d="M1090 990q-42 0 -66.5 -16.5t-31.5 -40.5l-271 -933l-166 572l-166 -572l-271 933q-7 24 -31.5 40.5t-66.5 16.5v10h238v-10q-62 0 -62 -39q0 -9 3 -18l229 -767l122 422l-100 345q-7 24 -31.5 40.5t-66.5 16.5v10h406v-10q-42 0 -66.5 -16.5t-31.5 -40.5l-64 -219
l164 -548l222 767q3 9 3 17q0 40 -63 40v10h168v-10zM591 731l59 202q3 9 3 17q0 40 -63 40q-62 0 -62 -39q0 -9 3 -18z" />
    <glyph glyph-name="Wacute" unicode="&#x1e82;" horiz-adv-x="1110" 
d="M1090 990q-42 0 -66.5 -16.5t-31.5 -40.5l-271 -933l-166 572l-166 -572l-271 933q-7 24 -31.5 40.5t-66.5 16.5v10h238v-10q-62 0 -62 -39q0 -9 3 -18l229 -767l122 422l-100 345q-7 24 -31.5 40.5t-66.5 16.5v10h406v-10q-42 0 -66.5 -16.5t-31.5 -40.5l-64 -219
l164 -548l222 767q3 9 3 17q0 40 -63 40v10h168v-10zM591 731l59 202q3 9 3 17q0 40 -63 40q-62 0 -62 -39q0 -9 3 -18zM551 1037q52 52 115 138l15 20q7 7 16 7q10 0 18 -8q7 -7 7 -17q0 -11 -7 -18q-6 -6 -26 -19q-41 -30 -71 -53t-57 -50h-10z" />
    <glyph glyph-name="Wcircumflex" unicode="&#x174;" horiz-adv-x="1110" 
d="M1090 990q-42 0 -66.5 -16.5t-31.5 -40.5l-271 -933l-166 572l-166 -572l-271 933q-7 24 -31.5 40.5t-66.5 16.5v10h238v-10q-62 0 -62 -39q0 -9 3 -18l229 -767l122 422l-100 345q-7 24 -31.5 40.5t-66.5 16.5v10h406v-10q-42 0 -66.5 -16.5t-31.5 -40.5l-64 -219
l164 -548l222 767q3 9 3 17q0 40 -63 40v10h168v-10zM591 731l59 202q3 9 3 17q0 40 -63 40q-62 0 -62 -39q0 -9 3 -18zM682 1063q0 -11 -7 -18t-17 -7q-11 0 -17 6q-6 5 -32 55q-38 71 -53 95q-24 -37 -64 -112q-17 -34 -21 -38q-6 -7 -15 -7q-11 0 -19 8t-8 18q0 9 8 17
q4 4 44 38.5t70 83.5h10q30 -51 70.5 -85t43.5 -37q7 -6 7 -17z" />
    <glyph glyph-name="Wdieresis" unicode="&#x1e84;" horiz-adv-x="1110" 
d="M1090 990q-42 0 -66.5 -16.5t-31.5 -40.5l-271 -933l-166 572l-166 -572l-271 933q-7 24 -31.5 40.5t-66.5 16.5v10h238v-10q-62 0 -62 -39q0 -9 3 -18l229 -767l122 422l-100 345q-7 24 -31.5 40.5t-66.5 16.5v10h406v-10q-42 0 -66.5 -16.5t-31.5 -40.5l-64 -219
l164 -548l222 767q3 9 3 17q0 40 -63 40v10h168v-10zM591 731l59 202q3 9 3 17q0 40 -63 40q-62 0 -62 -39q0 -9 3 -18zM450.5 1132q-11.5 12 -11.5 28q0 17 11.5 28.5t28.5 11.5q16 0 28 -11.5t12 -28.5q0 -16 -12 -28t-28 -12q-17 0 -28.5 12zM600.5 1132
q-11.5 12 -11.5 28q0 17 11.5 28.5t28.5 11.5q16 0 28 -11.5t12 -28.5q0 -16 -12 -28t-28 -12q-17 0 -28.5 12z" />
    <glyph glyph-name="Wgrave" unicode="&#x1e80;" horiz-adv-x="1110" 
d="M1090 990q-42 0 -66.5 -16.5t-31.5 -40.5l-271 -933l-166 572l-166 -572l-271 933q-7 24 -31.5 40.5t-66.5 16.5v10h238v-10q-62 0 -62 -39q0 -9 3 -18l229 -767l122 422l-100 345q-7 24 -31.5 40.5t-66.5 16.5v10h406v-10q-42 0 -66.5 -16.5t-31.5 -40.5l-64 -219
l164 -548l222 767q3 9 3 17q0 40 -63 40v10h168v-10zM591 731l59 202q3 9 3 17q0 40 -63 40q-62 0 -62 -39q0 -9 3 -18zM490 1085.5q-28 21.5 -74 54.5q-20 13 -26 19q-7 7 -7 17t8 18t18 8q9 0 16 -7q4 -4 17 -22q66 -89 113 -136h-10q-27 27 -55 48.5z" />
    <glyph glyph-name="X" unicode="X" horiz-adv-x="832" 
d="M740.5 25q29.5 -15 71.5 -15v-10h-238v10q53 0 53 26q0 11 -8 25l-227 410l-221 -409q-8 -14 -8 -25q0 -27 54 -27v-10h-168v10q42 0 71.5 15t40.5 37l226 418l-254 459q-12 22 -41.5 36.5t-71.5 14.5v10h227v-10q-53 0 -53 -26q0 -11 8 -25l222 -392l211 391q8 14 8 25
q0 27 -54 27v10h168v-10q-42 0 -71.5 -15t-40.5 -37l-216 -400l270 -477q12 -21 41.5 -36z" />
    <glyph glyph-name="Y" unicode="Y" horiz-adv-x="777" 
d="M757 990q-42 0 -70.5 -15.5t-39.5 -37.5l-219 -436l1 -1v-430q0 -26 18.5 -43t60.5 -17v-10h-238v10q42 0 60.5 17t18.5 43v430l-219 437q-11 22 -39.5 37.5t-70.5 15.5v10h227v-10q-54 0 -54 -28q0 -8 7 -24l223 -427l214 426q7 14 7 24q0 29 -55 29v10h168v-10z" />
    <glyph glyph-name="Yacute" unicode="&#xdd;" horiz-adv-x="777" 
d="M757 990q-42 0 -70.5 -15.5t-39.5 -37.5l-219 -436l1 -1v-430q0 -26 18.5 -43t60.5 -17v-10h-238v10q42 0 60.5 17t18.5 43v430l-219 437q-11 22 -39.5 37.5t-70.5 15.5v10h227v-10q-54 0 -54 -28q0 -8 7 -24l223 -427l214 426q7 14 7 24q0 29 -55 29v10h168v-10z
M405 1037q52 52 115 138l15 20q7 7 16 7q10 0 18 -8q7 -7 7 -17q0 -11 -7 -18q-6 -6 -26 -19q-41 -30 -71 -53t-57 -50h-10z" />
    <glyph glyph-name="Ycircumflex" unicode="&#x176;" horiz-adv-x="777" 
d="M757 990q-42 0 -70.5 -15.5t-39.5 -37.5l-219 -436l1 -1v-430q0 -26 18.5 -43t60.5 -17v-10h-238v10q42 0 60.5 17t18.5 43v430l-219 437q-11 22 -39.5 37.5t-70.5 15.5v10h227v-10q-54 0 -54 -28q0 -8 7 -24l223 -427l214 426q7 14 7 24q0 29 -55 29v10h168v-10z
M536 1063q0 -11 -7 -18t-17 -7q-11 0 -17 6q-6 5 -32 55q-38 71 -53 95q-24 -37 -64 -112q-17 -34 -21 -38q-6 -7 -15 -7q-11 0 -19 8t-8 18q0 9 8 17q4 4 44 38.5t70 83.5h10q30 -51 70.5 -85t43.5 -37q7 -6 7 -17z" />
    <glyph glyph-name="Ydieresis" unicode="&#x178;" horiz-adv-x="777" 
d="M757 990q-42 0 -70.5 -15.5t-39.5 -37.5l-219 -436l1 -1v-430q0 -26 18.5 -43t60.5 -17v-10h-238v10q42 0 60.5 17t18.5 43v430l-219 437q-11 22 -39.5 37.5t-70.5 15.5v10h227v-10q-54 0 -54 -28q0 -8 7 -24l223 -427l214 426q7 14 7 24q0 29 -55 29v10h168v-10z
M304.5 1132q-11.5 12 -11.5 28q0 17 11.5 28.5t28.5 11.5q16 0 28 -11.5t12 -28.5q0 -16 -12 -28t-28 -12q-17 0 -28.5 12zM454.5 1132q-11.5 12 -11.5 28q0 17 11.5 28.5t28.5 11.5q16 0 28 -11.5t12 -28.5q0 -16 -12 -28t-28 -12q-17 0 -28.5 12z" />
    <glyph glyph-name="Ygrave" unicode="&#x1ef2;" horiz-adv-x="777" 
d="M757 990q-42 0 -70.5 -15.5t-39.5 -37.5l-219 -436l1 -1v-430q0 -26 18.5 -43t60.5 -17v-10h-238v10q42 0 60.5 17t18.5 43v430l-219 437q-11 22 -39.5 37.5t-70.5 15.5v10h227v-10q-54 0 -54 -28q0 -8 7 -24l223 -427l214 426q7 14 7 24q0 29 -55 29v10h168v-10z
M344 1085.5q-28 21.5 -74 54.5q-20 13 -26 19q-7 7 -7 17t8 18t18 8q9 0 16 -7q4 -4 17 -22q66 -89 113 -136h-10q-27 27 -55 48.5z" />
    <glyph glyph-name="Z" unicode="Z" horiz-adv-x="474" 
d="M454 179l-30 -179h-402l337 990h-209q-27 0 -53 -33t-44 -74t-23 -62h-10l30 179h392l-337 -990h219q27 0 53 33t44 74t23 62h10z" />
    <glyph glyph-name="Zcaron" unicode="&#x17d;" horiz-adv-x="474" 
d="M454 179l-30 -179h-402l337 990h-209q-27 0 -53 -33t-44 -74t-23 -62h-10l30 179h392l-337 -990h219q27 0 53 33t44 74t23 62h10zM365 1176q0 -10 -7 -17q-3 -3 -43.5 -37t-70.5 -85h-10q-30 49 -70 83.5t-44 38.5q-8 8 -8 18q0 9 8 17t19 8q9 0 15 -7q4 -4 21 -38
q40 -75 64 -112q15 24 53 95q26 50 32 55q6 6 17 6q10 0 17 -7t7 -18z" />
    <glyph glyph-name="Zdotaccent" unicode="&#x17b;" horiz-adv-x="474" 
d="M454 179l-30 -179h-402l337 990h-209q-27 0 -53 -33t-44 -74t-23 -62h-10l30 179h392l-337 -990h219q27 0 53 33t44 74t23 62h10zM210.5 1132q-11.5 12 -11.5 28q0 17 11.5 28.5t28.5 11.5q16 0 28 -11.5t12 -28.5q0 -16 -12 -28t-28 -12q-17 0 -28.5 12z" />
    <glyph glyph-name="A.ss01" unicode="&#xe000;" horiz-adv-x="833" 
d="M1433 -123q-59 -32 -137.5 -54.5t-158.5 -22.5q-145 0 -258 36t-216.5 158.5t-172.5 363.5l-69 234h-141l-152 -525q-3 -9 -3 -17q0 -40 63 -40v-10h-168v10q42 0 66.5 16.5t31.5 40.5l271 933l181 -642q68 -228 161 -349t194.5 -160t223.5 -39q69 0 143.5 21t134.5 52z
M418 602l-68 232l-67 -232h135z" />
    <glyph glyph-name="E.ss01" unicode="&#xe001;" 
d="M179 694v-684h203q27 0 53 33t44 74t23 62h10l-30 -179h-462v10q42 0 60.5 17t18.5 43v860q0 26 -18.5 43t-60.5 17v10h462l30 -179h-10q-5 21 -23 62t-44 74t-53 33h-203v-276q15 7 33 7q36 0 65 -16t70 -47q32 -25 53.5 -37.5t44.5 -12.5q22 0 41 19t19 47h7
q0 -39 -29 -66t-65 -27q-35 0 -64 16t-70 47q-31 25 -53 38t-45 13q-5 0 -7 -1z" />
    <glyph glyph-name="K.ss01" unicode="&#xe002;" horiz-adv-x="795" 
d="M1395 -103q-60 -41 -143.5 -69t-172.5 -28q-152 0 -286 63.5t-268.5 255t-244.5 551.5l-101 -123v-477q0 -26 18.5 -43t60.5 -17v-10h-238v10q42 0 60.5 17t18.5 43v860q0 26 -18.5 43t-60.5 17v10h238v-10q-42 0 -60.5 -17t-18.5 -43v-365l314 381q14 16 14 26
q0 18 -48 18v10h171v-10q-43 0 -75.5 -12.5t-47.5 -31.5l-173 -210q107 -347 238 -553.5t262 -289.5t257 -83q79 0 158 27t140 66z" />
    <glyph glyph-name="L.ss01" unicode="&#xe003;" horiz-adv-x="752" 
d="M732 179l-30 -179h-682v10q42 0 60.5 17t18.5 43v860q0 26 -18.5 43t-60.5 17v10h238v-10q-42 0 -60.5 -17t-18.5 -43v-920h423q27 0 53 33t44 74t23 62h10z" />
    <glyph glyph-name="N.ss01" unicode="&#xe004;" horiz-adv-x="882" 
d="M862 990q-42 0 -60.5 -17t-18.5 -43v-930l-674 850v-780q0 -26 18.5 -43t60.5 -17v-10h-168v10q42 0 60.5 17t18.5 43v860q0 26 -18.5 43t-60.5 17v10h89l664 -856v786q0 26 -18.5 43t-60.5 17v10h168v-10z" />
    <glyph glyph-name="Q.ss01" unicode="&#xe005;" horiz-adv-x="1089" 
d="M1209 -103q-31 -41 -80.5 -69t-110.5 -28q-81 0 -144.5 32.5t-107 77t-96.5 112.5q-74 -22 -148 -22q-136 0 -251.5 67.5t-183 183t-67.5 251.5t67.5 251t183 182.5t251.5 67.5t251.5 -67.5t183 -182.5t67.5 -251q0 -96 -34 -182.5t-96 -154.5t-143 -110q30 -33 67 -91
q35 -52 60.5 -82.5t63 -51t88.5 -20.5q53 0 98 27.5t74 67.5zM662 33q-43 56 -74.5 83.5t-66.5 27.5v10q72 0 123.5 -22t91.5 -62q98 62 152.5 177.5t54.5 254.5q0 134 -50.5 246t-146 178.5t-224.5 66.5q-120 0 -216 -67t-150.5 -179.5t-54.5 -244.5q0 -135 50.5 -247
t146 -178.5t224.5 -66.5q74 0 140 23z" />
    <glyph glyph-name="R.ss01" unicode="&#xe006;" horiz-adv-x="746" 
d="M1296 -103q-60 -41 -143.5 -69t-172.5 -28q-211 0 -389 160t-312 540h-100v-430q0 -26 18.5 -43t60.5 -17v-10h-238v10q42 0 60.5 17t18.5 43v860q0 26 -18.5 43t-60.5 17v10h159h163q69 0 134 -34t105.5 -91.5t40.5 -124.5q0 -64 -37.5 -120t-98.5 -90.5t-127 -38.5
q130 -364 290.5 -527.5t342.5 -163.5q79 0 158 27t140 66zM342 510q62 0 107.5 32t69 86.5t23.5 121.5t-23.5 122t-69 86.5t-107.5 31.5h-163v-480h163z" />
    <glyph glyph-name="E.ss02" unicode="&#xe007;" horiz-adv-x="752" 
d="M732 179l-30 -179h-682v10q42 0 60.5 17t18.5 43v860q0 26 -18.5 43t-60.5 17v10h462l30 -179h-10q-5 21 -23 62t-44 74t-53 33h-203v-285h129q20 0 25 22t5 57h10v-168h-10q0 35 -5 57t-25 22h-129v-685h423q27 0 53 33t44 74t23 62h10z" />
    <glyph glyph-name="K.ss02" unicode="&#xe008;" horiz-adv-x="773" 
d="M1230 32q43 -37 43 -96q0 -39 -25 -70t-68 -48.5t-95 -17.5h-6q-78 0 -151.5 15.5t-144.5 53.5q-45 -33 -84 -51t-74 -18q-61 0 -108.5 28t-74.5 69l6 7q28 -40 74 -68t103 -28q34 0 70.5 17t80.5 48q-142 80 -267 269.5t-229 527.5l-101 -123v-477q0 -26 18.5 -43
t60.5 -17v-10h-238v10q42 0 60.5 17t18.5 43v860q0 26 -18.5 43t-60.5 17v10h238v-10q-42 0 -60.5 -17t-18.5 -43v-365l314 381q14 16 14 26q0 18 -48 18v10h171v-10q-43 0 -75.5 -12.5t-47.5 -31.5l-173 -210q107 -348 223 -550.5t247 -291.5l45 36q58 46 96.5 73.5
t82.5 46.5t87 19q72 0 115 -37zM1176.5 -173q40.5 17 63.5 45.5t23 63.5q0 53 -41 88.5t-107 35.5q-58 0 -117 -35t-145 -103l-42 -33q121 -79 274 -79q51 0 91.5 17z" />
    <glyph glyph-name="Q.ss02" unicode="&#xe009;" horiz-adv-x="1089" 
d="M1163 32q43 -37 43 -96q0 -39 -25 -70t-68 -48.5t-95 -17.5q-76 0 -137 29t-113 79q-67 -53 -116 -80.5t-94 -27.5q-61 0 -108.5 28t-74.5 69l6 7q28 -40 74 -68t103 -28q45 0 92 27t112 79q-30 30 -58 65.5t-34 42.5q-74 -22 -148 -22q-136 0 -251.5 67.5t-183 183
t-67.5 251.5t67.5 251t183 182.5t251.5 67.5t251.5 -67.5t183 -182.5t67.5 -251q0 -96 -34 -182.5t-96 -154.5t-143 -110q27 -30 69 -94q66 51 120 79.5t108 28.5q72 0 115 -37zM662 33q-43 56 -74.5 83.5t-66.5 27.5v10q72 0 123.5 -22t91.5 -62q98 62 152.5 177.5
t54.5 254.5q0 134 -50.5 246t-146 178.5t-224.5 66.5q-120 0 -216 -67t-150.5 -179.5t-54.5 -244.5q0 -135 50.5 -247t146 -178.5t224.5 -66.5q74 0 140 23zM1112 -173q38 17 61 46t23 63q0 53 -41 88.5t-107 35.5q-50 0 -102.5 -28t-120.5 -79q32 -48 57.5 -76.5t62 -47.5
t85.5 -19q44 0 82 17z" />
    <glyph glyph-name="R.ss02" unicode="&#xe010;" horiz-adv-x="796" 
d="M1296 -123q-67 -32 -146.5 -54.5t-149.5 -22.5q-197 0 -369 126t-296 426h-156v-282q0 -26 18.5 -43t60.5 -17v-10h-238v10q42 0 60.5 17t18.5 43v860q0 26 -18.5 43t-60.5 17v10h159h183q89 0 169.5 -44t130 -118.5t49.5 -161.5q0 -78 -40.5 -147t-108 -114.5
t-146.5 -58.5q123 -287 276 -416.5t320 -129.5q59 0 134.5 21t143.5 52zM179 362h183q81 0 142 42t94 114t33 158t-33 158t-94 114t-142 42h-183v-628z" />
    <glyph glyph-name="a" unicode="a" horiz-adv-x="506" 
d="M434 18q15 -8 52 -8v-10h-166v10q27 0 37.5 4t10.5 15q0 9 -3 19l-91 304h-83l-87 -304q-4 -16 -4 -19q0 -11 10.5 -15t38.5 -4v-10h-129v10q37 0 52 8t21 30l160 552l160 -552q6 -22 21 -30zM271 362l-40 133l-37 -133h77z" />
    <glyph glyph-name="aacute" unicode="&#xe1;" horiz-adv-x="506" 
d="M434 18q15 -8 52 -8v-10h-166v10q27 0 37.5 4t10.5 15q0 9 -3 19l-91 304h-83l-87 -304q-4 -16 -4 -19q0 -11 10.5 -15t38.5 -4v-10h-129v10q37 0 52 8t21 30l160 552l160 -552q6 -22 21 -30zM271 362l-40 133l-37 -133h77zM249 637q52 52 115 138l15 20q7 7 16 7
q10 0 18 -8q7 -7 7 -17q0 -11 -7 -18q-6 -6 -26 -19q-41 -30 -71 -53t-57 -50h-10z" />
    <glyph glyph-name="abreve" unicode="&#x103;" horiz-adv-x="506" 
d="M434 18q15 -8 52 -8v-10h-166v10q27 0 37.5 4t10.5 15q0 9 -3 19l-91 304h-83l-87 -304q-4 -16 -4 -19q0 -11 10.5 -15t38.5 -4v-10h-129v10q37 0 52 8t21 30l160 552l160 -552q6 -22 21 -30zM271 362l-40 133l-37 -133h77zM158 740q0 -21 29 -35.5t66 -14.5t66 14.5
t29 35.5h5q0 -17 -12.5 -36t-35 -31.5t-52.5 -12.5t-52.5 12.5t-35 31.5t-12.5 36h5z" />
    <glyph glyph-name="acircumflex" unicode="&#xe2;" horiz-adv-x="506" 
d="M434 18q15 -8 52 -8v-10h-166v10q27 0 37.5 4t10.5 15q0 9 -3 19l-91 304h-83l-87 -304q-4 -16 -4 -19q0 -11 10.5 -15t38.5 -4v-10h-129v10q37 0 52 8t21 30l160 552l160 -552q6 -22 21 -30zM271 362l-40 133l-37 -133h77zM380 663q0 -11 -7 -18t-17 -7q-11 0 -17 6
q-6 5 -32 55q-38 71 -53 95q-24 -37 -64 -112q-17 -34 -21 -38q-6 -7 -15 -7q-11 0 -19 8t-8 18q0 9 8 17q4 4 44 38.5t70 83.5h10q30 -51 70.5 -85t43.5 -37q7 -6 7 -17z" />
    <glyph glyph-name="adieresis" unicode="&#xe4;" horiz-adv-x="506" 
d="M434 18q15 -8 52 -8v-10h-166v10q27 0 37.5 4t10.5 15q0 9 -3 19l-91 304h-83l-87 -304q-4 -16 -4 -19q0 -11 10.5 -15t38.5 -4v-10h-129v10q37 0 52 8t21 30l160 552l160 -552q6 -22 21 -30zM271 362l-40 133l-37 -133h77zM148.5 732q-11.5 12 -11.5 28q0 17 11.5 28.5
t28.5 11.5q16 0 28 -11.5t12 -28.5q0 -16 -12 -28t-28 -12q-17 0 -28.5 12zM298.5 732q-11.5 12 -11.5 28q0 17 11.5 28.5t28.5 11.5q16 0 28 -11.5t12 -28.5q0 -16 -12 -28t-28 -12q-17 0 -28.5 12z" />
    <glyph glyph-name="agrave" unicode="&#xe0;" horiz-adv-x="506" 
d="M434 18q15 -8 52 -8v-10h-166v10q27 0 37.5 4t10.5 15q0 9 -3 19l-91 304h-83l-87 -304q-4 -16 -4 -19q0 -11 10.5 -15t38.5 -4v-10h-129v10q37 0 52 8t21 30l160 552l160 -552q6 -22 21 -30zM271 362l-40 133l-37 -133h77zM188 685.5q-28 21.5 -74 54.5q-20 13 -26 19
q-7 7 -7 17t8 18t18 8q9 0 16 -7q4 -4 17 -22q66 -89 113 -136h-10q-27 27 -55 48.5z" />
    <glyph glyph-name="amacron" unicode="&#x101;" horiz-adv-x="506" 
d="M434 18q15 -8 52 -8v-10h-166v10q27 0 37.5 4t10.5 15q0 9 -3 19l-91 304h-83l-87 -304q-4 -16 -4 -19q0 -11 10.5 -15t38.5 -4v-10h-129v10q37 0 52 8t21 30l160 552l160 -552q6 -22 21 -30zM271 362l-40 133l-37 -133h77zM353 700v-10h-200v10h200z" />
    <glyph glyph-name="aogonek" unicode="&#x105;" horiz-adv-x="506" 
d="M434 18q15 -8 52 -8v-10h-166v10q27 0 37.5 4t10.5 15q0 9 -3 19l-91 304h-83l-87 -304q-4 -16 -4 -19q0 -11 10.5 -15t38.5 -4v-10h-129v10q37 0 52 8t21 30l160 552l160 -552q6 -22 21 -30zM271 362l-40 133l-37 -133h77zM449.5 -177.5q-22.5 -22.5 -54.5 -22.5
q-34 0 -60.5 24.5t-26.5 62.5q0 41 25.5 70t61.5 43h10q-23 -16 -36 -28t-22 -32.5t-9 -52.5q0 -36 15 -56.5t42 -20.5q23 0 45 19t22 48h10q0 -32 -22.5 -54.5z" />
    <glyph glyph-name="aring" unicode="&#xe5;" horiz-adv-x="506" 
d="M434 18q15 -8 52 -8v-10h-166v10q27 0 37.5 4t10.5 15q0 9 -3 19l-91 304h-83l-87 -304q-4 -16 -4 -19q0 -11 10.5 -15t38.5 -4v-10h-129v10q37 0 52 8t21 30l160 552l160 -552q6 -22 21 -30zM271 362l-40 133l-37 -133h77zM209.5 782.5q17.5 17.5 42.5 17.5t42.5 -17.5
t17.5 -42.5t-17.5 -42.5t-42.5 -17.5t-42.5 17.5t-17.5 42.5t17.5 42.5zM216.5 704.5q14.5 -14.5 35.5 -14.5t35.5 14.5t14.5 35.5t-14.5 35.5t-35.5 14.5t-35.5 -14.5t-14.5 -35.5t14.5 -35.5z" />
    <glyph glyph-name="atilde" unicode="&#xe3;" horiz-adv-x="506" 
d="M434 18q15 -8 52 -8v-10h-166v10q27 0 37.5 4t10.5 15q0 9 -3 19l-91 304h-83l-87 -304q-4 -16 -4 -19q0 -11 10.5 -15t38.5 -4v-10h-129v10q37 0 52 8t21 30l160 552l160 -552q6 -22 21 -30zM271 362l-40 133l-37 -133h77zM121.5 721.5q13.5 22.5 34.5 35.5t42 13
q24 0 41.5 -8t39.5 -24q22 -15 36 -21.5t33 -6.5q60 0 60 60h10q0 -29 -13.5 -51.5t-34.5 -35.5t-42 -13q-24 0 -41.5 8t-39.5 24q-22 15 -36 21.5t-33 6.5q-60 0 -60 -60h-10q0 29 13.5 51.5z" />
    <glyph glyph-name="ae" unicode="&#xe6;" horiz-adv-x="526" 
d="M451.5 26.5q22.5 15.5 30.5 34t14 44.5h10l-18 -99v-6h-289v10q36 0 47.5 8.5t11.5 31.5v302h-57l-96 -304q-4 -16 -4 -19q0 -11 10.5 -15t37.5 -4v-10h-129v10q37 0 52 8t22 30l164 512q-2 17 -14.5 23.5t-44.5 6.5v10h289v-5l18 -99h-10q-6 26 -14 44.5t-30.5 34
t-63.5 15.5h-82v-162h61q20 0 25 14.5t5 44.5h10v-129h-10q0 30 -5 44.5t-25 14.5h-61v-406h82q41 0 63.5 15.5zM258 362v170l-54 -170h54z" />
    <glyph glyph-name="b" unicode="b" horiz-adv-x="465" 
d="M349 331q43 -25 69.5 -65.5t26.5 -86.5q0 -48 -28.5 -89t-74 -65.5t-94.5 -24.5h-121h-107v10q36 0 47.5 8.5t11.5 31.5v500q0 23 -11.5 31.5t-47.5 8.5v10h107h80q35 0 69.5 -17t57 -46t22.5 -62q0 -37 -28 -69t-69 -47q47 -3 90 -28zM127 589v-230h80q47 0 74 32.5
t27 83.5t-27 82.5t-74 31.5h-80zM356 58q41 48 41 121q0 47 -18.5 86t-52.5 61.5t-78 22.5h-41h-80v-339h121q67 0 108 48z" />
    <glyph glyph-name="c" unicode="c" horiz-adv-x="517" 
d="M60 451.5q40 68.5 108.5 108.5t150.5 40q57 0 109 -20v-89h-10q0 56 -21 77.5t-78 21.5q-72 0 -129 -38.5t-89.5 -104.5t-32.5 -145q0 -80 30 -146.5t87 -106t134 -39.5q27 0 52 6t54 18q37 14 64 41l8 -8q-32 -27 -69 -42q-61 -25 -109 -25q-81 0 -150 41t-109 110.5
t-40 150.5t40 149.5z" />
    <glyph glyph-name="cacute" unicode="&#x107;" horiz-adv-x="517" 
d="M60 451.5q40 68.5 108.5 108.5t150.5 40q57 0 109 -20v-89h-10q0 56 -21 77.5t-78 21.5q-72 0 -129 -38.5t-89.5 -104.5t-32.5 -145q0 -80 30 -146.5t87 -106t134 -39.5q27 0 52 6t54 18q37 14 64 41l8 -8q-32 -27 -69 -42q-61 -25 -109 -25q-81 0 -150 41t-109 110.5
t-40 150.5t40 149.5zM285 637q52 52 115 138l15 20q7 7 16 7q10 0 18 -8q7 -7 7 -17q0 -11 -7 -18q-6 -6 -26 -19q-41 -30 -71 -53t-57 -50h-10z" />
    <glyph glyph-name="ccaron" unicode="&#x10d;" horiz-adv-x="517" 
d="M60 451.5q40 68.5 108.5 108.5t150.5 40q57 0 109 -20v-89h-10q0 56 -21 77.5t-78 21.5q-72 0 -129 -38.5t-89.5 -104.5t-32.5 -145q0 -80 30 -146.5t87 -106t134 -39.5q27 0 52 6t54 18q37 14 64 41l8 -8q-32 -27 -69 -42q-61 -25 -109 -25q-81 0 -150 41t-109 110.5
t-40 150.5t40 149.5zM415 776q0 -10 -7 -17q-3 -3 -43.5 -37t-70.5 -85h-10q-30 49 -70 83.5t-44 38.5q-8 8 -8 18q0 9 8 17t19 8q9 0 15 -7q4 -4 21 -38q40 -75 64 -112q15 24 53 95q26 50 32 55q6 6 17 6q10 0 17 -7t7 -18z" />
    <glyph glyph-name="ccedilla" unicode="&#xe7;" horiz-adv-x="517" 
d="M60 451.5q40 68.5 108.5 108.5t150.5 40q57 0 109 -20v-89h-10q0 56 -21 77.5t-78 21.5q-72 0 -129 -38.5t-89.5 -104.5t-32.5 -145q0 -80 30 -146.5t87 -106t134 -39.5q27 0 52 6t54 18q37 14 64 41l8 -8q-32 -27 -69 -42q-61 -25 -109 -25q-81 0 -150 41t-109 110.5
t-40 150.5t40 149.5zM353.5 -71.5q23.5 -22.5 23.5 -51.5q0 -31 -27 -54t-60 -23q-32 0 -54.5 22.5t-22.5 54.5h10q0 -29 22 -48t45 -19q27 0 42 19t15 48q0 24 -16.5 46t-46.5 22l6 10l24 45h10l-24 -46q30 -3 53.5 -25.5z" />
    <glyph glyph-name="ccircumflex" unicode="&#x109;" horiz-adv-x="517" 
d="M60 451.5q40 68.5 108.5 108.5t150.5 40q57 0 109 -20v-89h-10q0 56 -21 77.5t-78 21.5q-72 0 -129 -38.5t-89.5 -104.5t-32.5 -145q0 -80 30 -146.5t87 -106t134 -39.5q27 0 52 6t54 18q37 14 64 41l8 -8q-32 -27 -69 -42q-61 -25 -109 -25q-81 0 -150 41t-109 110.5
t-40 150.5t40 149.5zM416 663q0 -11 -7 -18t-17 -7q-11 0 -17 6q-6 5 -32 55q-38 71 -53 95q-24 -37 -64 -112q-17 -34 -21 -38q-6 -7 -15 -7q-11 0 -19 8t-8 18q0 9 8 17q4 4 44 38.5t70 83.5h10q30 -51 70.5 -85t43.5 -37q7 -6 7 -17z" />
    <glyph glyph-name="d" unicode="d" horiz-adv-x="545" 
d="M355.5 559.5q68.5 -40.5 109 -109t40.5 -150.5t-40.5 -150.5t-109 -109t-150.5 -40.5h-78h-107v10q36 0 47.5 8.5t11.5 31.5v500q0 23 -11.5 31.5t-47.5 8.5v10h107h78q82 0 150.5 -40.5zM337.5 49q57.5 39 88.5 105t31 146t-31 146t-88.5 105t-132.5 39h-78v-580h78
q75 0 132.5 39z" />
    <glyph glyph-name="dcaron" unicode="&#x10f;" horiz-adv-x="545" 
d="M355.5 559.5q68.5 -40.5 109 -109t40.5 -150.5t-40.5 -150.5t-109 -109t-150.5 -40.5h-78h-107v10q36 0 47.5 8.5t11.5 31.5v500q0 23 -11.5 31.5t-47.5 8.5v10h107h78q82 0 150.5 -40.5zM337.5 49q57.5 39 88.5 105t31 146t-31 146t-88.5 105t-132.5 39h-78v-580h78
q75 0 132.5 39zM331 776q0 -10 -7 -17q-3 -3 -43.5 -37t-70.5 -85h-10q-30 49 -70 83.5t-44 38.5q-8 8 -8 18q0 9 8 17t19 8q9 0 15 -7q4 -4 21 -38q40 -75 64 -112q15 24 53 95q26 50 32 55q6 6 17 6q10 0 17 -7t7 -18z" />
    <glyph glyph-name="dcroat" unicode="&#x111;" horiz-adv-x="525" 
d="M355.5 559.5q68.5 -40.5 109 -109t40.5 -150.5t-40.5 -150.5t-109 -109t-150.5 -40.5h-78h-107v10q36 0 47.5 8.5t11.5 31.5v245h-81v10h81v245q0 23 -11.5 31.5t-47.5 8.5v10h107h78q82 0 150.5 -40.5zM337.5 49q57.5 39 88.5 105t31 146t-31 146t-88.5 105t-132.5 39
h-78v-285h81v-10h-81v-285h78q75 0 132.5 39z" />
    <glyph glyph-name="e" unicode="e" horiz-adv-x="347" 
d="M272.5 26.5q22.5 15.5 30.5 34t14 44.5h10l-18 -99v-6h-289v10q36 0 47.5 8.5t11.5 31.5v500q0 23 -11.5 31.5t-47.5 8.5v10h289v-5l18 -99h-10q-6 26 -14 44.5t-30.5 34t-63.5 15.5h-82v-162h61q20 0 25 14.5t5 44.5h10v-129h-10q0 30 -5 44.5t-25 14.5h-61v-406h82
q41 0 63.5 15.5z" />
    <glyph glyph-name="eacute" unicode="&#xe9;" horiz-adv-x="347" 
d="M272.5 26.5q22.5 15.5 30.5 34t14 44.5h10l-18 -99v-6h-289v10q36 0 47.5 8.5t11.5 31.5v500q0 23 -11.5 31.5t-47.5 8.5v10h289v-5l18 -99h-10q-6 26 -14 44.5t-30.5 34t-63.5 15.5h-82v-162h61q20 0 25 14.5t5 44.5h10v-129h-10q0 30 -5 44.5t-25 14.5h-61v-406h82
q41 0 63.5 15.5zM175 637q52 52 115 138l15 20q7 7 16 7q10 0 18 -8q7 -7 7 -17q0 -11 -7 -18q-6 -6 -26 -19q-41 -30 -71 -53t-57 -50h-10z" />
    <glyph glyph-name="ebreve" unicode="&#x115;" horiz-adv-x="347" 
d="M272.5 26.5q22.5 15.5 30.5 34t14 44.5h10l-18 -99v-6h-289v10q36 0 47.5 8.5t11.5 31.5v500q0 23 -11.5 31.5t-47.5 8.5v10h289v-5l18 -99h-10q-6 26 -14 44.5t-30.5 34t-63.5 15.5h-82v-162h61q20 0 25 14.5t5 44.5h10v-129h-10q0 30 -5 44.5t-25 14.5h-61v-406h82
q41 0 63.5 15.5zM84 740q0 -21 29 -35.5t66 -14.5t66 14.5t29 35.5h5q0 -17 -12.5 -36t-35 -31.5t-52.5 -12.5t-52.5 12.5t-35 31.5t-12.5 36h5z" />
    <glyph glyph-name="ecaron" unicode="&#x11b;" horiz-adv-x="347" 
d="M272.5 26.5q22.5 15.5 30.5 34t14 44.5h10l-18 -99v-6h-289v10q36 0 47.5 8.5t11.5 31.5v500q0 23 -11.5 31.5t-47.5 8.5v10h289v-5l18 -99h-10q-6 26 -14 44.5t-30.5 34t-63.5 15.5h-82v-162h61q20 0 25 14.5t5 44.5h10v-129h-10q0 30 -5 44.5t-25 14.5h-61v-406h82
q41 0 63.5 15.5zM305 776q0 -10 -7 -17q-3 -3 -43.5 -37t-70.5 -85h-10q-30 49 -70 83.5t-44 38.5q-8 8 -8 18q0 9 8 17t19 8q9 0 15 -7q4 -4 21 -38q40 -75 64 -112q15 24 53 95q26 50 32 55q6 6 17 6q10 0 17 -7t7 -18z" />
    <glyph glyph-name="ecircumflex" unicode="&#xea;" horiz-adv-x="347" 
d="M272.5 26.5q22.5 15.5 30.5 34t14 44.5h10l-18 -99v-6h-289v10q36 0 47.5 8.5t11.5 31.5v500q0 23 -11.5 31.5t-47.5 8.5v10h289v-5l18 -99h-10q-6 26 -14 44.5t-30.5 34t-63.5 15.5h-82v-162h61q20 0 25 14.5t5 44.5h10v-129h-10q0 30 -5 44.5t-25 14.5h-61v-406h82
q41 0 63.5 15.5zM306 663q0 -11 -7 -18t-17 -7q-11 0 -17 6q-6 5 -32 55q-38 71 -53 95q-24 -37 -64 -112q-17 -34 -21 -38q-6 -7 -15 -7q-11 0 -19 8t-8 18q0 9 8 17q4 4 44 38.5t70 83.5h10q30 -51 70.5 -85t43.5 -37q7 -6 7 -17z" />
    <glyph glyph-name="edieresis" unicode="&#xeb;" horiz-adv-x="347" 
d="M272.5 26.5q22.5 15.5 30.5 34t14 44.5h10l-18 -99v-6h-289v10q36 0 47.5 8.5t11.5 31.5v500q0 23 -11.5 31.5t-47.5 8.5v10h289v-5l18 -99h-10q-6 26 -14 44.5t-30.5 34t-63.5 15.5h-82v-162h61q20 0 25 14.5t5 44.5h10v-129h-10q0 30 -5 44.5t-25 14.5h-61v-406h82
q41 0 63.5 15.5zM74.5 732q-11.5 12 -11.5 28q0 17 11.5 28.5t28.5 11.5q16 0 28 -11.5t12 -28.5q0 -16 -12 -28t-28 -12q-17 0 -28.5 12zM224.5 732q-11.5 12 -11.5 28q0 17 11.5 28.5t28.5 11.5q16 0 28 -11.5t12 -28.5q0 -16 -12 -28t-28 -12q-17 0 -28.5 12z" />
    <glyph glyph-name="edotaccent" unicode="&#x117;" horiz-adv-x="347" 
d="M272.5 26.5q22.5 15.5 30.5 34t14 44.5h10l-18 -99v-6h-289v10q36 0 47.5 8.5t11.5 31.5v500q0 23 -11.5 31.5t-47.5 8.5v10h289v-5l18 -99h-10q-6 26 -14 44.5t-30.5 34t-63.5 15.5h-82v-162h61q20 0 25 14.5t5 44.5h10v-129h-10q0 30 -5 44.5t-25 14.5h-61v-406h82
q41 0 63.5 15.5zM150.5 732q-11.5 12 -11.5 28q0 17 11.5 28.5t28.5 11.5q16 0 28 -11.5t12 -28.5q0 -16 -12 -28t-28 -12q-17 0 -28.5 12z" />
    <glyph glyph-name="egrave" unicode="&#xe8;" horiz-adv-x="347" 
d="M272.5 26.5q22.5 15.5 30.5 34t14 44.5h10l-18 -99v-6h-289v10q36 0 47.5 8.5t11.5 31.5v500q0 23 -11.5 31.5t-47.5 8.5v10h289v-5l18 -99h-10q-6 26 -14 44.5t-30.5 34t-63.5 15.5h-82v-162h61q20 0 25 14.5t5 44.5h10v-129h-10q0 30 -5 44.5t-25 14.5h-61v-406h82
q41 0 63.5 15.5zM114 685.5q-28 21.5 -74 54.5q-20 13 -26 19q-7 7 -7 17t8 18t18 8q9 0 16 -7q4 -4 17 -22q66 -89 113 -136h-10q-27 27 -55 48.5z" />
    <glyph glyph-name="emacron" unicode="&#x113;" horiz-adv-x="347" 
d="M272.5 26.5q22.5 15.5 30.5 34t14 44.5h10l-18 -99v-6h-289v10q36 0 47.5 8.5t11.5 31.5v500q0 23 -11.5 31.5t-47.5 8.5v10h289v-5l18 -99h-10q-6 26 -14 44.5t-30.5 34t-63.5 15.5h-82v-162h61q20 0 25 14.5t5 44.5h10v-129h-10q0 30 -5 44.5t-25 14.5h-61v-406h82
q41 0 63.5 15.5zM279 700v-10h-200v10h200z" />
    <glyph glyph-name="eogonek" unicode="&#x119;" horiz-adv-x="347" 
d="M272.5 26.5q22.5 15.5 30.5 34t14 44.5h10l-18 -99v-6h-289v10q36 0 47.5 8.5t11.5 31.5v500q0 23 -11.5 31.5t-47.5 8.5v10h289v-5l18 -99h-10q-6 26 -14 44.5t-30.5 34t-63.5 15.5h-82v-162h61q20 0 25 14.5t5 44.5h10v-129h-10q0 30 -5 44.5t-25 14.5h-61v-406h82
q41 0 63.5 15.5zM291.5 -177.5q-22.5 -22.5 -54.5 -22.5q-34 0 -60.5 24.5t-26.5 62.5q0 41 25.5 70t61.5 43h10q-23 -16 -36 -28t-22 -32.5t-9 -52.5q0 -36 15 -56.5t42 -20.5q23 0 45 19t22 48h10q0 -32 -22.5 -54.5z" />
    <glyph glyph-name="f" unicode="f" horiz-adv-x="347" 
d="M327 496h-10q-6 26 -14 44.5t-30.5 34t-63.5 15.5h-82v-162h61q20 0 25 14.5t5 44.5h10v-129h-10q0 30 -5 44.5t-25 14.5h-61v-367q0 -23 11.5 -31.5t47.5 -8.5v-10h-166v10q36 0 47.5 8.5t11.5 31.5v500q0 23 -11.5 31.5t-47.5 8.5v10h289v-5z" />
    <glyph glyph-name="g" unicode="g" horiz-adv-x="569" 
d="M529 295q-36 0 -47.5 -8.5t-11.5 -31.5v-220l-48 -18q-49 -17 -101 -17q-82 0 -151 40.5t-109.5 109.5t-40.5 151q0 81 40.5 149.5t109.5 109t151 40.5q57 0 109 -20v-70h-10q0 37 -8 52t-30 21q-33 7 -61 7q-72 0 -129.5 -39t-90 -105t-32.5 -145q0 -81 30 -147.5
t87 -105t135 -38.5q55 0 101 20v265h-65q-23 0 -31.5 -11.5t-8.5 -47.5h-10v69h222v-10z" />
    <glyph glyph-name="gbreve" unicode="&#x11f;" horiz-adv-x="569" 
d="M529 295q-36 0 -47.5 -8.5t-11.5 -31.5v-220l-48 -18q-49 -17 -101 -17q-82 0 -151 40.5t-109.5 109.5t-40.5 151q0 81 40.5 149.5t109.5 109t151 40.5q57 0 109 -20v-70h-10q0 37 -8 52t-30 21q-33 7 -61 7q-72 0 -129.5 -39t-90 -105t-32.5 -145q0 -81 30 -147.5
t87 -105t135 -38.5q55 0 101 20v265h-65q-23 0 -31.5 -11.5t-8.5 -47.5h-10v69h222v-10zM196 740q0 -21 29 -35.5t66 -14.5t66 14.5t29 35.5h5q0 -17 -12.5 -36t-35 -31.5t-52.5 -12.5t-52.5 12.5t-35 31.5t-12.5 36h5z" />
    <glyph glyph-name="gcircumflex" unicode="&#x11d;" horiz-adv-x="569" 
d="M529 295q-36 0 -47.5 -8.5t-11.5 -31.5v-220l-48 -18q-49 -17 -101 -17q-82 0 -151 40.5t-109.5 109.5t-40.5 151q0 81 40.5 149.5t109.5 109t151 40.5q57 0 109 -20v-70h-10q0 37 -8 52t-30 21q-33 7 -61 7q-72 0 -129.5 -39t-90 -105t-32.5 -145q0 -81 30 -147.5
t87 -105t135 -38.5q55 0 101 20v265h-65q-23 0 -31.5 -11.5t-8.5 -47.5h-10v69h222v-10zM418 663q0 -11 -7 -18t-17 -7q-11 0 -17 6q-6 5 -32 55q-38 71 -53 95q-24 -37 -64 -112q-17 -34 -21 -38q-6 -7 -15 -7q-11 0 -19 8t-8 18q0 9 8 17q4 4 44 38.5t70 83.5h10
q30 -51 70.5 -85t43.5 -37q7 -6 7 -17z" />
    <glyph glyph-name="h" unicode="h" horiz-adv-x="505" 
d="M437.5 581.5q-11.5 -8.5 -11.5 -31.5v-500q0 -23 11.5 -31.5t47.5 -8.5v-10h-166v10q36 0 47.5 8.5t11.5 31.5v363h-251v-363q0 -23 11.5 -31.5t47.5 -8.5v-10h-166v10q36 0 47.5 8.5t11.5 31.5v500q0 23 -11.5 31.5t-47.5 8.5v10h166v-10q-36 0 -47.5 -8.5t-11.5 -31.5
v-127h251v127q0 23 -11.5 31.5t-47.5 8.5v10h166v-10q-36 0 -47.5 -8.5z" />
    <glyph glyph-name="hcircumflex" unicode="&#x125;" horiz-adv-x="505" 
d="M437.5 581.5q-11.5 -8.5 -11.5 -31.5v-500q0 -23 11.5 -31.5t47.5 -8.5v-10h-166v10q36 0 47.5 8.5t11.5 31.5v363h-251v-363q0 -23 11.5 -31.5t47.5 -8.5v-10h-166v10q36 0 47.5 8.5t11.5 31.5v500q0 23 -11.5 31.5t-47.5 8.5v10h166v-10q-36 0 -47.5 -8.5t-11.5 -31.5
v-127h251v127q0 23 -11.5 31.5t-47.5 8.5v10h166v-10q-36 0 -47.5 -8.5zM380 663q0 -11 -7 -18t-17 -7q-11 0 -17 6q-6 5 -32 55q-38 71 -53 95q-24 -37 -64 -112q-17 -34 -21 -38q-6 -7 -15 -7q-11 0 -19 8t-8 18q0 9 8 17q4 4 44 38.5t70 83.5h10q30 -51 70.5 -85
t43.5 -37q7 -6 7 -17z" />
    <glyph glyph-name="i" unicode="i" horiz-adv-x="206" 
d="M20 10q36 0 47.5 8.5t11.5 31.5v500q0 23 -11.5 31.5t-47.5 8.5v10h166v-10q-36 0 -47.5 -8.5t-11.5 -31.5v-500q0 -23 11.5 -31.5t47.5 -8.5v-10h-166v10z" />
    <glyph glyph-name="dotlessi" unicode="&#x131;" horiz-adv-x="206" 
d="M20 10q36 0 47.5 8.5t11.5 31.5v500q0 23 -11.5 31.5t-47.5 8.5v10h166v-10q-36 0 -47.5 -8.5t-11.5 -31.5v-500q0 -23 11.5 -31.5t47.5 -8.5v-10h-166v10z" />
    <glyph glyph-name="iacute" unicode="&#xed;" horiz-adv-x="206" 
d="M20 10q36 0 47.5 8.5t11.5 31.5v500q0 23 -11.5 31.5t-47.5 8.5v10h166v-10q-36 0 -47.5 -8.5t-11.5 -31.5v-500q0 -23 11.5 -31.5t47.5 -8.5v-10h-166v10zM99 637q52 52 115 138l15 20q7 7 16 7q10 0 18 -8q7 -7 7 -17q0 -11 -7 -18q-6 -6 -26 -19q-41 -30 -71 -53
t-57 -50h-10z" />
    <glyph glyph-name="ibreve" unicode="&#x12d;" horiz-adv-x="206" 
d="M20 10q36 0 47.5 8.5t11.5 31.5v500q0 23 -11.5 31.5t-47.5 8.5v10h166v-10q-36 0 -47.5 -8.5t-11.5 -31.5v-500q0 -23 11.5 -31.5t47.5 -8.5v-10h-166v10zM8 740q0 -21 29 -35.5t66 -14.5t66 14.5t29 35.5h5q0 -17 -12.5 -36t-35 -31.5t-52.5 -12.5t-52.5 12.5t-35 31.5
t-12.5 36h5z" />
    <glyph glyph-name="icircumflex" unicode="&#xee;" horiz-adv-x="206" 
d="M20 10q36 0 47.5 8.5t11.5 31.5v500q0 23 -11.5 31.5t-47.5 8.5v10h166v-10q-36 0 -47.5 -8.5t-11.5 -31.5v-500q0 -23 11.5 -31.5t47.5 -8.5v-10h-166v10zM230 663q0 -11 -7 -18t-17 -7q-11 0 -17 6q-6 5 -32 55q-38 71 -53 95q-24 -37 -64 -112q-17 -34 -21 -38
q-6 -7 -15 -7q-11 0 -19 8t-8 18q0 9 8 17q4 4 44 38.5t70 83.5h10q30 -51 70.5 -85t43.5 -37q7 -6 7 -17z" />
    <glyph glyph-name="idieresis" unicode="&#xef;" horiz-adv-x="206" 
d="M20 10q36 0 47.5 8.5t11.5 31.5v500q0 23 -11.5 31.5t-47.5 8.5v10h166v-10q-36 0 -47.5 -8.5t-11.5 -31.5v-500q0 -23 11.5 -31.5t47.5 -8.5v-10h-166v10zM-1.5 732q-11.5 12 -11.5 28q0 17 11.5 28.5t28.5 11.5q16 0 28 -11.5t12 -28.5q0 -16 -12 -28t-28 -12
q-17 0 -28.5 12zM148.5 732q-11.5 12 -11.5 28q0 17 11.5 28.5t28.5 11.5q16 0 28 -11.5t12 -28.5q0 -16 -12 -28t-28 -12q-17 0 -28.5 12z" />
    <glyph glyph-name="i.loclTRK" horiz-adv-x="206" 
d="M20 10q36 0 47.5 8.5t11.5 31.5v500q0 23 -11.5 31.5t-47.5 8.5v10h166v-10q-36 0 -47.5 -8.5t-11.5 -31.5v-500q0 -23 11.5 -31.5t47.5 -8.5v-10h-166v10zM74.5 732q-11.5 12 -11.5 28q0 17 11.5 28.5t28.5 11.5q16 0 28 -11.5t12 -28.5q0 -16 -12 -28t-28 -12
q-17 0 -28.5 12z" />
    <glyph glyph-name="igrave" unicode="&#xec;" horiz-adv-x="206" 
d="M20 10q36 0 47.5 8.5t11.5 31.5v500q0 23 -11.5 31.5t-47.5 8.5v10h166v-10q-36 0 -47.5 -8.5t-11.5 -31.5v-500q0 -23 11.5 -31.5t47.5 -8.5v-10h-166v10zM38 685.5q-28 21.5 -74 54.5q-20 13 -26 19q-7 7 -7 17t8 18t18 8q9 0 16 -7q4 -4 17 -22q66 -89 113 -136h-10
q-27 27 -55 48.5z" />
    <glyph glyph-name="imacron" unicode="&#x12b;" horiz-adv-x="206" 
d="M20 10q36 0 47.5 8.5t11.5 31.5v500q0 23 -11.5 31.5t-47.5 8.5v10h166v-10q-36 0 -47.5 -8.5t-11.5 -31.5v-500q0 -23 11.5 -31.5t47.5 -8.5v-10h-166v10zM203 700v-10h-200v10h200z" />
    <glyph glyph-name="iogonek" unicode="&#x12f;" horiz-adv-x="206" 
d="M20 10q36 0 47.5 8.5t11.5 31.5v500q0 23 -11.5 31.5t-47.5 8.5v10h166v-10q-36 0 -47.5 -8.5t-11.5 -31.5v-500q0 -23 11.5 -31.5t47.5 -8.5v-10h-166v10zM152.5 -177.5q-22.5 -22.5 -54.5 -22.5q-34 0 -60.5 24.5t-26.5 62.5q0 41 25.5 70t61.5 43h10q-23 -16 -36 -28
t-22 -32.5t-9 -52.5q0 -36 15 -56.5t42 -20.5q23 0 45 19t22 48h10q0 -32 -22.5 -54.5z" />
    <glyph glyph-name="itilde" unicode="&#x129;" horiz-adv-x="206" 
d="M20 10q36 0 47.5 8.5t11.5 31.5v500q0 23 -11.5 31.5t-47.5 8.5v10h166v-10q-36 0 -47.5 -8.5t-11.5 -31.5v-500q0 -23 11.5 -31.5t47.5 -8.5v-10h-166v10zM-28.5 721.5q13.5 22.5 34.5 35.5t42 13q24 0 41.5 -8t39.5 -24q22 -15 36 -21.5t33 -6.5q60 0 60 60h10
q0 -29 -13.5 -51.5t-34.5 -35.5t-42 -13q-24 0 -41.5 8t-39.5 24q-22 15 -36 21.5t-33 6.5q-60 0 -60 -60h-10q0 29 13.5 51.5z" />
    <glyph glyph-name="j" unicode="j" horiz-adv-x="206" 
d="M186 590q-36 0 -47.5 -8.5t-11.5 -31.5v-489q0 -73 -26 -132.5t-75.5 -94t-117.5 -34.5v7q84 0 127 69.5t44 184.5v489q0 23 -11.5 31.5t-47.5 8.5v10h166v-10z" />
    <glyph glyph-name="uni0237" unicode="&#x237;" horiz-adv-x="206" 
d="M186 590q-36 0 -47.5 -8.5t-11.5 -31.5v-489q0 -73 -26 -132.5t-75.5 -94t-117.5 -34.5v7q84 0 127 69.5t44 184.5v489q0 23 -11.5 31.5t-47.5 8.5v10h166v-10z" />
    <glyph glyph-name="jcircumflex" unicode="&#x135;" horiz-adv-x="206" 
d="M186 590q-36 0 -47.5 -8.5t-11.5 -31.5v-489q0 -73 -26 -132.5t-75.5 -94t-117.5 -34.5v7q84 0 127 69.5t44 184.5v489q0 23 -11.5 31.5t-47.5 8.5v10h166v-10zM234 663q0 -11 -7 -18t-17 -7q-11 0 -17 6q-6 5 -32 55q-38 71 -53 95q-24 -37 -64 -112q-17 -34 -21 -38
q-6 -7 -15 -7q-11 0 -19 8t-8 18q0 9 8 17q4 4 44 38.5t70 83.5h10q30 -51 70.5 -85t43.5 -37q7 -6 7 -17z" />
    <glyph glyph-name="k" unicode="k" horiz-adv-x="538" 
d="M462.5 17q17.5 -7 55.5 -7v-10h-166v10q24 0 33.5 3t9.5 10t-8 21l-197 355l-63 -77v-272q0 -23 11.5 -31.5t47.5 -8.5v-10h-166v10q36 0 47.5 8.5t11.5 31.5v500q0 23 -11.5 31.5t-47.5 8.5v10h166v-10q-36 0 -47.5 -8.5t-11.5 -31.5v-211l183 222q13 16 13 21q0 4 -9 6
t-31 2v10h131v-10q-39 0 -58 -6t-33 -23l-108 -131l219 -387q11 -19 28.5 -26z" />
    <glyph glyph-name="l" unicode="l" horiz-adv-x="346" 
d="M326 104l-18 -99v-5h-288v10q36 0 47.5 8.5t11.5 31.5v500q0 23 -11.5 31.5t-47.5 8.5v10h166v-10q-36 0 -47.5 -8.5t-11.5 -31.5v-540h81q41 0 63.5 15.5t30.5 34t14 44.5h10z" />
    <glyph glyph-name="lacute" unicode="&#x13a;" horiz-adv-x="346" 
d="M326 104l-18 -99v-5h-288v10q36 0 47.5 8.5t11.5 31.5v500q0 23 -11.5 31.5t-47.5 8.5v10h166v-10q-36 0 -47.5 -8.5t-11.5 -31.5v-540h81q41 0 63.5 15.5t30.5 34t14 44.5h10zM99 637q52 52 115 138l15 20q7 7 16 7q10 0 18 -8q7 -7 7 -17q0 -11 -7 -18q-6 -6 -26 -19
q-41 -30 -71 -53t-57 -50h-10z" />
    <glyph glyph-name="lcaron" unicode="&#x13e;" horiz-adv-x="346" 
d="M326 104l-18 -99v-5h-288v10q36 0 47.5 8.5t11.5 31.5v500q0 23 -11.5 31.5t-47.5 8.5v10h166v-10q-36 0 -47.5 -8.5t-11.5 -31.5v-540h81q41 0 63.5 15.5t30.5 34t14 44.5h10zM229 776q0 -10 -7 -17q-3 -3 -43.5 -37t-70.5 -85h-10q-30 49 -70 83.5t-44 38.5q-8 8 -8 18
q0 9 8 17t19 8q9 0 15 -7q4 -4 21 -38q40 -75 64 -112q15 24 53 95q26 50 32 55q6 6 17 6q10 0 17 -7t7 -18z" />
    <glyph glyph-name="m" unicode="m" horiz-adv-x="560" 
d="M492.5 581.5q-11.5 -8.5 -11.5 -31.5v-500q0 -23 11.5 -31.5t47.5 -8.5v-10h-167v10q36 0 47.5 8.5t11.5 31.5v526l-170 -414l-173 331v-443q0 -23 11.5 -31.5t47.5 -8.5v-10h-128v10q36 0 47.5 8.5t11.5 31.5v500q0 23 -11.5 31.5t-47.5 8.5v10h69l189 -373l154 373h108
v-10q-36 0 -47.5 -8.5z" />
    <glyph glyph-name="n" unicode="n" horiz-adv-x="422" 
d="M402 590q-36 0 -47.5 -8.5t-11.5 -31.5v-550l-254 492v-442q0 -23 11.5 -31.5t47.5 -8.5v-10h-128v10q36 0 47.5 8.5t11.5 31.5v500q0 23 -11.5 31.5t-47.5 8.5v10h69l244 -483v433q0 23 -11.5 31.5t-47.5 8.5v10h128v-10z" />
    <glyph glyph-name="nacute" unicode="&#x144;" horiz-adv-x="422" 
d="M402 590q-36 0 -47.5 -8.5t-11.5 -31.5v-550l-254 492v-442q0 -23 11.5 -31.5t47.5 -8.5v-10h-128v10q36 0 47.5 8.5t11.5 31.5v500q0 23 -11.5 31.5t-47.5 8.5v10h69l244 -483v433q0 23 -11.5 31.5t-47.5 8.5v10h128v-10zM197 637q52 52 115 138l15 20q7 7 16 7
q10 0 18 -8q7 -7 7 -17q0 -11 -7 -18q-6 -6 -26 -19q-41 -30 -71 -53t-57 -50h-10z" />
    <glyph glyph-name="ncaron" unicode="&#x148;" horiz-adv-x="422" 
d="M402 590q-36 0 -47.5 -8.5t-11.5 -31.5v-550l-254 492v-442q0 -23 11.5 -31.5t47.5 -8.5v-10h-128v10q36 0 47.5 8.5t11.5 31.5v500q0 23 -11.5 31.5t-47.5 8.5v10h69l244 -483v433q0 23 -11.5 31.5t-47.5 8.5v10h128v-10zM327 776q0 -10 -7 -17q-3 -3 -43.5 -37
t-70.5 -85h-10q-30 49 -70 83.5t-44 38.5q-8 8 -8 18q0 9 8 17t19 8q9 0 15 -7q4 -4 21 -38q40 -75 64 -112q15 24 53 95q26 50 32 55q6 6 17 6q10 0 17 -7t7 -18z" />
    <glyph glyph-name="ntilde" unicode="&#xf1;" horiz-adv-x="422" 
d="M402 590q-36 0 -47.5 -8.5t-11.5 -31.5v-550l-254 492v-442q0 -23 11.5 -31.5t47.5 -8.5v-10h-128v10q36 0 47.5 8.5t11.5 31.5v500q0 23 -11.5 31.5t-47.5 8.5v10h69l244 -483v433q0 23 -11.5 31.5t-47.5 8.5v10h128v-10zM69.5 721.5q13.5 22.5 34.5 35.5t42 13
q24 0 41.5 -8t39.5 -24q22 -15 36 -21.5t33 -6.5q60 0 60 60h10q0 -29 -13.5 -51.5t-34.5 -35.5t-42 -13q-24 0 -41.5 8t-39.5 24q-22 15 -36 21.5t-33 6.5q-60 0 -60 -60h-10q0 29 13.5 51.5z" />
    <glyph glyph-name="o" unicode="o" horiz-adv-x="660" 
d="M60.5 450.5q40.5 68.5 109 109t150.5 40.5t150.5 -40.5t109 -109t40.5 -150.5q0 -81 -40.5 -150t-109 -109.5t-150.5 -40.5t-150.5 40.5t-109 109.5t-40.5 150q0 82 40.5 150.5zM99 153.5q30 -66.5 87 -105t134 -38.5t134 38.5t87.5 105t30.5 146.5t-30.5 146.5
t-87.5 105t-134 38.5q-72 0 -129 -39t-89.5 -105.5t-32.5 -145.5q0 -80 30 -146.5z" />
    <glyph glyph-name="oacute" unicode="&#xf3;" horiz-adv-x="660" 
d="M60.5 450.5q40.5 68.5 109 109t150.5 40.5t150.5 -40.5t109 -109t40.5 -150.5q0 -81 -40.5 -150t-109 -109.5t-150.5 -40.5t-150.5 40.5t-109 109.5t-40.5 150q0 82 40.5 150.5zM99 153.5q30 -66.5 87 -105t134 -38.5t134 38.5t87.5 105t30.5 146.5t-30.5 146.5
t-87.5 105t-134 38.5q-72 0 -129 -39t-89.5 -105.5t-32.5 -145.5q0 -80 30 -146.5zM316 637q52 52 115 138l15 20q7 7 16 7q10 0 18 -8q7 -7 7 -17q0 -11 -7 -18q-6 -6 -26 -19q-41 -30 -71 -53t-57 -50h-10z" />
    <glyph glyph-name="obreve" unicode="&#x14f;" horiz-adv-x="660" 
d="M60.5 450.5q40.5 68.5 109 109t150.5 40.5t150.5 -40.5t109 -109t40.5 -150.5q0 -81 -40.5 -150t-109 -109.5t-150.5 -40.5t-150.5 40.5t-109 109.5t-40.5 150q0 82 40.5 150.5zM99 153.5q30 -66.5 87 -105t134 -38.5t134 38.5t87.5 105t30.5 146.5t-30.5 146.5
t-87.5 105t-134 38.5q-72 0 -129 -39t-89.5 -105.5t-32.5 -145.5q0 -80 30 -146.5zM225 740q0 -21 29 -35.5t66 -14.5t66 14.5t29 35.5h5q0 -17 -12.5 -36t-35 -31.5t-52.5 -12.5t-52.5 12.5t-35 31.5t-12.5 36h5z" />
    <glyph glyph-name="ocircumflex" unicode="&#xf4;" horiz-adv-x="660" 
d="M60.5 450.5q40.5 68.5 109 109t150.5 40.5t150.5 -40.5t109 -109t40.5 -150.5q0 -81 -40.5 -150t-109 -109.5t-150.5 -40.5t-150.5 40.5t-109 109.5t-40.5 150q0 82 40.5 150.5zM99 153.5q30 -66.5 87 -105t134 -38.5t134 38.5t87.5 105t30.5 146.5t-30.5 146.5
t-87.5 105t-134 38.5q-72 0 -129 -39t-89.5 -105.5t-32.5 -145.5q0 -80 30 -146.5zM447 663q0 -11 -7 -18t-17 -7q-11 0 -17 6q-6 5 -32 55q-38 71 -53 95q-24 -37 -64 -112q-17 -34 -21 -38q-6 -7 -15 -7q-11 0 -19 8t-8 18q0 9 8 17q4 4 44 38.5t70 83.5h10
q30 -51 70.5 -85t43.5 -37q7 -6 7 -17z" />
    <glyph glyph-name="odieresis" unicode="&#xf6;" horiz-adv-x="660" 
d="M60.5 450.5q40.5 68.5 109 109t150.5 40.5t150.5 -40.5t109 -109t40.5 -150.5q0 -81 -40.5 -150t-109 -109.5t-150.5 -40.5t-150.5 40.5t-109 109.5t-40.5 150q0 82 40.5 150.5zM99 153.5q30 -66.5 87 -105t134 -38.5t134 38.5t87.5 105t30.5 146.5t-30.5 146.5
t-87.5 105t-134 38.5q-72 0 -129 -39t-89.5 -105.5t-32.5 -145.5q0 -80 30 -146.5zM215.5 732q-11.5 12 -11.5 28q0 17 11.5 28.5t28.5 11.5q16 0 28 -11.5t12 -28.5q0 -16 -12 -28t-28 -12q-17 0 -28.5 12zM365.5 732q-11.5 12 -11.5 28q0 17 11.5 28.5t28.5 11.5
q16 0 28 -11.5t12 -28.5q0 -16 -12 -28t-28 -12q-17 0 -28.5 12z" />
    <glyph glyph-name="ograve" unicode="&#xf2;" horiz-adv-x="660" 
d="M60.5 450.5q40.5 68.5 109 109t150.5 40.5t150.5 -40.5t109 -109t40.5 -150.5q0 -81 -40.5 -150t-109 -109.5t-150.5 -40.5t-150.5 40.5t-109 109.5t-40.5 150q0 82 40.5 150.5zM99 153.5q30 -66.5 87 -105t134 -38.5t134 38.5t87.5 105t30.5 146.5t-30.5 146.5
t-87.5 105t-134 38.5q-72 0 -129 -39t-89.5 -105.5t-32.5 -145.5q0 -80 30 -146.5zM255 685.5q-28 21.5 -74 54.5q-20 13 -26 19q-7 7 -7 17t8 18t18 8q9 0 16 -7q4 -4 17 -22q66 -89 113 -136h-10q-27 27 -55 48.5z" />
    <glyph glyph-name="ohungarumlaut" unicode="&#x151;" horiz-adv-x="660" 
d="M60.5 450.5q40.5 68.5 109 109t150.5 40.5t150.5 -40.5t109 -109t40.5 -150.5q0 -81 -40.5 -150t-109 -109.5t-150.5 -40.5t-150.5 40.5t-109 109.5t-40.5 150q0 82 40.5 150.5zM99 153.5q30 -66.5 87 -105t134 -38.5t134 38.5t87.5 105t30.5 146.5t-30.5 146.5
t-87.5 105t-134 38.5q-72 0 -129 -39t-89.5 -105.5t-32.5 -145.5q0 -80 30 -146.5zM215 637q45 45 108 130q16 22 22 28q7 7 16 7q10 0 18 -8q7 -7 7 -18q0 -10 -7 -17q-6 -6 -26 -19q-41 -30 -71 -53t-57 -50h-10zM377 637q52 52 115 138l15 20q7 7 16 7q10 0 18 -8
q7 -7 7 -17q0 -11 -7 -18q-6 -6 -26 -19q-41 -30 -71 -53t-57 -50h-10z" />
    <glyph glyph-name="omacron" unicode="&#x14d;" horiz-adv-x="660" 
d="M60.5 450.5q40.5 68.5 109 109t150.5 40.5t150.5 -40.5t109 -109t40.5 -150.5q0 -81 -40.5 -150t-109 -109.5t-150.5 -40.5t-150.5 40.5t-109 109.5t-40.5 150q0 82 40.5 150.5zM99 153.5q30 -66.5 87 -105t134 -38.5t134 38.5t87.5 105t30.5 146.5t-30.5 146.5
t-87.5 105t-134 38.5q-72 0 -129 -39t-89.5 -105.5t-32.5 -145.5q0 -80 30 -146.5zM420 700v-10h-200v10h200z" />
    <glyph glyph-name="oslash" unicode="&#xf8;" horiz-adv-x="660" 
d="M516 527.5q49 -42.5 76.5 -101.5t27.5 -126q0 -81 -40.5 -150t-109 -109.5t-150.5 -40.5q-41 0 -75 10l-39 -140h-10l39 142q-62 18 -111 60.5t-76.5 101.5t-27.5 126q0 82 40.5 150.5t109 109t150.5 40.5q42 0 76 -10l39 140h10l-40 -142q62 -18 111 -60.5zM114 125.5
q45 -75.5 124 -102.5l155 557q-37 10 -73 10q-72 0 -129 -39t-89.5 -105.5t-32.5 -145.5q0 -99 45 -174.5zM454 48.5q57 38.5 87.5 105t30.5 146.5q0 99 -45 174.5t-125 102.5l-154 -557q31 -10 72 -10q77 0 134 38.5z" />
    <glyph glyph-name="otilde" unicode="&#xf5;" horiz-adv-x="660" 
d="M60.5 450.5q40.5 68.5 109 109t150.5 40.5t150.5 -40.5t109 -109t40.5 -150.5q0 -81 -40.5 -150t-109 -109.5t-150.5 -40.5t-150.5 40.5t-109 109.5t-40.5 150q0 82 40.5 150.5zM99 153.5q30 -66.5 87 -105t134 -38.5t134 38.5t87.5 105t30.5 146.5t-30.5 146.5
t-87.5 105t-134 38.5q-72 0 -129 -39t-89.5 -105.5t-32.5 -145.5q0 -80 30 -146.5zM188.5 721.5q13.5 22.5 34.5 35.5t42 13q24 0 41.5 -8t39.5 -24q22 -15 36 -21.5t33 -6.5q60 0 60 60h10q0 -29 -13.5 -51.5t-34.5 -35.5t-42 -13q-24 0 -41.5 8t-39.5 24q-22 15 -36 21.5
t-33 6.5q-60 0 -60 -60h-10q0 29 13.5 51.5z" />
    <glyph glyph-name="oe" unicode="&#x153;" horiz-adv-x="588" 
d="M513.5 26.5q22.5 15.5 30.5 34t14 44.5h10l-18 -99v-6h-230q-82 0 -150.5 40.5t-109 109.5t-40.5 150q0 82 40.5 150.5t109 109t150.5 40.5h230v-5l18 -99h-10q-6 26 -14 44.5t-30.5 34t-63.5 15.5h-82v-162h61q20 0 25 14.5t5 44.5h10v-129h-10q0 30 -5 44.5t-25 14.5
h-61v-406h82q41 0 63.5 15.5zM320 590q-72 0 -129 -39t-89.5 -105.5t-32.5 -145.5q0 -80 30 -146.5t87 -105t134 -38.5v580z" />
    <glyph glyph-name="p" unicode="p" horiz-adv-x="413" 
d="M305 579.5q39 -20.5 63.5 -55t24.5 -74.5t-24.5 -74.5t-63.5 -55t-80 -20.5h-98v-250q0 -23 11.5 -31.5t47.5 -8.5v-10h-166v10q36 0 47.5 8.5t11.5 31.5v500q0 23 -11.5 31.5t-47.5 8.5v10h107h98q41 0 80 -20.5zM313 349.5q32 39.5 32 100.5q0 62 -32 101t-88 39h-98
v-280h98q56 0 88 39.5z" />
    <glyph glyph-name="thorn" unicode="&#xfe;" horiz-adv-x="413" 
d="M305 429.5q39 -20.5 63.5 -55t24.5 -74.5t-24.5 -74.5t-63.5 -55t-80 -20.5h-98v-100q0 -23 11.5 -31.5t47.5 -8.5v-10h-166v10q36 0 47.5 8.5t11.5 31.5v500q0 23 -11.5 31.5t-47.5 8.5v10h166v-10q-36 0 -47.5 -8.5t-11.5 -31.5v-100h98q41 0 80 -20.5zM313 199.5
q32 39.5 32 100.5q0 62 -32 101t-88 39h-98v-280h98q56 0 88 39.5z" />
    <glyph glyph-name="q" unicode="q" horiz-adv-x="660" 
d="M440 -31q30 -42 51.5 -61t56.5 -19v-7q-52 0 -88 17t-57.5 40.5t-48.5 62.5q-22 -2 -34 -2q-82 0 -150.5 40.5t-109 109.5t-40.5 150q0 82 40.5 150.5t109 109t150.5 40.5t150.5 -40.5t109 -109t40.5 -150.5q0 -66 -27 -125t-75.5 -101t-109.5 -61q12 -14 32 -44zM347 11
q-24 33 -45 50t-52 17v6q51 0 86.5 -16.5t62.5 -45.5q81 27 127 103t46 175q0 80 -30.5 146.5t-87.5 105t-134 38.5q-72 0 -129 -39t-89.5 -105.5t-32.5 -145.5q0 -80 30 -146.5t87 -105t134 -38.5q18 0 27 1z" />
    <glyph glyph-name="r" unicode="r" horiz-adv-x="482" 
d="M406.5 17q17.5 -7 55.5 -7v-10h-166v10q24 0 33.5 2.5t9.5 9.5q0 6 -8 22l-144 256h-60v-250q0 -23 11.5 -31.5t47.5 -8.5v-10h-166v10q36 0 47.5 8.5t11.5 31.5v500q0 23 -11.5 31.5t-47.5 8.5v10h107h98q41 0 79.5 -20.5t63 -55t24.5 -74.5q0 -39 -22.5 -72.5
t-59 -54.5t-75.5 -23l144 -256q10 -20 27.5 -27zM225 309q55 0 87 40t32 101t-32 100.5t-87 39.5h-98v-281h98z" />
    <glyph glyph-name="racute" unicode="&#x155;" horiz-adv-x="482" 
d="M406.5 17q17.5 -7 55.5 -7v-10h-166v10q24 0 33.5 2.5t9.5 9.5q0 6 -8 22l-144 256h-60v-250q0 -23 11.5 -31.5t47.5 -8.5v-10h-166v10q36 0 47.5 8.5t11.5 31.5v500q0 23 -11.5 31.5t-47.5 8.5v10h107h98q41 0 79.5 -20.5t63 -55t24.5 -74.5q0 -39 -22.5 -72.5
t-59 -54.5t-75.5 -23l144 -256q10 -20 27.5 -27zM225 309q55 0 87 40t32 101t-32 100.5t-87 39.5h-98v-281h98zM188 637q52 52 115 138l15 20q7 7 16 7q10 0 18 -8q7 -7 7 -17q0 -11 -7 -18q-6 -6 -26 -19q-41 -30 -71 -53t-57 -50h-10z" />
    <glyph glyph-name="rcaron" unicode="&#x159;" horiz-adv-x="482" 
d="M406.5 17q17.5 -7 55.5 -7v-10h-166v10q24 0 33.5 2.5t9.5 9.5q0 6 -8 22l-144 256h-60v-250q0 -23 11.5 -31.5t47.5 -8.5v-10h-166v10q36 0 47.5 8.5t11.5 31.5v500q0 23 -11.5 31.5t-47.5 8.5v10h107h98q41 0 79.5 -20.5t63 -55t24.5 -74.5q0 -39 -22.5 -72.5
t-59 -54.5t-75.5 -23l144 -256q10 -20 27.5 -27zM225 309q55 0 87 40t32 101t-32 100.5t-87 39.5h-98v-281h98zM318 776q0 -10 -7 -17q-3 -3 -43.5 -37t-70.5 -85h-10q-30 49 -70 83.5t-44 38.5q-8 8 -8 18q0 9 8 17t19 8q9 0 15 -7q4 -4 21 -38q40 -75 64 -112q15 24 53 95
q26 50 32 55q6 6 17 6q10 0 17 -7t7 -18z" />
    <glyph glyph-name="s" unicode="s" horiz-adv-x="415" 
d="M101.5 561q40.5 39 101.5 39q35 0 67 -14t46 -27v41h10v-159h-10q0 33 -14 67.5t-39.5 58t-59.5 23.5q-46 0 -73 -25.5t-27 -77.5q0 -37 19.5 -65t47.5 -47.5t76 -46.5q49 -27 78.5 -47t50 -50t20.5 -70q0 -42 -22 -79t-63 -59.5t-95 -22.5q-53 0 -92 24t-51.5 39.5
t-41.5 55.5v-43h-10v189h10q0 -59 21.5 -118t63.5 -98t100 -39q47 0 78 20t45.5 49t14.5 58q0 36 -19 63t-47 46.5t-74 44.5q-50 27 -80 48t-51 52t-21 72q0 59 40.5 98z" />
    <glyph glyph-name="sacute" unicode="&#x15b;" horiz-adv-x="415" 
d="M101.5 561q40.5 39 101.5 39q35 0 67 -14t46 -27v41h10v-159h-10q0 33 -14 67.5t-39.5 58t-59.5 23.5q-46 0 -73 -25.5t-27 -77.5q0 -37 19.5 -65t47.5 -47.5t76 -46.5q49 -27 78.5 -47t50 -50t20.5 -70q0 -42 -22 -79t-63 -59.5t-95 -22.5q-53 0 -92 24t-51.5 39.5
t-41.5 55.5v-43h-10v189h10q0 -59 21.5 -118t63.5 -98t100 -39q47 0 78 20t45.5 49t14.5 58q0 36 -19 63t-47 46.5t-74 44.5q-50 27 -80 48t-51 52t-21 72q0 59 40.5 98zM199 637q52 52 115 138l15 20q7 7 16 7q10 0 18 -8q7 -7 7 -17q0 -11 -7 -18q-6 -6 -26 -19
q-41 -30 -71 -53t-57 -50h-10z" />
    <glyph glyph-name="scaron" unicode="&#x161;" horiz-adv-x="415" 
d="M101.5 561q40.5 39 101.5 39q35 0 67 -14t46 -27v41h10v-159h-10q0 33 -14 67.5t-39.5 58t-59.5 23.5q-46 0 -73 -25.5t-27 -77.5q0 -37 19.5 -65t47.5 -47.5t76 -46.5q49 -27 78.5 -47t50 -50t20.5 -70q0 -42 -22 -79t-63 -59.5t-95 -22.5q-53 0 -92 24t-51.5 39.5
t-41.5 55.5v-43h-10v189h10q0 -59 21.5 -118t63.5 -98t100 -39q47 0 78 20t45.5 49t14.5 58q0 36 -19 63t-47 46.5t-74 44.5q-50 27 -80 48t-51 52t-21 72q0 59 40.5 98zM329 776q0 -10 -7 -17q-3 -3 -43.5 -37t-70.5 -85h-10q-30 49 -70 83.5t-44 38.5q-8 8 -8 18q0 9 8 17
t19 8q9 0 15 -7q4 -4 21 -38q40 -75 64 -112q15 24 53 95q26 50 32 55q6 6 17 6q10 0 17 -7t7 -18z" />
    <glyph glyph-name="scedilla" unicode="&#x15f;" horiz-adv-x="415" 
d="M101.5 561q40.5 39 101.5 39q35 0 67 -14t46 -27v41h10v-159h-10q0 33 -14 67.5t-39.5 58t-59.5 23.5q-46 0 -73 -25.5t-27 -77.5q0 -37 19.5 -65t47.5 -47.5t76 -46.5q49 -27 78.5 -47t50 -50t20.5 -70q0 -42 -22 -79t-63 -59.5t-95 -22.5q-53 0 -92 24t-51.5 39.5
t-41.5 55.5v-43h-10v189h10q0 -59 21.5 -118t63.5 -98t100 -39q47 0 78 20t45.5 49t14.5 58q0 36 -19 63t-47 46.5t-74 44.5q-50 27 -80 48t-51 52t-21 72q0 59 40.5 98zM249.5 -71.5q23.5 -22.5 23.5 -51.5q0 -31 -27 -54t-60 -23q-32 0 -54.5 22.5t-22.5 54.5h10
q0 -29 22 -48t45 -19q27 0 42 19t15 48q0 24 -16.5 46t-46.5 22l6 10l24 45h10l-24 -46q30 -3 53.5 -25.5z" />
    <glyph glyph-name="scircumflex" unicode="&#x15d;" horiz-adv-x="415" 
d="M101.5 561q40.5 39 101.5 39q35 0 67 -14t46 -27v41h10v-159h-10q0 33 -14 67.5t-39.5 58t-59.5 23.5q-46 0 -73 -25.5t-27 -77.5q0 -37 19.5 -65t47.5 -47.5t76 -46.5q49 -27 78.5 -47t50 -50t20.5 -70q0 -42 -22 -79t-63 -59.5t-95 -22.5q-53 0 -92 24t-51.5 39.5
t-41.5 55.5v-43h-10v189h10q0 -59 21.5 -118t63.5 -98t100 -39q47 0 78 20t45.5 49t14.5 58q0 36 -19 63t-47 46.5t-74 44.5q-50 27 -80 48t-51 52t-21 72q0 59 40.5 98zM330 663q0 -11 -7 -18t-17 -7q-11 0 -17 6q-6 5 -32 55q-38 71 -53 95q-24 -37 -64 -112
q-17 -34 -21 -38q-6 -7 -15 -7q-11 0 -19 8t-8 18q0 9 8 17q4 4 44 38.5t70 83.5h10q30 -51 70.5 -85t43.5 -37q7 -6 7 -17z" />
    <glyph glyph-name="germandbls" unicode="&#xdf;" horiz-adv-x="457" 
d="M20 10q36 0 47.5 8.5t11.5 31.5v384q0 49 24.5 86.5t61 58.5t70.5 21q51 0 90.5 -30t39.5 -73q0 -29 -14 -47.5t-43 -43.5q-28 -23 -42 -41.5t-14 -46.5q0 -26 20.5 -45.5t62.5 -44.5q49 -29 75.5 -54.5t26.5 -64.5q0 -51 -33.5 -80t-79.5 -29q-16 0 -29 5t-30 14
q-16 9 -21 9t-7.5 -6.5t-2.5 -21.5h-10v83h10q14 -32 37.5 -54.5t52.5 -22.5q40 0 57 28.5t17 68.5q0 39 -21.5 64.5t-64.5 58.5q-35 26 -52.5 46t-17.5 46q0 28 12 45.5t37 39.5q24 22 36.5 40.5t12.5 47.5q0 45 -30.5 72t-74.5 27q-28 0 -53 -18t-40 -48.5t-15 -65.5v-408
q0 -23 11.5 -31.5t47.5 -8.5v-10h-166v10z" />
    <glyph glyph-name="t" unicode="t" horiz-adv-x="487" 
d="M467 496h-10q-6 26 -14 44.5t-30.5 34t-63.5 15.5h-82v-540q0 -23 11.5 -31.5t47.5 -8.5v-10h-165v10q36 0 47.5 8.5t11.5 31.5v540h-82q-41 0 -63.5 -15.5t-30.5 -34t-14 -44.5h-10l18 99v5h411v-5z" />
    <glyph glyph-name="tcaron" unicode="&#x165;" horiz-adv-x="487" 
d="M467 496h-10q-6 26 -14 44.5t-30.5 34t-63.5 15.5h-82v-540q0 -23 11.5 -31.5t47.5 -8.5v-10h-165v10q36 0 47.5 8.5t11.5 31.5v540h-82q-41 0 -63.5 -15.5t-30.5 -34t-14 -44.5h-10l18 99v5h411v-5zM370 776q0 -10 -7 -17q-3 -3 -43.5 -37t-70.5 -85h-10
q-30 49 -70 83.5t-44 38.5q-8 8 -8 18q0 9 8 17t19 8q9 0 15 -7q4 -4 21 -38q40 -75 64 -112q15 24 53 95q26 50 32 55q6 6 17 6q10 0 17 -7t7 -18z" />
    <glyph glyph-name="u" unicode="u" horiz-adv-x="605" 
d="M67.5 581.5q-11.5 8.5 -47.5 8.5v10h164v-10q-36 0 -47.5 -8.5t-11.5 -31.5l2 -317q0 -77 30 -127.5t74.5 -73t92.5 -22.5q49 0 92.5 22.5t71.5 72.5t28 128v317q0 23 -11.5 31.5t-47.5 8.5v10h128v-10q-36 0 -47.5 -8.5t-11.5 -31.5v-317q0 -79 -27.5 -131.5t-73 -77
t-101.5 -24.5q-58 0 -114.5 25t-93.5 77.5t-37 130.5v317q0 23 -11.5 31.5z" />
    <glyph glyph-name="uacute" unicode="&#xfa;" horiz-adv-x="605" 
d="M67.5 581.5q-11.5 8.5 -47.5 8.5v10h164v-10q-36 0 -47.5 -8.5t-11.5 -31.5l2 -317q0 -77 30 -127.5t74.5 -73t92.5 -22.5q49 0 92.5 22.5t71.5 72.5t28 128v317q0 23 -11.5 31.5t-47.5 8.5v10h128v-10q-36 0 -47.5 -8.5t-11.5 -31.5v-317q0 -79 -27.5 -131.5t-73 -77
t-101.5 -24.5q-58 0 -114.5 25t-93.5 77.5t-37 130.5v317q0 23 -11.5 31.5zM320 667q52 52 115 138l15 20q7 7 16 7q10 0 18 -8q7 -7 7 -17q0 -11 -7 -18q-6 -6 -26 -19q-41 -30 -71 -53t-57 -50h-10z" />
    <glyph glyph-name="ubreve" unicode="&#x16d;" horiz-adv-x="605" 
d="M67.5 581.5q-11.5 8.5 -47.5 8.5v10h164v-10q-36 0 -47.5 -8.5t-11.5 -31.5l2 -317q0 -77 30 -127.5t74.5 -73t92.5 -22.5q49 0 92.5 22.5t71.5 72.5t28 128v317q0 23 -11.5 31.5t-47.5 8.5v10h128v-10q-36 0 -47.5 -8.5t-11.5 -31.5v-317q0 -79 -27.5 -131.5t-73 -77
t-101.5 -24.5q-58 0 -114.5 25t-93.5 77.5t-37 130.5v317q0 23 -11.5 31.5zM229 770q0 -21 29 -35.5t66 -14.5t66 14.5t29 35.5h5q0 -17 -12.5 -36t-35 -31.5t-52.5 -12.5t-52.5 12.5t-35 31.5t-12.5 36h5z" />
    <glyph glyph-name="ucircumflex" unicode="&#xfb;" horiz-adv-x="605" 
d="M67.5 581.5q-11.5 8.5 -47.5 8.5v10h164v-10q-36 0 -47.5 -8.5t-11.5 -31.5l2 -317q0 -77 30 -127.5t74.5 -73t92.5 -22.5q49 0 92.5 22.5t71.5 72.5t28 128v317q0 23 -11.5 31.5t-47.5 8.5v10h128v-10q-36 0 -47.5 -8.5t-11.5 -31.5v-317q0 -79 -27.5 -131.5t-73 -77
t-101.5 -24.5q-58 0 -114.5 25t-93.5 77.5t-37 130.5v317q0 23 -11.5 31.5zM451 693q0 -11 -7 -18t-17 -7q-11 0 -17 6q-6 5 -32 55q-38 71 -53 95q-24 -37 -64 -112q-17 -34 -21 -38q-6 -7 -15 -7q-11 0 -19 8t-8 18q0 9 8 17q4 4 44 38.5t70 83.5h10q30 -51 70.5 -85
t43.5 -37q7 -6 7 -17z" />
    <glyph glyph-name="udieresis" unicode="&#xfc;" horiz-adv-x="605" 
d="M67.5 581.5q-11.5 8.5 -47.5 8.5v10h164v-10q-36 0 -47.5 -8.5t-11.5 -31.5l2 -317q0 -77 30 -127.5t74.5 -73t92.5 -22.5q49 0 92.5 22.5t71.5 72.5t28 128v317q0 23 -11.5 31.5t-47.5 8.5v10h128v-10q-36 0 -47.5 -8.5t-11.5 -31.5v-317q0 -79 -27.5 -131.5t-73 -77
t-101.5 -24.5q-58 0 -114.5 25t-93.5 77.5t-37 130.5v317q0 23 -11.5 31.5zM216.5 762q-11.5 12 -11.5 28q0 17 11.5 28.5t28.5 11.5q16 0 28 -11.5t12 -28.5q0 -16 -12 -28t-28 -12q-17 0 -28.5 12zM366.5 762q-11.5 12 -11.5 28q0 17 11.5 28.5t28.5 11.5q16 0 28 -11.5
t12 -28.5q0 -16 -12 -28t-28 -12q-17 0 -28.5 12z" />
    <glyph glyph-name="ugrave" unicode="&#xf9;" horiz-adv-x="605" 
d="M67.5 581.5q-11.5 8.5 -47.5 8.5v10h164v-10q-36 0 -47.5 -8.5t-11.5 -31.5l2 -317q0 -77 30 -127.5t74.5 -73t92.5 -22.5q49 0 92.5 22.5t71.5 72.5t28 128v317q0 23 -11.5 31.5t-47.5 8.5v10h128v-10q-36 0 -47.5 -8.5t-11.5 -31.5v-317q0 -79 -27.5 -131.5t-73 -77
t-101.5 -24.5q-58 0 -114.5 25t-93.5 77.5t-37 130.5v317q0 23 -11.5 31.5zM259 715.5q-28 21.5 -74 54.5q-20 13 -26 19q-7 7 -7 17t8 18t18 8q9 0 16 -7q4 -4 17 -22q66 -89 113 -136h-10q-27 27 -55 48.5z" />
    <glyph glyph-name="uhungarumlaut" unicode="&#x171;" horiz-adv-x="605" 
d="M67.5 581.5q-11.5 8.5 -47.5 8.5v10h164v-10q-36 0 -47.5 -8.5t-11.5 -31.5l2 -317q0 -77 30 -127.5t74.5 -73t92.5 -22.5q49 0 92.5 22.5t71.5 72.5t28 128v317q0 23 -11.5 31.5t-47.5 8.5v10h128v-10q-36 0 -47.5 -8.5t-11.5 -31.5v-317q0 -79 -27.5 -131.5t-73 -77
t-101.5 -24.5q-58 0 -114.5 25t-93.5 77.5t-37 130.5v317q0 23 -11.5 31.5zM238 667q45 45 108 130q16 22 22 28q7 7 16 7q10 0 18 -8q7 -7 7 -18q0 -10 -7 -17q-6 -6 -26 -19q-41 -30 -71 -53t-57 -50h-10zM400 667q52 52 115 138l15 20q7 7 16 7q10 0 18 -8q7 -7 7 -17
q0 -11 -7 -18q-6 -6 -26 -19q-41 -30 -71 -53t-57 -50h-10z" />
    <glyph glyph-name="umacron" unicode="&#x16b;" horiz-adv-x="605" 
d="M67.5 581.5q-11.5 8.5 -47.5 8.5v10h164v-10q-36 0 -47.5 -8.5t-11.5 -31.5l2 -317q0 -77 30 -127.5t74.5 -73t92.5 -22.5q49 0 92.5 22.5t71.5 72.5t28 128v317q0 23 -11.5 31.5t-47.5 8.5v10h128v-10q-36 0 -47.5 -8.5t-11.5 -31.5v-317q0 -79 -27.5 -131.5t-73 -77
t-101.5 -24.5q-58 0 -114.5 25t-93.5 77.5t-37 130.5v317q0 23 -11.5 31.5zM424 730v-10h-200v10h200z" />
    <glyph glyph-name="uogonek" unicode="&#x173;" horiz-adv-x="605" 
d="M67.5 581.5q-11.5 8.5 -47.5 8.5v10h164v-10q-36 0 -47.5 -8.5t-11.5 -31.5l2 -317q0 -77 30 -127.5t74.5 -73t92.5 -22.5q49 0 92.5 22.5t71.5 72.5t28 128v317q0 23 -11.5 31.5t-47.5 8.5v10h128v-10q-36 0 -47.5 -8.5t-11.5 -31.5v-317q0 -79 -27.5 -131.5t-73 -77
t-101.5 -24.5q-58 0 -114.5 25t-93.5 77.5t-37 130.5v317q0 23 -11.5 31.5zM373.5 -177.5q-22.5 -22.5 -54.5 -22.5q-34 0 -60.5 24.5t-26.5 62.5q0 41 25.5 70t61.5 43h10q-23 -16 -36 -28t-22 -32.5t-9 -52.5q0 -36 15 -56.5t42 -20.5q23 0 45 19t22 48h10
q0 -32 -22.5 -54.5z" />
    <glyph glyph-name="utilde" unicode="&#x169;" horiz-adv-x="605" 
d="M67.5 581.5q-11.5 8.5 -47.5 8.5v10h164v-10q-36 0 -47.5 -8.5t-11.5 -31.5l2 -317q0 -77 30 -127.5t74.5 -73t92.5 -22.5q49 0 92.5 22.5t71.5 72.5t28 128v317q0 23 -11.5 31.5t-47.5 8.5v10h128v-10q-36 0 -47.5 -8.5t-11.5 -31.5v-317q0 -79 -27.5 -131.5t-73 -77
t-101.5 -24.5q-58 0 -114.5 25t-93.5 77.5t-37 130.5v317q0 23 -11.5 31.5zM192.5 751.5q13.5 22.5 34.5 35.5t42 13q24 0 41.5 -8t39.5 -24q22 -15 36 -21.5t33 -6.5q60 0 60 60h10q0 -29 -13.5 -51.5t-34.5 -35.5t-42 -13q-24 0 -41.5 8t-39.5 24q-22 15 -36 21.5t-33 6.5
q-60 0 -60 -60h-10q0 29 13.5 51.5z" />
    <glyph glyph-name="v" unicode="v" horiz-adv-x="506" 
d="M486 590q-37 0 -52 -8t-21 -30l-160 -552l-160 552q-6 22 -21 30t-52 8v10h166v-10q-27 0 -37.5 -4t-10.5 -15q0 -8 3 -19l134 -448l128 448q3 11 3 19q0 11 -10.5 15t-37.5 4v10h128v-10z" />
    <glyph glyph-name="w" unicode="w" horiz-adv-x="707" 
d="M687 590q-37 0 -52 -8t-21 -30l-160 -552l-96 332l-105 -332l-160 552q-6 22 -21 30t-52 8v10h166v-10q-27 0 -37.5 -4t-10.5 -15q0 -8 3 -19l135 -452l77 248l-59 204q-6 22 -21 30t-52 8v10h280v-10q-37 0 -52 -8t-22 -30l-44 -138l93 -310l128 448q3 11 3 19
q0 11 -10.5 15t-37.5 4v10h128v-10zM379 430l39 126q2 10 2 13q0 11 -9.5 16t-32.5 5q-19 0 -28.5 -5.5t-9.5 -18.5q0 -4 2 -14z" />
    <glyph glyph-name="wacute" unicode="&#x1e83;" horiz-adv-x="707" 
d="M687 590q-37 0 -52 -8t-21 -30l-160 -552l-96 332l-105 -332l-160 552q-6 22 -21 30t-52 8v10h166v-10q-27 0 -37.5 -4t-10.5 -15q0 -8 3 -19l135 -452l77 248l-59 204q-6 22 -21 30t-52 8v10h280v-10q-37 0 -52 -8t-22 -30l-44 -138l93 -310l128 448q3 11 3 19
q0 11 -10.5 15t-37.5 4v10h128v-10zM379 430l39 126q2 10 2 13q0 11 -9.5 16t-32.5 5q-19 0 -28.5 -5.5t-9.5 -18.5q0 -4 2 -14zM374 687q52 52 115 138l15 20q7 7 16 7q10 0 18 -8q7 -7 7 -17q0 -11 -7 -18q-6 -6 -26 -19q-41 -30 -71 -53t-57 -50h-10z" />
    <glyph glyph-name="wcircumflex" unicode="&#x175;" horiz-adv-x="707" 
d="M687 590q-37 0 -52 -8t-21 -30l-160 -552l-96 332l-105 -332l-160 552q-6 22 -21 30t-52 8v10h166v-10q-27 0 -37.5 -4t-10.5 -15q0 -8 3 -19l135 -452l77 248l-59 204q-6 22 -21 30t-52 8v10h280v-10q-37 0 -52 -8t-22 -30l-44 -138l93 -310l128 448q3 11 3 19
q0 11 -10.5 15t-37.5 4v10h128v-10zM379 430l39 126q2 10 2 13q0 11 -9.5 16t-32.5 5q-19 0 -28.5 -5.5t-9.5 -18.5q0 -4 2 -14zM479 713q0 -11 -7 -18t-17 -7q-11 0 -17 6q-6 5 -32 55q-38 71 -53 95q-24 -37 -64 -112q-17 -34 -21 -38q-6 -7 -15 -7q-11 0 -19 8t-8 18
q0 9 8 17q4 4 44 38.5t70 83.5h10q30 -51 70.5 -85t43.5 -37q7 -6 7 -17z" />
    <glyph glyph-name="wdieresis" unicode="&#x1e85;" horiz-adv-x="707" 
d="M687 590q-37 0 -52 -8t-21 -30l-160 -552l-96 332l-105 -332l-160 552q-6 22 -21 30t-52 8v10h166v-10q-27 0 -37.5 -4t-10.5 -15q0 -8 3 -19l135 -452l77 248l-59 204q-6 22 -21 30t-52 8v10h280v-10q-37 0 -52 -8t-22 -30l-44 -138l93 -310l128 448q3 11 3 19
q0 11 -10.5 15t-37.5 4v10h128v-10zM379 430l39 126q2 10 2 13q0 11 -9.5 16t-32.5 5q-19 0 -28.5 -5.5t-9.5 -18.5q0 -4 2 -14zM250.5 782q-11.5 12 -11.5 28q0 17 11.5 28.5t28.5 11.5q16 0 28 -11.5t12 -28.5q0 -16 -12 -28t-28 -12q-17 0 -28.5 12zM400.5 782
q-11.5 12 -11.5 28q0 17 11.5 28.5t28.5 11.5q16 0 28 -11.5t12 -28.5q0 -16 -12 -28t-28 -12q-17 0 -28.5 12z" />
    <glyph glyph-name="wgrave" unicode="&#x1e81;" horiz-adv-x="707" 
d="M687 590q-37 0 -52 -8t-21 -30l-160 -552l-96 332l-105 -332l-160 552q-6 22 -21 30t-52 8v10h166v-10q-27 0 -37.5 -4t-10.5 -15q0 -8 3 -19l135 -452l77 248l-59 204q-6 22 -21 30t-52 8v10h280v-10q-37 0 -52 -8t-22 -30l-44 -138l93 -310l128 448q3 11 3 19
q0 11 -10.5 15t-37.5 4v10h128v-10zM379 430l39 126q2 10 2 13q0 11 -9.5 16t-32.5 5q-19 0 -28.5 -5.5t-9.5 -18.5q0 -4 2 -14zM313 735.5q-28 21.5 -74 54.5q-20 13 -26 19q-7 7 -7 17t8 18t18 8q9 0 16 -7q4 -4 17 -22q66 -89 113 -136h-10q-27 27 -55 48.5z" />
    <glyph glyph-name="x" unicode="x" horiz-adv-x="538" 
d="M462.5 17q17.5 -7 55.5 -7v-10h-166v10q24 0 33.5 2.5t9.5 9.5q0 6 -8 22l-130 235l-127 -235q-8 -14 -8 -21t9.5 -10t33.5 -3v-10h-128v10q37 0 54.5 7t28.5 27l132 244l-149 268q-10 20 -27.5 27t-55.5 7v10h159v-10q-24 0 -33.5 -2.5t-9.5 -9.5q0 -4 9 -22l128 -227
l123 227q8 14 8 21t-9.5 10t-33.5 3v10h129v-10q-37 0 -54.5 -7t-28.5 -27l-128 -237l155 -275q11 -20 28.5 -27z" />
    <glyph glyph-name="y" unicode="y" horiz-adv-x="505" 
d="M485 590q-37 0 -54 -7.5t-27 -27.5l-128 -254l1 -1v-250q0 -23 11.5 -31.5t47.5 -8.5v-10h-166v10q36 0 47.5 8.5t11.5 31.5v250l-128 255q-10 20 -27 27.5t-54 7.5v10h159v-10q-25 0 -34.5 -3t-9.5 -10t8 -21l128 -244l122 243q7 16 7 21q0 8 -10 11t-34 3v10h129v-10z
" />
    <glyph glyph-name="yacute" unicode="&#xfd;" horiz-adv-x="505" 
d="M485 590q-37 0 -54 -7.5t-27 -27.5l-128 -254l1 -1v-250q0 -23 11.5 -31.5t47.5 -8.5v-10h-166v10q36 0 47.5 8.5t11.5 31.5v250l-128 255q-10 20 -27 27.5t-54 7.5v10h159v-10q-25 0 -34.5 -3t-9.5 -10t8 -21l128 -244l122 243q7 16 7 21q0 8 -10 11t-34 3v10h129v-10z
M259 637q52 52 115 138l15 20q7 7 16 7q10 0 18 -8q7 -7 7 -17q0 -11 -7 -18q-6 -6 -26 -19q-41 -30 -71 -53t-57 -50h-10z" />
    <glyph glyph-name="ycircumflex" unicode="&#x177;" horiz-adv-x="505" 
d="M485 590q-37 0 -54 -7.5t-27 -27.5l-128 -254l1 -1v-250q0 -23 11.5 -31.5t47.5 -8.5v-10h-166v10q36 0 47.5 8.5t11.5 31.5v250l-128 255q-10 20 -27 27.5t-54 7.5v10h159v-10q-25 0 -34.5 -3t-9.5 -10t8 -21l128 -244l122 243q7 16 7 21q0 8 -10 11t-34 3v10h129v-10z
M390 663q0 -11 -7 -18t-17 -7q-11 0 -17 6q-6 5 -32 55q-38 71 -53 95q-24 -37 -64 -112q-17 -34 -21 -38q-6 -7 -15 -7q-11 0 -19 8t-8 18q0 9 8 17q4 4 44 38.5t70 83.5h10q30 -51 70.5 -85t43.5 -37q7 -6 7 -17z" />
    <glyph glyph-name="ydieresis" unicode="&#xff;" horiz-adv-x="505" 
d="M485 590q-37 0 -54 -7.5t-27 -27.5l-128 -254l1 -1v-250q0 -23 11.5 -31.5t47.5 -8.5v-10h-166v10q36 0 47.5 8.5t11.5 31.5v250l-128 255q-10 20 -27 27.5t-54 7.5v10h159v-10q-25 0 -34.5 -3t-9.5 -10t8 -21l128 -244l122 243q7 16 7 21q0 8 -10 11t-34 3v10h129v-10z
M158.5 732q-11.5 12 -11.5 28q0 17 11.5 28.5t28.5 11.5q16 0 28 -11.5t12 -28.5q0 -16 -12 -28t-28 -12q-17 0 -28.5 12zM308.5 732q-11.5 12 -11.5 28q0 17 11.5 28.5t28.5 11.5q16 0 28 -11.5t12 -28.5q0 -16 -12 -28t-28 -12q-17 0 -28.5 12z" />
    <glyph glyph-name="ygrave" unicode="&#x1ef3;" horiz-adv-x="505" 
d="M485 590q-37 0 -54 -7.5t-27 -27.5l-128 -254l1 -1v-250q0 -23 11.5 -31.5t47.5 -8.5v-10h-166v10q36 0 47.5 8.5t11.5 31.5v250l-128 255q-10 20 -27 27.5t-54 7.5v10h159v-10q-25 0 -34.5 -3t-9.5 -10t8 -21l128 -244l122 243q7 16 7 21q0 8 -10 11t-34 3v10h129v-10z
M198 685.5q-28 21.5 -74 54.5q-20 13 -26 19q-7 7 -7 17t8 18t18 8q9 0 16 -7q4 -4 17 -22q66 -89 113 -136h-10q-27 27 -55 48.5z" />
    <glyph glyph-name="z" unicode="z" horiz-adv-x="301" 
d="M281 104l-18 -99l-1 -5h-241l201 590h-84q-41 0 -63.5 -15.5t-30.5 -34t-14 -44.5h-10l18 99l1 5h234l-201 -590h91q41 0 63.5 15.5t30.5 34t14 44.5h10z" />
    <glyph glyph-name="zcaron" unicode="&#x17e;" horiz-adv-x="301" 
d="M281 104l-18 -99l-1 -5h-241l201 590h-84q-41 0 -63.5 -15.5t-30.5 -34t-14 -44.5h-10l18 99l1 5h234l-201 -590h91q41 0 63.5 15.5t30.5 34t14 44.5h10zM289 776q0 -10 -7 -17q-3 -3 -43.5 -37t-70.5 -85h-10q-30 49 -70 83.5t-44 38.5q-8 8 -8 18q0 9 8 17t19 8
q9 0 15 -7q4 -4 21 -38q40 -75 64 -112q15 24 53 95q26 50 32 55q6 6 17 6q10 0 17 -7t7 -18z" />
    <glyph glyph-name="zdotaccent" unicode="&#x17c;" horiz-adv-x="301" 
d="M281 104l-18 -99l-1 -5h-241l201 590h-84q-41 0 -63.5 -15.5t-30.5 -34t-14 -44.5h-10l18 99l1 5h234l-201 -590h91q41 0 63.5 15.5t30.5 34t14 44.5h10zM134.5 732q-11.5 12 -11.5 28q0 17 11.5 28.5t28.5 11.5q16 0 28 -11.5t12 -28.5q0 -16 -12 -28t-28 -12
q-17 0 -28.5 12z" />
    <glyph glyph-name="A_M" unicode="&#xe011;" horiz-adv-x="1600" 
d="M1519.5 973q-18.5 -17 -18.5 -43v-860q0 -26 18.5 -43t60.5 -17v-10h-238v10q42 0 60.5 17t18.5 43v903l-287 -703l-288 550v-750q0 -26 18.5 -43t60.5 -17v-10h-406v10q62 0 62 39q0 9 -3 18l-156 525h-142l-152 -525q-3 -9 -3 -17q0 -40 63 -40v-10h-168v10
q42 0 66.5 16.5t31.5 40.5l270 933l271 -933q7 -24 31.5 -40.5t66.5 -16.5t60.5 17t18.5 43v860q0 26 -18.5 43t-60.5 17v10h89l318 -627l-3 -11l260 638h159v-10q-42 0 -60.5 -17zM419 602l-69 231l-67 -231h136z" />
    <glyph glyph-name="C_A" unicode="&#xe012;" horiz-adv-x="1246" 
d="M811 115l7 -7q-50 -40 -117 -67q-104 -41 -182 -41q-135 0 -250 68.5t-182 185t-67 251.5t67 249.5t181.5 181.5t250.5 67q95 0 182 -34v-148h-10q0 68 -16.5 105t-53 52t-102.5 15q-119 0 -215 -66.5t-150 -178.5t-54 -243q0 -134 50.5 -247t145.5 -180.5t223 -67.5
q47 0 91 10.5t91 29.5q69 27 110 65zM1159.5 26.5q24.5 -16.5 66.5 -16.5v-10h-238v10q62 0 62 39q0 9 -3 18l-156 525h-143l-99 -341q-3 -9 -3 -17q0 -40 63 -40v-10h-168v10q42 0 66.5 16.5t32.5 40.5l217 749l271 -933q7 -24 31.5 -40.5zM888 602l-70 232l-67 -232h137z
" />
    <glyph glyph-name="C_C" unicode="&#xe013;" horiz-adv-x="838" 
d="M87 754.5q67 114.5 181.5 181.5t250.5 67q95 0 182 -34v-148h-10q0 68 -16.5 105t-53 52t-102.5 15q-119 0 -215 -66.5t-150 -178.5t-54 -243q0 -134 50.5 -247t145.5 -180.5t223 -67.5q47 0 91 10.5t91 29.5q69 27 110 65l7 -7q-50 -40 -117 -67q-104 -41 -182 -41
q-135 0 -250 68.5t-182 185t-67 251.5t67 249.5zM292 603.5q40 68.5 108.5 108.5t150.5 40q57 0 109 -20v-89h-10q0 57 -21.5 80t-77.5 23q-72 0 -129 -39.5t-89.5 -106.5t-32.5 -146q0 -80 30 -146.5t87 -106t134 -39.5q52 0 108 22q40 15 65 40l5 -5q-32 -27 -69 -42
q-61 -25 -109 -25q-81 0 -150 41t-109 110.5t-40 150.5t40 149.5z" />
    <glyph glyph-name="C_O" unicode="&#xe014;" horiz-adv-x="912" 
d="M87 754.5q67 114.5 181.5 181.5t250.5 67q95 0 182 -34v-148h-10q0 68 -16.5 105t-53 52t-102.5 15q-119 0 -215 -66.5t-150 -178.5t-54 -243q0 -134 50.5 -247t145.5 -180.5t223 -67.5q47 0 91 10.5t91 29.5q69 27 110 65l7 -7q-50 -40 -117 -67q-104 -41 -182 -41
q-135 0 -250 68.5t-182 185t-67 251.5t67 249.5zM292.5 605.5q40.5 68.5 109 109t150.5 40.5t150.5 -40.5t109 -109t40.5 -150.5q0 -81 -40.5 -150t-109 -109.5t-150.5 -40.5t-150.5 40.5t-109 109.5t-40.5 150q0 82 40.5 150.5zM331 308.5q30 -66.5 87 -105t134 -38.5
t134 38.5t87.5 105t30.5 146.5t-30.5 146.5t-87.5 105t-134 38.5q-72 0 -129.5 -39t-89.5 -105.5t-32 -145.5q0 -80 30 -146.5z" />
    <glyph glyph-name="D_C" unicode="&#xe015;" horiz-adv-x="1140" 
d="M1120 108q-50 -40 -117 -67q-104 -41 -182 -41q-137 0 -255 71q-118 -71 -257 -71h-130h-159v10q42 0 60.5 17t18.5 43v860q0 26 -18.5 43t-60.5 17v10h159h130q137 0 253 -69q119 72 259 72q95 0 182 -34v-148h-10q0 68 -16.5 105t-53 52t-102.5 15q-129 0 -232 -79
q101 -68 160.5 -177.5t59.5 -236.5t-59.5 -236.5t-161.5 -178.5q101 -75 233 -75q47 0 91 10.5t91 29.5q69 27 110 65zM543 86q-102 70 -161.5 181t-59.5 238q0 126 58.5 234.5t158.5 176.5q-99 74 -230 74h-130v-980h130q133 0 234 76zM686 723.5q-43 103.5 -120 171.5
q-77 -68 -120.5 -170.5t-43.5 -219.5q0 -122 42 -228t120 -174q79 68 122 172t43 225q0 120 -43 223.5z" />
    <glyph glyph-name="D_O" unicode="&#xe016;" horiz-adv-x="1346" 
d="M1075.5 935.5q115.5 -67.5 183 -182.5t67.5 -251t-67.5 -251.5t-183 -183t-251.5 -67.5q-138 0 -258 71q-118 -71 -257 -71h-130h-159v10q42 0 60.5 17t18.5 43v860q0 26 -18.5 43t-60.5 17v10h159h130q138 0 255 -70q121 73 260 73q136 0 251.5 -67.5zM1048.5 76.5
q95.5 66.5 146.5 178.5t51 247q0 134 -51 246t-146.5 178.5t-224.5 66.5q-130 0 -234 -79q101 -69 160 -178t59 -236t-59.5 -236.5t-161.5 -178.5q102 -75 236 -75q129 0 224.5 66.5zM543 86q-102 70 -161.5 179.5t-59.5 236.5q0 126 59 235t160 178q-102 75 -232 75h-130
v-980h130q133 0 234 76zM686.5 723.5q-42.5 103.5 -119.5 170.5q-78 -68 -121.5 -171t-43.5 -221q0 -122 42 -226.5t120 -172.5q79 67 122 171.5t43 225.5q0 120 -42.5 223.5z" />
    <glyph glyph-name="E_A" unicode="&#xe017;" horiz-adv-x="1096" 
d="M655 43q26 33 44 74t23 62h10l-30 -179h-682v10q42 0 60.5 17t18.5 43v860q0 26 -18.5 43t-60.5 17v10h462l30 -179h-10q-5 21 -23 62t-44 74t-53 33h-203v-285h129q20 0 25 22t5 57h10v-168h-10q0 35 -5 57t-25 22h-129v-685h423q27 0 53 33zM1009.5 26.5
q24.5 -16.5 66.5 -16.5v-10h-238v10q62 0 62 39q0 9 -3 18l-156 525h-143l-99 -341q-3 -9 -3 -17q0 -40 63 -40v-10h-168v10q42 0 66.5 16.5t32.5 40.5l217 749l271 -933q7 -24 31.5 -40.5zM738 602l-70 232l-67 -232h137z" />
    <glyph glyph-name="E_T" unicode="&#xe018;" horiz-adv-x="1118" 
d="M1098 821h-10q-5 21 -23 62t-44 74t-53 33h-203v-920q0 -26 18.5 -43t60.5 -17v-10h-238v10q42 0 60.5 17t18.5 43v920h-506v-285h129q20 0 25 22t5 57h10v-168h-10q0 35 -5 57t-25 22h-129v-685h203q27 0 53 33t44 74t23 62h10l-30 -179h-462v10q42 0 60.5 17t18.5 43
v860q0 26 -18.5 43t-60.5 17v10h1048z" />
    <glyph glyph-name="E_V" unicode="&#xe019;" horiz-adv-x="1240" 
d="M1220 990q-42 0 -66.5 -16.5t-31.5 -40.5l-271 -933l-271 933q-7 24 -31.5 40.5t-66.5 16.5h-303v-285h129q20 0 25 22t5 57h10v-168h-10q0 35 -5 57t-25 22h-129v-685h203q27 0 53 33t44 74t23 62h10l-30 -179h-462v10q42 0 60.5 17t18.5 43v860q0 26 -18.5 43t-60.5 17
v10h703v-10q-62 0 -62 -39q0 -9 3 -18l224 -773l224 773q3 9 3 17q0 40 -63 40v10h168v-10z" />
    <glyph glyph-name="E_W" unicode="&#xe020;" horiz-adv-x="1572" 
d="M1552 990q-42 0 -66.5 -16.5t-31.5 -40.5l-271 -933l-166 572l-166 -572l-271 933q-7 24 -31.5 40.5t-66.5 16.5h-303v-285h129q20 0 25 22t5 57h10v-168h-10q0 35 -5 57t-25 22h-129v-685h203q27 0 53 33t44 74t23 62h10l-30 -179h-462v10q42 0 60.5 17t18.5 43v860
q0 26 -18.5 43t-60.5 17v10h700v-10q-62 0 -62 -39q0 -9 3 -18l229 -767l122 422l-100 345q-7 24 -31.5 40.5t-66.5 16.5v10h406v-10q-42 0 -66.5 -16.5t-31.5 -40.5l-64 -219l164 -548l222 767q3 9 3 17q0 40 -63 40v10h168v-10zM1053 731l59 202q3 9 3 17q0 40 -63 40
q-62 0 -62 -39q0 -9 3 -18z" />
    <glyph glyph-name="F_F" unicode="&#xe021;" horiz-adv-x="915" 
d="M895 821h-10q-5 21 -23 62t-44 74t-53 33h-203v-285h129q20 0 25 22t5 57h10v-168h-10q0 35 -5 57t-25 22h-129v-625q0 -26 18.5 -43t60.5 -17v-10h-238v10q42 0 60.5 17t18.5 43v920h-303v-285h129q20 0 25 22t5 57h10v-168h-10q0 35 -5 57t-25 22h-129v-625
q0 -26 18.5 -43t60.5 -17v-10h-238v10q42 0 60.5 17t18.5 43v860q0 26 -18.5 43t-60.5 17v10h845z" />
    <glyph glyph-name="F_T" unicode="&#xe022;" horiz-adv-x="915" 
d="M895 821h-10q-5 21 -23 62t-44 74t-53 33h-203v-920q0 -26 18.5 -43t60.5 -17v-10h-238v10q42 0 60.5 17t18.5 43v920h-303v-285h129q20 0 25 22t5 57h10v-168h-10q0 35 -5 57t-25 22h-129v-625q0 -26 18.5 -43t60.5 -17v-10h-238v10q42 0 60.5 17t18.5 43v860
q0 26 -18.5 43t-60.5 17v10h845z" />
    <glyph glyph-name="K_A" unicode="&#xe023;" horiz-adv-x="1569" 
d="M1482.5 26.5q24.5 -16.5 66.5 -16.5v-10h-238v10q62 0 62 39q0 9 -3 18l-156 525h-142l-152 -525q-3 -9 -3 -17q0 -40 63 -40v-10h-418v10q53 0 53 26q0 9 -9 25l-337 595l-90 -109v-477q0 -26 18.5 -43t60.5 -17v-10h-238v10q42 0 60.5 17t18.5 43v860q0 26 -18.5 43
t-60.5 17v10h238v-10q-42 0 -60.5 -17t-18.5 -43v-367l315 383q13 15 13 26q0 18 -48 18v10h171v-10q-43 0 -75.5 -12.5t-47.5 -31.5l-184 -224l375 -661q12 -21 42 -36t72 -15t66.5 16.5t31.5 40.5l270 933l271 -933q7 -24 31.5 -40.5zM1211 602l-69 231l-67 -231h136z" />
    <glyph glyph-name="L_A" unicode="&#xe024;" horiz-adv-x="946" 
d="M435 43q26 33 44 74t23 62h10l-30 -179h-462v10q42 0 60.5 17t18.5 43v860q0 26 -18.5 43t-60.5 17v10h238v-10q-42 0 -60.5 -17t-18.5 -43v-920h203q27 0 53 33zM859.5 26.5q24.5 -16.5 66.5 -16.5v-10h-238v10q62 0 62 39q0 9 -3 18l-156 525h-143l-99 -341
q-3 -9 -3 -17q0 -40 63 -40v-10h-168v10q42 0 66.5 16.5t32.5 40.5l217 749l271 -933q7 -24 31.5 -40.5zM588 602l-70 232l-67 -232h137z" />
    <glyph glyph-name="L_E" unicode="&#xe025;" horiz-adv-x="647" 
d="M435 43q26 33 44 74t23 62h10l-30 -179h-462v10q42 0 60.5 17t18.5 43v860q0 26 -18.5 43t-60.5 17v10h238v-10q-42 0 -60.5 -17t-18.5 -43v-920h203q27 0 53 33zM572.5 376.5q22.5 15.5 30.5 34t14 44.5h10l-18 -99v-6h-289v10q36 0 47.5 8.5t11.5 31.5v550
q0 23 -11.5 31.5t-47.5 8.5v10h289v-5l18 -99h-10q-6 26 -14 44.5t-30.5 34t-63.5 15.5h-82v-162h61q20 0 25 14.5t5 44.5h10v-129h-10q0 30 -5 44.5t-25 14.5h-61v-456h82q41 0 63.5 15.5z" />
    <glyph glyph-name="L_I" unicode="&#xe026;" 
d="M512 179l-30 -179h-462v10q42 0 60.5 17t18.5 43v860q0 26 -18.5 43t-60.5 17v10h238v-10q-42 0 -60.5 -17t-18.5 -43v-920h203q27 0 53 33t44 74t23 62h10zM320 360q36 0 47.5 8.5t11.5 31.5v550q0 23 -11.5 31.5t-47.5 8.5v10h166v-10q-36 0 -47.5 -8.5t-11.5 -31.5
v-550q0 -23 11.5 -31.5t47.5 -8.5v-10h-166v10z" />
    <glyph glyph-name="L_L" unicode="&#xe027;" horiz-adv-x="626" 
d="M435 43q26 33 44 74t23 62h10l-30 -179h-462v10q42 0 60.5 17t18.5 43v860q0 26 -18.5 43t-60.5 17v10h238v-10q-42 0 -60.5 -17t-18.5 -43v-920h203q27 0 53 33zM626 454l-18 -99v-5h-288v10q36 0 47.5 8.5t11.5 31.5v550q0 23 -11.5 31.5t-47.5 8.5v10h166v-10
q-36 0 -47.5 -8.5t-11.5 -31.5v-590h81q41 0 63.5 15.5t30.5 34t14 44.5h10z" />
    <glyph glyph-name="L_U" unicode="&#xe028;" horiz-adv-x="905" 
d="M435 43q26 33 44 74t23 62h10l-30 -179h-462v10q42 0 60.5 17t18.5 43v860q0 26 -18.5 43t-60.5 17v10h238v-10q-42 0 -60.5 -17t-18.5 -43v-920h203q27 0 53 33zM885 990q-36 0 -47.5 -8.5t-11.5 -31.5v-367q0 -79 -27.5 -131.5t-73 -77t-101.5 -24.5q-58 0 -114.5 25
t-93.5 77.5t-37 130.5v367q0 23 -11.5 31.5t-47.5 8.5v10h164v-10q-36 0 -47.5 -8.5t-11.5 -31.5l2 -367q0 -77 30 -127.5t74.5 -73t92.5 -22.5q49 0 92.5 22.5t71.5 72.5t28 128v367q0 23 -11.5 31.5t-47.5 8.5v10h128v-10z" />
    <glyph glyph-name="N_N" unicode="&#xe029;" horiz-adv-x="1056" 
d="M1036 990q-42 0 -60.5 -17t-18.5 -43v-930l-424 820v-820l-424 820v-750q0 -26 18.5 -43t60.5 -17v-10h-168v10q42 0 60.5 17t18.5 43v860q0 26 -18.5 43t-60.5 17v10h89l414 -819v749q0 26 -18.5 43t-60.5 17v10h89l414 -819v749q0 26 -18.5 43t-60.5 17v10h168v-10z
" />
    <glyph glyph-name="O_C" unicode="&#xe030;" horiz-adv-x="1353" 
d="M1333 108q-50 -40 -117 -67q-104 -41 -182 -41q-137 0 -254 71q-120 -71 -258 -71q-136 0 -251.5 67.5t-183 183t-67.5 251.5t67.5 251t183 182.5t251.5 67.5q137 0 256 -70q119 70 256 70q95 0 182 -34v-148h-10q0 68 -16.5 105t-53 52t-102.5 15q-128 0 -230 -77
q102 -69 161 -178t59 -236q0 -128 -60 -238t-163 -179q101 -75 233 -75q47 0 91 10.5t91 29.5q69 27 110 65zM758 85q-102 69 -162.5 180.5t-60.5 239.5t60 237t162 177q-101 74 -235 74q-120 0 -216.5 -67t-151 -179.5t-54.5 -244.5q0 -135 51 -247t146.5 -178.5
t224.5 -66.5q134 0 236 75zM902 727.5q-42 104.5 -119 171.5q-79 -68 -123.5 -171.5t-44.5 -222.5q0 -123 43 -229.5t122 -173.5q79 67 121.5 172t42.5 228q0 121 -42 225.5z" />
    <glyph glyph-name="O_G" unicode="&#xe031;" horiz-adv-x="1427" 
d="M1367 487q-42 0 -60.5 -17t-18.5 -43v-367l-66 -26q-88 -34 -184 -34q-69 0 -135 18.5t-123 52.5q-57 -34 -123 -52.5t-135 -18.5q-136 0 -251.5 67.5t-183 183t-67.5 251.5t67.5 251t183 182.5t251.5 67.5q69 0 135 -18.5t123 -52.5q57 34 123 52.5t135 18.5
q96 0 184 -34v-97h-10q0 42 -16.5 68.5t-39.5 34.5q-61 18 -118 18q-129 0 -232 -78q101 -70 159.5 -178.5t58.5 -234.5q0 -128 -60 -238t-163 -179q102 -75 237 -75q92 0 170 36v381q0 26 -18.5 43t-60.5 17v10h238v-10zM759 85q-103 69 -163 179t-60 238t60 237.5
t163 178.5q-102 75 -237 75q-120 0 -216.5 -67t-151 -179.5t-54.5 -244.5q0 -135 51 -247t146.5 -178.5t224.5 -66.5q135 0 237 75zM902.5 726q-41.5 104 -117.5 171q-79 -68 -123.5 -172t-44.5 -223q0 -123 42.5 -228t120.5 -172q79 67 121.5 172t42.5 228q0 120 -41.5 224
z" />
    <glyph glyph-name="O_O" unicode="&#xe032;" horiz-adv-x="1561" 
d="M1293.5 935.5q115.5 -67.5 183 -182.5t67.5 -251t-67.5 -251.5t-183 -183t-251.5 -67.5q-139 0 -260 73q-121 -73 -260 -73q-136 0 -251.5 67.5t-183 183t-67.5 251.5t67.5 251t183 182.5t251.5 67.5q139 0 260 -73q121 73 260 73q136 0 251.5 -67.5zM761 86
q-102 70 -161.5 179.5t-59.5 236.5t59.5 236t161.5 179q-103 76 -239 76q-120 0 -216.5 -67t-151 -179.5t-54.5 -244.5q0 -135 51 -247t146.5 -178.5t224.5 -66.5q136 0 239 76zM1266.5 76.5q95.5 66.5 146.5 178.5t51 247q0 134 -51 246t-146.5 178.5t-224.5 66.5
q-130 0 -234 -79q100 -69 158 -177.5t58 -234.5q0 -127 -59.5 -236.5t-161.5 -179.5q103 -76 239 -76q129 0 224.5 66.5zM903 725q-41 103 -117 171q-78 -69 -122 -172.5t-44 -221.5q0 -122 42 -226.5t120 -171.5q78 67 120 171.5t42 226.5q0 120 -41 223z" />
    <glyph glyph-name="O_Q" unicode="&#xe033;" horiz-adv-x="1604" 
d="M1218.5 -24.5q17.5 -24.5 23.5 -32.5q32 -46 54 -72t53 -43.5t71 -17.5v-10q-88 0 -148 29t-96 68.5t-81 105.5q-27 -3 -53 -3q-139 0 -260 73q-121 -73 -260 -73q-136 0 -251.5 67.5t-183 183t-67.5 251.5t67.5 251t183 182.5t251.5 67.5q139 0 260 -73q121 73 260 73
q136 0 251.5 -67.5t183 -182.5t67.5 -251q0 -112 -46.5 -211t-128 -170t-185.5 -101q17 -20 34.5 -44.5zM761 86q-102 70 -161.5 179.5t-59.5 236.5t59.5 236t161.5 179q-103 76 -239 76q-120 0 -216.5 -67t-151 -179.5t-54.5 -244.5q0 -135 51 -247t146.5 -178.5
t224.5 -66.5q136 0 239 76zM1088 12q-41 58 -77 86.5t-89 28.5v10q87 0 146.5 -28t105.5 -78q90 30 155.5 99.5t99.5 165.5t34 206q0 134 -50.5 246t-146 178.5t-224.5 66.5q-130 0 -234 -80q100 -69 158 -177t58 -234q0 -128 -59 -237t-161 -179q101 -76 238 -76q16 0 46 2
zM903 724.5q-41 103.5 -117 171.5q-77 -69 -121 -172.5t-44 -221.5q0 -122 42 -226.5t119 -171.5q78 67 120 171.5t42 226.5q0 119 -41 222.5z" />
    <glyph glyph-name="R_A" unicode="&#xe034;" horiz-adv-x="1316" 
d="M1157 -155.5q76 24.5 132 60.5l7 -8q-60 -41 -143.5 -69t-172.5 -28q-211 0 -389 160t-312 540h-100v-430q0 -26 18.5 -43t60.5 -17v-10h-238v10q42 0 60.5 17t18.5 43v860q0 26 -18.5 43t-60.5 17v10h159h163q69 0 134 -34t105.5 -91.5t40.5 -124.5q0 -64 -37.5 -120
t-98.5 -90.5t-127 -38.5q129 -360 293.5 -520.5t349.5 -160.5q79 0 155 24.5zM1229.5 26.5q24.5 -16.5 66.5 -16.5v-10h-238v10q62 0 62 39q0 9 -3 18l-156 525h-143l-99 -341q-3 -9 -3 -17q0 -40 63 -40v-10h-168v10q42 0 66.5 16.5t32.5 40.5l217 749l271 -933
q7 -24 31.5 -40.5zM342 510q62 0 107.5 32t69 86.5t23.5 121.5t-23.5 122t-69 86.5t-107.5 31.5h-163v-480h163zM958 602l-70 232l-67 -232h137z" />
    <glyph glyph-name="T_T" unicode="&#xe035;" horiz-adv-x="1346" 
d="M1326 821h-10q-5 21 -23 62t-44 74t-53 33h-203v-920q0 -26 18.5 -43t60.5 -17v-10h-238v10q42 0 60.5 17t18.5 43v920h-480v-920q0 -26 18.5 -43t60.5 -17v-10h-238v10q42 0 60.5 17t18.5 43v920h-203q-27 0 -53 -33t-44 -74t-23 -62h-10l30 179h1246z" />
    <glyph glyph-name="T_Y" unicode="&#xe036;" horiz-adv-x="1493" 
d="M1473 990q-42 0 -70.5 -15.5t-39.5 -37.5l-219 -436l1 -1v-430q0 -26 18.5 -43t60.5 -17v-10h-238v10q42 0 60.5 17t18.5 43v430l-219 437q-11 22 -39.5 37.5t-70.5 15.5h-303v-920q0 -26 18.5 -43t60.5 -17v-10h-238v10q42 0 60.5 17t18.5 43v920h-203q-27 0 -53 -33
t-44 -74t-23 -62h-10l30 179h913v-10q-54 0 -54 -28q0 -8 7 -24l223 -427l214 426q7 14 7 24q0 29 -55 29v10h168v-10z" />
    <glyph glyph-name="V_A" unicode="&#xe037;" horiz-adv-x="1168" 
d="M1080 26q26 -16 68 -16v-10h-238v10q60 0 60 36q0 6 -4 20l-188 526h-188l-201 -592l-271 933q-7 24 -31.5 40.5t-66.5 16.5v10h238v-10q-62 0 -62 -39q0 -9 3 -18l232 -778l265 779q4 14 4 20q0 36 -60 36v10h89l317 -934q8 -24 34 -40zM775 602l-93 260l-88 -260h181z
" />
    <glyph glyph-name="a_m" unicode="&#xe038;" horiz-adv-x="1026" 
d="M958.5 581.5q-11.5 -8.5 -11.5 -31.5v-500q0 -23 11.5 -31.5t47.5 -8.5v-10h-167v10q36 0 47.5 8.5t11.5 31.5v526l-170 -414l-173 331v-443q0 -23 11.5 -31.5t47.5 -8.5v-10h-294v10q27 0 37.5 4t10.5 15q0 9 -3 19l-91 304h-83l-87 -304q-4 -16 -4 -19q0 -11 10.5 -15
t38.5 -4v-10h-129v10q37 0 52 8t21 30l160 552l160 -552q6 -22 21 -30t52 -8q36 0 47.5 8.5t11.5 31.5v500q0 23 -11.5 31.5t-47.5 8.5v10h69l189 -373l154 373h108v-10q-36 0 -47.5 -8.5zM271 362l-40 133l-37 -133h77z" />
    <glyph glyph-name="c_a" unicode="&#xe039;" horiz-adv-x="792" 
d="M492 72l5 -5q-32 -27 -69 -42q-61 -25 -109 -25q-81 0 -150 41t-109 110.5t-40 150.5t40 149.5t108.5 108.5t150.5 40q57 0 109 -20v-89h-10q0 56 -21 77.5t-78 21.5q-72 0 -129 -38.5t-89.5 -104.5t-32.5 -145q0 -80 30 -147.5t87 -107.5t134 -40q27 0 52.5 6.5
t55.5 18.5q40 15 65 40zM720 18q15 -8 52 -8v-10h-166v10q27 0 37.5 4t10.5 15q0 9 -3 19l-91 304h-84l-56 -194q-3 -10 -3 -19q0 -11 10.5 -15t37.5 -4v-10h-129v10q37 0 52 8t21 30l130 442l160 -552q6 -22 21 -30zM557 362l-40 133l-38 -133h78z" />
    <glyph glyph-name="c_c" unicode="&#xe040;" horiz-adv-x="517" 
d="M60 451.5q40 68.5 108.5 108.5t150.5 40q57 0 109 -20v-89h-10q0 56 -21 77.5t-78 21.5q-72 0 -129 -38.5t-89.5 -104.5t-32.5 -145q0 -80 30 -147.5t87 -107.5t134 -40q27 0 52.5 6.5t55.5 18.5q40 15 65 40l5 -5q-32 -27 -69 -42q-61 -25 -109 -25q-81 0 -150 41
t-109 110.5t-40 150.5t40 149.5zM183 361q24 41 65 65t90 24q35 0 65 -12v-53h-6q0 33 -12.5 44t-46.5 11q-43 0 -77.5 -22.5t-54 -60.5t-19.5 -85q0 -74 41 -123t110 -49q31 0 58 10q28 11 43 28l5 -5q-20 -19 -42 -28q-33 -15 -64 -15q-49 0 -90 24.5t-65 66.5t-24 91
q0 48 24 89z" />
    <glyph glyph-name="c_o" unicode="&#xe041;" horiz-adv-x="558" 
d="M60 451.5q40 68.5 108.5 108.5t150.5 40q57 0 109 -20v-89h-10q0 56 -21 77.5t-78 21.5q-72 0 -129 -38.5t-89.5 -104.5t-32.5 -145q0 -80 30 -147.5t87 -107.5t134 -40q27 0 52.5 6.5t55.5 18.5q40 15 65 40l5 -5q-32 -27 -69 -42q-61 -25 -109 -25q-81 0 -150 41
t-109 110.5t-40 150.5t40 149.5zM183 362q24 41 65 65.5t90 24.5t90.5 -24.5t65.5 -65.5t24 -90t-24 -90t-65.5 -65t-90.5 -24t-90 24t-65 65t-24 90t24 90zM206 187.5q18 -38.5 52 -61.5t80 -23t80.5 23t52.5 61.5t18 84.5t-18 85t-52.5 62t-80.5 23q-43 0 -77 -23.5
t-53.5 -62.5t-19.5 -84q0 -46 18 -84.5z" />
    <glyph glyph-name="d_c" unicode="&#xe042;" horiz-adv-x="749" 
d="M729 67q-32 -27 -69 -42q-61 -25 -109 -25q-93 0 -172 55q-79 -55 -174 -55h-78h-107v10q36 0 47.5 8.5t11.5 31.5v500q0 23 -11.5 31.5t-47.5 8.5v10h107h78q96 0 173 -55q77 55 173 55q57 0 109 -20v-89h-10q0 56 -21 77.5t-78 21.5q-88 0 -155 -59q51 -41 80 -101.5
t29 -129.5q0 -70 -29.5 -131t-82.5 -103q66 -58 158 -58q47 0 108 24q40 15 65 40zM362 68q-51 43 -80.5 104t-29.5 130t29 129t80 102q-65 57 -156 57h-78v-580h78q91 0 157 58zM437 419.5q-20 55.5 -58 95.5q-37 -40 -58 -95.5t-21 -117.5q0 -65 20 -122t57 -98
q38 41 59 97.5t21 120.5t-20 119.5z" />
    <glyph glyph-name="d_o" unicode="&#xe043;" horiz-adv-x="891" 
d="M701.5 559.5q68.5 -40.5 109 -109t40.5 -150.5q0 -81 -40.5 -150t-109 -109.5t-150.5 -40.5q-96 0 -173 55q-77 -55 -173 -55h-78h-107v10q36 0 47.5 8.5t11.5 31.5v500q0 23 -11.5 31.5t-47.5 8.5v10h107h78q96 0 173 -55q77 55 173 55q82 0 150.5 -40.5zM362 67
q-52 43 -81.5 103.5t-29.5 129.5t29.5 130t80.5 103q-65 57 -156 57h-78v-580h78q91 0 157 57zM685 48.5q57 38.5 87.5 105t30.5 146.5t-30.5 146.5t-87.5 105t-134 38.5q-88 0 -155 -59q51 -42 80 -102t29 -129q0 -70 -29.5 -131t-81.5 -102q63 -57 157 -57q77 0 134 38.5z
M436 179.5q21 56.5 21 120.5t-20 119.5t-57 95.5q-38 -40 -59 -96t-21 -119q0 -65 20 -121.5t57 -96.5q38 41 59 97.5z" />
    <glyph glyph-name="e_a" unicode="&#xe044;" horiz-adv-x="753" 
d="M452.5 26.5q22.5 15.5 30.5 34t14 44.5h10l-18 -99v-6h-469v10q36 0 47.5 8.5t11.5 31.5v500q0 23 -11.5 31.5t-47.5 8.5v10h289v-5l18 -99h-10q-6 26 -14 44.5t-30.5 34t-63.5 15.5h-82v-162h61q20 0 25 14.5t5 44.5h10v-129h-10q0 30 -5 44.5t-25 14.5h-61v-406h262
q41 0 63.5 15.5zM681 18q15 -8 52 -8v-10h-166v10q27 0 37.5 4t10.5 15q0 9 -3 19l-91 304h-84l-56 -194q-3 -10 -3 -19q0 -11 10.5 -15t37.5 -4v-10h-129v10q37 0 52 8t21 30l130 442l160 -552q6 -22 21 -30zM518 362l-40 133l-38 -133h78z" />
    <glyph glyph-name="e_t" unicode="&#xe045;" horiz-adv-x="727" 
d="M707 496h-10q-6 26 -14 44.5t-30.5 34t-63.5 15.5h-82v-540q0 -23 11.5 -31.5t47.5 -8.5v-10h-165v10q36 0 47.5 8.5t11.5 31.5v540h-333v-162h61q20 0 25 14.5t5 44.5h10v-129h-10q0 30 -5 44.5t-25 14.5h-61v-406h82q41 0 63.5 15.5t30.5 34t14 44.5h10l-18 -99v-6
h-289v10q36 0 47.5 8.5t11.5 31.5v500q0 23 -11.5 31.5t-47.5 8.5v10h669v-5z" />
    <glyph glyph-name="e_v" unicode="&#xe046;" horiz-adv-x="795" 
d="M775 590q-37 0 -52 -8t-21 -30l-160 -552l-160 552q-6 22 -21 30t-52 8h-182v-162h61q20 0 25 14.5t5 44.5h10v-129h-10q0 30 -5 44.5t-25 14.5h-61v-406h82q41 0 63.5 15.5t30.5 34t14 44.5h10l-18 -99v-6h-289v10q36 0 47.5 8.5t11.5 31.5v500q0 23 -11.5 31.5
t-47.5 8.5v10h455v-10q-27 0 -37.5 -4t-10.5 -15q0 -8 3 -19l134 -448l128 448q3 11 3 19q0 11 -10.5 15t-37.5 4v10h128v-10z" />
    <glyph glyph-name="e_w" unicode="&#xe047;" horiz-adv-x="996" 
d="M976 590q-37 0 -52 -8t-21 -30l-160 -552l-96 332l-105 -332l-160 552q-6 22 -21 30t-52 8h-182v-162h61q20 0 25 14.5t5 44.5h10v-129h-10q0 30 -5 44.5t-25 14.5h-61v-406h82q41 0 63.5 15.5t30.5 34t14 44.5h10l-18 -99v-6h-289v10q36 0 47.5 8.5t11.5 31.5v500
q0 23 -11.5 31.5t-47.5 8.5v10h455v-10q-27 0 -37.5 -4t-10.5 -15q0 -8 3 -19l135 -452l77 248l-59 204q-6 22 -21 30t-52 8v10h280v-10q-37 0 -52 -8t-22 -30l-44 -138l93 -310l128 448q3 11 3 19q0 11 -10.5 15t-37.5 4v10h128v-10zM668 430l39 126q2 10 2 13
q0 11 -9.5 16t-32.5 5q-19 0 -28.5 -5.5t-9.5 -18.5q0 -4 2 -14z" />
    <glyph glyph-name="f_t" unicode="&#xe049;" horiz-adv-x="597" 
d="M577 496h-10q-6 26 -14 44.5t-30.5 34t-63.5 15.5h-82v-540q0 -23 11.5 -31.5t47.5 -8.5v-10h-165v10q36 0 47.5 8.5t11.5 31.5v540h-183v-167h61q20 0 25 14.5t5 44.5h10v-124h-10q0 30 -5 44.5t-25 14.5h-61v-367q0 -23 11.5 -31.5t47.5 -8.5v-10h-166v10
q36 0 47.5 8.5t11.5 31.5v480q0 26 -18.5 43t-60.5 17v10h539v-5z" />
    <glyph glyph-name="k_a" unicode="&#xe050;" horiz-adv-x="1004" 
d="M932 18q15 -8 52 -8v-10h-166v10q27 0 37.5 4t10.5 15q0 9 -3 19l-91 304h-83l-87 -304q-4 -16 -4 -19q0 -11 10.5 -15t38.5 -4v-10h-295v10q24 0 33.5 3t9.5 10t-8 21l-197 355l-63 -77v-272q0 -23 11.5 -31.5t47.5 -8.5v-10h-166v10q36 0 47.5 8.5t11.5 31.5v500
q0 23 -11.5 31.5t-47.5 8.5v10h166v-10q-36 0 -47.5 -8.5t-11.5 -31.5v-211l183 222q13 16 13 21q0 4 -9 6t-31 2v10h131v-10q-39 0 -58 -6t-33 -23l-108 -131l219 -387q11 -19 28.5 -26t55.5 -7q37 0 52 8t21 30l160 552l160 -552q6 -22 21 -30zM769 362l-40 133l-37 -133
h77z" />
    <glyph glyph-name="l_a" unicode="&#xe051;" horiz-adv-x="617" 
d="M271.5 25.5q22.5 15.5 30.5 34t14 44.5h10l-18 -99v-5h-288v10q36 0 47.5 8.5t11.5 31.5v500q0 23 -11.5 31.5t-47.5 8.5v10h166v-10q-36 0 -47.5 -8.5t-11.5 -31.5v-540h81q41 0 63.5 15.5zM545 18q15 -8 52 -8v-10h-166v10q27 0 37.5 4t10.5 15q0 9 -3 19l-91 304h-84
l-56 -194q-3 -10 -3 -19q0 -11 10.5 -15t37.5 -4v-10h-129v10q37 0 52 8t21 30l130 442l160 -552q6 -22 21 -30zM382 362l-40 133l-38 -133h78z" />
    <glyph glyph-name="l_e" unicode="&#xe052;" horiz-adv-x="476" 
d="M271.5 25.5q22.5 15.5 30.5 34t14 44.5h10l-18 -99v-5h-288v10q36 0 47.5 8.5t11.5 31.5v500q0 23 -11.5 31.5t-47.5 8.5v10h166v-10q-36 0 -47.5 -8.5t-11.5 -31.5v-540h81q41 0 63.5 15.5zM424 239q13 19 22 52h10l-18 -79v-2h-207v10q36 0 47.5 8.5t11.5 31.5v290
q0 23 -11.5 31.5t-47.5 8.5v10h207v-1l18 -79h-10q-9 33 -22 52t-46 19h-58v-102h29q30 0 30 39h10v-88h-10q0 39 -30 39h-29v-259h58q33 0 46 19z" />
    <glyph glyph-name="l_i" unicode="&#xe053;" horiz-adv-x="399" 
d="M271.5 25.5q22.5 15.5 30.5 34t14 44.5h10l-18 -99v-5h-288v10q36 0 47.5 8.5t11.5 31.5v500q0 23 -11.5 31.5t-47.5 8.5v10h166v-10q-36 0 -47.5 -8.5t-11.5 -31.5v-540h81q41 0 63.5 15.5zM331.5 581.5q-11.5 -8.5 -11.5 -31.5v-290q0 -23 11.5 -31.5t47.5 -8.5v-10
h-148v10q36 0 47.5 8.5t11.5 31.5v290q0 23 -11.5 31.5t-47.5 8.5v10h148v-10q-36 0 -47.5 -8.5z" />
    <glyph glyph-name="l_l" unicode="&#xe054;" horiz-adv-x="476" 
d="M271.5 25.5q22.5 15.5 30.5 34t14 44.5h10l-18 -99v-5h-288v10q36 0 47.5 8.5t11.5 31.5v500q0 23 -11.5 31.5t-47.5 8.5v10h166v-10q-36 0 -47.5 -8.5t-11.5 -31.5v-540h81q41 0 63.5 15.5zM456 291l-18 -79v-2h-207v10q36 0 47.5 8.5t11.5 31.5v290q0 23 -11.5 31.5
t-47.5 8.5v10h148v-10q-36 0 -47.5 -8.5t-11.5 -31.5v-330h58q33 0 46 19t22 52h10z" />
    <glyph glyph-name="l_u" unicode="&#xe055;" horiz-adv-x="660" 
d="M271.5 25.5q22.5 15.5 30.5 34t14 44.5h10l-18 -99v-5h-288v10q36 0 47.5 8.5t11.5 31.5v500q0 23 -11.5 31.5t-47.5 8.5v10h166v-10q-36 0 -47.5 -8.5t-11.5 -31.5v-540h81q41 0 63.5 15.5zM640 590q-36 0 -47.5 -8.5t-11.5 -31.5v-189q0 -76 -37.5 -113.5t-94.5 -37.5
q-37 0 -74 16t-61 50t-24 85v189q0 23 -11.5 31.5t-47.5 8.5v10h148v-10q-36 0 -47.5 -8.5t-11.5 -31.5l2 -189q1 -74 39 -107.5t88 -33.5q51 0 86.5 33.5t35.5 107.5v189q0 23 -11.5 31.5t-47.5 8.5v10h128v-10z" />
    <glyph glyph-name="n_n" unicode="&#xe056;" horiz-adv-x="676" 
d="M656 590q-36 0 -47.5 -8.5t-11.5 -31.5v-550l-254 492v-492l-254 492v-442q0 -23 11.5 -31.5t47.5 -8.5v-10h-128v10q36 0 47.5 8.5t11.5 31.5v500q0 23 -11.5 31.5t-47.5 8.5v10h69l244 -483v433q0 23 -11.5 31.5t-47.5 8.5v10h69l244 -483v433q0 23 -11.5 31.5
t-47.5 8.5v10h128v-10z" />
    <glyph glyph-name="o_c" unicode="&#xe057;" horiz-adv-x="825" 
d="M805 67q-32 -27 -69 -42q-61 -25 -109 -25q-81 0 -153 43q-72 -43 -154 -43t-150.5 40.5t-109 109.5t-40.5 150q0 82 40.5 150.5t109 109t150.5 40.5q85 0 153 -42q70 42 154 42q57 0 109 -20v-89h-10q0 56 -21 77.5t-78 21.5q-75 0 -136 -43q60 -41 94.5 -106.5
t34.5 -140.5q0 -76 -35.5 -141.5t-95.5 -106.5q61 -42 138 -42q27 0 52 6t54 18q37 14 64 41zM460 52q-61 42 -96.5 108t-35.5 142t35 141t95 106q-58 41 -138 41q-72 0 -129 -39t-89.5 -105.5t-32.5 -145.5q0 -80 30 -146.5t87 -105t134 -38.5q81 0 140 42zM547 434.5
q-25 61.5 -71 100.5q-47 -40 -73.5 -101t-26.5 -132q0 -73 25.5 -136t72.5 -102q47 39 72.5 101t25.5 135t-25 134.5z" />
    <glyph glyph-name="o_g" unicode="&#xe058;" horiz-adv-x="877" 
d="M837 287q-36 0 -47.5 -8.5t-11.5 -31.5v-212l-40 -15l-4 -1l-4 -2q-49 -17 -101 -17q-82 0 -155 43q-72 -43 -154 -43t-150.5 40.5t-109 109.5t-40.5 150q0 82 40.5 150.5t109 109t150.5 40.5t155 -43q72 43 154 43q57 0 109 -20v-70h-10q0 37 -8 52t-30 21q-33 7 -61 7
q-77 0 -137 -44q59 -41 93.5 -106t34.5 -140q0 -76 -35.5 -141.5t-95.5 -106.5q59 -42 140 -42q53 0 101 21v196q0 26 -18.5 43t-60.5 17v10h186v-10zM460 52q-61 42 -96.5 107.5t-35.5 141.5q0 75 35.5 140.5t95.5 106.5q-58 42 -139 42q-72 0 -129 -39t-89.5 -105.5
t-32.5 -145.5q0 -80 30 -146.5t87 -105t134 -38.5q79 0 140 42zM547.5 433q-24.5 61 -70.5 101q-47 -40 -73.5 -101t-26.5 -132q0 -74 25 -136t72 -101q47 39 72.5 101t25.5 135q0 72 -24.5 133z" />
    <glyph glyph-name="o_o" unicode="&#xe059;" horiz-adv-x="968" 
d="M778.5 559.5q68.5 -40.5 109 -109t40.5 -150.5q0 -81 -40.5 -150t-109 -109.5t-150.5 -40.5t-154 43q-72 -43 -154 -43t-150.5 40.5t-109 109.5t-40.5 150q0 82 40.5 150.5t109 109t150.5 40.5q84 0 154 -42q70 42 154 42q82 0 150.5 -40.5zM459 52q-60 41 -95.5 106.5
t-35.5 141.5t35.5 141.5t95.5 106.5q-59 42 -139 42q-72 0 -129 -39t-89.5 -105.5t-32.5 -145.5q0 -80 30 -146.5t87 -105t134 -38.5q80 0 139 42zM762 48.5q57 38.5 87.5 105t30.5 146.5t-30.5 146.5t-87.5 105t-134 38.5q-76 0 -136 -44q59 -41 93.5 -106t34.5 -140
q0 -76 -35.5 -141.5t-95.5 -106.5q59 -42 139 -42q77 0 134 38.5zM547.5 433q-24.5 61 -70.5 101q-47 -40 -73.5 -101.5t-26.5 -132.5q0 -74 25 -135.5t72 -100.5q47 39 72.5 101t25.5 135q0 72 -24.5 133z" />
    <glyph glyph-name="o_q" unicode="&#xe060;" horiz-adv-x="968" 
d="M748 -31q30 -42 51.5 -61t56.5 -19v-7q-52 0 -88 17t-57.5 40.5t-48.5 62.5q-22 -2 -34 -2q-82 0 -154 43q-72 -43 -154 -43t-150.5 40.5t-109 109.5t-40.5 150q0 82 40.5 150.5t109 109t150.5 40.5q84 0 154 -42q70 42 154 42q82 0 150.5 -40.5t109 -109t40.5 -150.5
q0 -66 -27 -125t-75.5 -101t-109.5 -61q12 -14 32 -44zM459 52q-60 41 -95.5 106.5t-35.5 141.5t35.5 141.5t95.5 106.5q-59 42 -139 42q-72 0 -129 -39t-89.5 -105.5t-32.5 -145.5q0 -80 30 -146.5t87 -105t134 -38.5q80 0 139 42zM655 11q-24 33 -45 50t-52 17v6
q51 0 86.5 -16.5t62.5 -45.5q81 27 127 103t46 175q0 80 -30.5 146.5t-87.5 105t-134 38.5q-76 0 -136 -44q59 -41 93.5 -106t34.5 -140q0 -76 -35.5 -141.5t-95.5 -106.5q59 -42 139 -42q18 0 27 1zM547.5 433q-24.5 61 -70.5 101q-47 -40 -73.5 -101.5t-26.5 -132.5
q0 -74 25 -135.5t72 -100.5q47 39 72.5 101t25.5 135q0 72 -24.5 133z" />
    <glyph glyph-name="r_a" unicode="&#xe061;" horiz-adv-x="832" 
d="M726.5 -102q46.5 15 80.5 37l5 -5q-37 -25 -88 -42t-106 -17q-131 0 -245 98.5t-196 330.5h-50v-250q0 -23 11.5 -31.5t47.5 -8.5v-10h-166v10q36 0 47.5 8.5t11.5 31.5v500q0 23 -11.5 31.5t-47.5 8.5v10h107h98q41 0 79.5 -20.5t63 -55t24.5 -74.5t-24 -74t-62 -55
t-78 -21q80 -219 184.5 -318t218.5 -99q49 0 95.5 15zM760 18q15 -8 52 -8v-10h-166v10q27 0 37.5 4t10.5 15q0 9 -3 19l-91 304h-84l-56 -194q-3 -10 -3 -19q0 -11 10.5 -15t37.5 -4v-10h-129v10q37 0 52 8t21 30l130 442l160 -552q6 -22 21 -30zM225 309q55 0 87 40
t32 101t-32 100.5t-87 39.5h-98v-281h98zM597 362l-40 133l-38 -133h78z" />
    <glyph glyph-name="t_t" unicode="&#xe062;" horiz-adv-x="852" 
d="M832 496h-10q-6 26 -14 44.5t-30.5 34t-63.5 15.5h-82v-540q0 -23 11.5 -31.5t47.5 -8.5v-10h-165v10q36 0 47.5 8.5t11.5 31.5v540h-318v-540q0 -23 11.5 -31.5t47.5 -8.5v-10h-165v10q36 0 47.5 8.5t11.5 31.5v540h-82q-41 0 -63.5 -15.5t-30.5 -34t-14 -44.5h-10
l18 99v5h776v-5z" />
    <glyph glyph-name="t_y" unicode="&#xe063;" horiz-adv-x="914" 
d="M894 590q-37 0 -54 -7.5t-27 -27.5l-128 -254l1 -1v-250q0 -23 11.5 -31.5t47.5 -8.5v-10h-166v10q36 0 47.5 8.5t11.5 31.5v250l-128 255q-10 20 -27 27.5t-54 7.5h-162v-540q0 -23 11.5 -31.5t47.5 -8.5v-10h-165v10q36 0 47.5 8.5t11.5 31.5v540h-82
q-41 0 -63.5 -15.5t-30.5 -34t-14 -44.5h-10l18 99v5h550v-10q-25 0 -34.5 -3t-9.5 -10t8 -21l128 -244l122 243q7 16 7 21q0 8 -10 11t-34 3v10h129v-10z" />
    <glyph glyph-name="v_a" unicode="&#xe064;" horiz-adv-x="740" 
d="M668 18q15 -8 52 -8v-10h-166v10q26 0 36.5 4t10.5 13q0 7 -5 20l-109 305h-114l-120 -352l-160 552q-6 22 -21 30t-52 8v10h166v-10q-27 0 -37.5 -4t-10.5 -15q0 -8 3 -19l135 -452l155 453q5 13 5 19q0 10 -10.5 14t-37.5 4v10h69l188 -553q8 -21 23 -29zM484 362
l-55 155l-53 -155h108z" />
    <glyph glyph-name="dotlessi.sc" horiz-adv-x="206" 
d="M20 10q36 0 47.5 8.5t11.5 31.5v500q0 23 -11.5 31.5t-47.5 8.5v10h166v-10q-36 0 -47.5 -8.5t-11.5 -31.5v-500q0 -23 11.5 -31.5t47.5 -8.5v-10h-166v10z" />
    <glyph glyph-name="i.sc.loclTRK" horiz-adv-x="206" 
d="M20 10q36 0 47.5 8.5t11.5 31.5v500q0 23 -11.5 31.5t-47.5 8.5v10h166v-10q-36 0 -47.5 -8.5t-11.5 -31.5v-500q0 -23 11.5 -31.5t47.5 -8.5v-10h-166v10zM74.5 732q-11.5 12 -11.5 28q0 17 11.5 28.5t28.5 11.5q16 0 28 -11.5t12 -28.5q0 -16 -12 -28t-28 -12
q-17 0 -28.5 12z" />
    <glyph glyph-name="zero" unicode="0" horiz-adv-x="766" 
d="M71.5 749q51.5 115 135.5 183t176 68t176 -68t135.5 -183t51.5 -249t-51.5 -249t-135.5 -183t-176 -68t-176 68t-135.5 183t-51.5 249t51.5 249zM134 255.5q34 -110.5 98.5 -175.5t150.5 -65t150.5 65t98.5 175.5t34 244.5t-34 244.5t-98.5 175.5t-150.5 65
q-81 0 -145.5 -65.5t-101 -176.5t-36.5 -243q0 -134 34 -244.5z" />
    <glyph glyph-name="one" unicode="1" horiz-adv-x="278" 
d="M20 10q42 0 60.5 17t18.5 43v810q0 35 -22 35q-15 0 -40 -15l-5 8l76 48l71 44v-930q0 -26 18.5 -43t60.5 -17v-10h-238v10z" />
    <glyph glyph-name="two" unicode="2" horiz-adv-x="560" 
d="M505 98.5q17 18.5 17 60.5h10v-159h-512v80q0 64 29 121.5t70.5 104.5t114.5 117q76 72 120 122t75 112.5t31 133.5q0 56 -23 104t-62.5 76.5t-87.5 28.5q-80 0 -121.5 -47.5t-41.5 -120.5h-80q0 45 36 86.5t92.5 66.5t114.5 25q70 0 128 -31t91.5 -83.5t33.5 -114.5
q0 -83 -38 -150.5t-92 -118t-144 -118.5q-80 -62 -126.5 -104t-78 -95t-31.5 -115h432q26 0 43 18.5z" />
    <glyph glyph-name="three" unicode="3" horiz-adv-x="644" 
d="M470 544q72 -40 113 -106.5t41 -155.5q0 -77 -41 -141.5t-112 -102.5t-159 -38q-72 0 -139 34t-110 100.5t-43 157.5h80q0 -83 26.5 -147t74.5 -99.5t111 -35.5q232 0 232 272q0 153 -83 231t-233 78v10q112 0 176.5 46.5t64.5 150.5q0 62 -20.5 108.5t-56.5 72t-80 25.5
q-45 0 -81 -23.5t-56 -64.5t-20 -91h-80q0 57 35 100t89.5 66t112.5 23q64 0 118.5 -29t86.5 -78.5t32 -108.5q0 -86 -69 -136.5t-175 -65.5q93 -12 165 -52z" />
    <glyph glyph-name="four" unicode="4" horiz-adv-x="681" 
d="M502 189v-119q0 -26 18.5 -43t60.5 -17v-10h-238v10q42 0 60.5 17t18.5 43v119h-402l6 10l476 801v-801h88q26 0 43 18.5t17 60.5h10l1 -89h-159zM422 199v646l-385 -646h385z" />
    <glyph glyph-name="five" unicode="5" horiz-adv-x="689" 
d="M502 648q76 -50 121.5 -131t45.5 -168t-45.5 -168t-121.5 -131t-162 -50q-87 0 -160.5 43t-116.5 116t-43 160h80q0 -136 59.5 -222.5t180.5 -86.5q81 0 137 48t84 125.5t28 165.5q0 89 -28 166t-84 125t-137 48q-73 0 -129.5 -25.5t-89.5 -63.5t-41 -77l-2 -22h-9
q0 5 2 21l50 479h453v-159h-10q0 42 -17 60.5t-43 18.5h-381l-39 -362q28 58 94.5 99t161.5 41q86 0 162 -50z" />
    <glyph glyph-name="six" unicode="6" horiz-adv-x="685" 
d="M488.5 631q71.5 -32 124 -102.5t52.5 -178.5q-1 -99 -42 -177.5t-111 -122t-153 -43.5q-87 0 -165 51t-126 148t-48 229q0 135 67 267.5t174 216.5t218 84l10 -10q-90 0 -178.5 -79t-146.5 -203.5t-63 -251.5q15 69 57.5 115t96.5 67.5t104 21.5q58 0 129.5 -32z
M528.5 107q54.5 90 55.5 243q0 101 -34 169t-86 101t-105 33q-58 0 -117 -29.5t-99 -91.5t-40 -154q0 -32 6 -70l-1 1q20 -140 85.5 -216t165.5 -76q115 0 169.5 90z" />
    <glyph glyph-name="seven" unicode="7" horiz-adv-x="559" 
d="M374 709q-57 -130 -82.5 -294t-25.5 -415h-80q0 218 34 374.5t93 274.5t162 272h-366q-25 0 -47.5 -19.5t-32.5 -59.5l-9 2l39 156h480q-108 -161 -165 -291z" />
    <glyph glyph-name="eight" unicode="8" horiz-adv-x="698" 
d="M550.5 472.5q53.5 -34.5 90.5 -87.5t37 -128q0 -94 -53.5 -154t-129.5 -86.5t-146 -26.5t-146 26.5t-129.5 86.5t-53.5 154q0 70 29 121.5t75.5 87t113.5 69.5q-74 46 -115.5 101.5t-41.5 134.5q0 63 35.5 119.5t97.5 90.5t135 34t135 -34t97.5 -90.5t35.5 -119.5
q0 -90 -66 -143.5t-142 -78.5q88 -42 141.5 -76.5zM191 693.5q30 -41.5 76.5 -70.5t121.5 -65q65 36 106 96.5t42 136.5q0 97 -49.5 153.5t-138.5 56.5t-138.5 -56.5t-49.5 -153.5q0 -56 30 -97.5zM518.5 49q79.5 46 79.5 178q0 59 -32.5 102.5t-80 73.5t-129.5 70
q-66 32 -97 50q-159 -98 -159 -296q0 -93 43.5 -143.5t99.5 -67t106 -16.5q90 3 169.5 49z" />
    <glyph glyph-name="nine" unicode="9" horiz-adv-x="685" 
d="M491 952q78 -51 126 -148t48 -229q0 -135 -67 -267.5t-174 -216.5t-218 -84l-10 10q90 0 178.5 79t146.5 203.5t63 251.5q-15 -69 -57.5 -115t-96.5 -67.5t-104 -21.5q-58 0 -129.5 32t-124 102.5t-52.5 178.5q1 99 42 177.5t111 122t153 43.5q87 0 165 -51zM443 386.5
q59 29.5 99 91.5t40 154q0 33 -6 70l1 -1q-20 140 -85.5 216t-165.5 76q-115 0 -169.5 -90t-55.5 -243q0 -101 34 -169t86 -101t105 -33q58 0 117 29.5z" />
    <glyph glyph-name="uni00B2" unicode="&#xb2;" horiz-adv-x="251" 
d="M217 640q7 8 7 25h4v-65h-208v32q0 37 21.5 67t65.5 72q46 44 69 76.5t23 73.5q0 35 -20.5 60t-50.5 25q-32 0 -49 -19t-17 -49h-32q0 27 31 49.5t67 22.5q44 0 73.5 -27t29.5 -66q0 -48 -28.5 -82t-82.5 -75q-49 -38 -72.5 -65t-23.5 -63h176q10 0 17 8z" />
    <glyph glyph-name="uni00B3" unicode="&#xb3;" horiz-adv-x="287" 
d="M231 802.5q36 -33.5 36 -87.5q0 -48 -36.5 -81.5t-91.5 -33.5q-29 0 -56.5 14t-45 41t-17.5 64h33q0 -51 23.5 -83t62.5 -32q95 0 95 111q0 63 -34 94.5t-95 31.5v4q45 0 72 19t27 62q0 38 -18.5 61t-46.5 23t-46 -21t-18 -52h-32q0 35 29.5 56t66.5 21q40 0 68.5 -25.5
t28.5 -62.5q0 -35 -28.5 -56t-71.5 -27q59 -7 95 -40.5z" />
    <glyph glyph-name="onehalf" unicode="&#xbd;" horiz-adv-x="340" 
d="M123 605q17 0 24.5 7.5t7.5 17.5v322q0 14 -9 14q-6 0 -16 -6l-2 3l30 19l29 18v-370q0 -10 7.5 -17.5t23.5 -7.5v-5h-95v5zM320 505v-10h-300v10h300zM67 32q0 36 21.5 66t63.5 70q44 41 67 73.5t23 73.5q0 33 -20.5 57t-48.5 24q-32 0 -48.5 -18.5t-16.5 -47.5h-31
q0 28 30.5 49.5t65.5 21.5q42 0 71 -26.5t29 -63.5q0 -47 -27.5 -80.5t-79.5 -73.5q-47 -36 -70 -63t-23 -62h164q10 0 17 7.5t7 24.5h6v-63h-200v31z" />
    <glyph glyph-name="onequarter" unicode="&#xbc;" horiz-adv-x="340" 
d="M123 605q17 0 24.5 7.5t7.5 17.5v322q0 14 -9 14q-6 0 -16 -6l-2 3l30 19l29 18v-370q0 -10 7.5 -17.5t23.5 -7.5v-5h-95v5zM320 505v-10h-300v10h300zM45 79l189 321v-321h36q10 0 17 7.5t7 24.5h4v-35h-64v-48q0 -10 7.5 -17t24.5 -7v-4h-96v4q32 0 32 24v48h-159z
M202 79v258l-153 -258h153z" />
    <glyph glyph-name="threequarters" unicode="&#xbe;" horiz-adv-x="340" 
d="M83 716q0 -49 22.5 -79t60.5 -30q48 0 69.5 27t21.5 78q0 60 -33 91t-91 31v4q44 0 69.5 18.5t25.5 58.5q0 36 -17.5 57.5t-44.5 21.5t-44.5 -19t-17.5 -49h-32q0 33 29 53.5t65 20.5q38 0 65.5 -25t27.5 -60q0 -33 -27 -53t-68 -26q56 -7 90.5 -39.5t34.5 -84.5
q0 -46 -35.5 -78.5t-87.5 -32.5q-28 0 -54.5 13.5t-43.5 39.5t-17 62h32zM320 505v-10h-300v10h300zM45 79l189 321v-321h36q10 0 17 7.5t7 24.5h4v-35h-64v-48q0 -10 7.5 -17t24.5 -7v-4h-96v4q32 0 32 24v48h-159zM202 79v258l-153 -258h153z" />
    <glyph glyph-name="period" unicode="." horiz-adv-x="120" 
d="M32 12q-12 12 -12 28q0 17 12 28.5t28 11.5q17 0 28.5 -11.5t11.5 -28.5q0 -16 -11.5 -28t-28.5 -12q-16 0 -28 12z" />
    <glyph glyph-name="comma" unicode="," horiz-adv-x="132" 
d="M32 12q-12 12 -12 28q0 17 12 28.5t28 11.5q22 0 37 -18t15 -50q0 -85 -81 -133l-2 6q31 21 47.5 47.5t16.5 51.5q0 14 -6 28q-6 -12 -27 -12q-16 0 -28 12z" />
    <glyph glyph-name="colon" unicode=":" horiz-adv-x="120" 
d="M32 172q-12 12 -12 28q0 17 12 28.5t28 11.5q17 0 28.5 -11.5t11.5 -28.5q0 -16 -11.5 -28t-28.5 -12q-16 0 -28 12zM32 12q-12 12 -12 28q0 17 12 28.5t28 11.5q17 0 28.5 -11.5t11.5 -28.5q0 -16 -11.5 -28t-28.5 -12q-16 0 -28 12z" />
    <glyph glyph-name="semicolon" unicode=";" horiz-adv-x="132" 
d="M32 172q-12 12 -12 28q0 17 12 28.5t28 11.5q17 0 28.5 -11.5t11.5 -28.5q0 -16 -11.5 -28t-28.5 -12q-16 0 -28 12zM32 12q-12 12 -12 28q0 17 12 28.5t28 11.5q22 0 37 -18t15 -50q0 -85 -81 -133l-2 6q31 21 47.5 47.5t16.5 51.5q0 14 -6 28q-6 -12 -27 -12
q-16 0 -28 12z" />
    <glyph glyph-name="ellipsis" unicode="&#x2026;" horiz-adv-x="400" 
d="M32 12q-12 12 -12 28q0 17 12 28.5t28 11.5q17 0 28.5 -11.5t11.5 -28.5q0 -16 -11.5 -28t-28.5 -12q-16 0 -28 12zM172 12q-12 12 -12 28q0 17 12 28.5t28 11.5q17 0 28.5 -11.5t11.5 -28.5q0 -16 -11.5 -28t-28.5 -12q-16 0 -28 12zM312 12q-12 12 -12 28q0 17 12 28.5
t28 11.5q17 0 28.5 -11.5t11.5 -28.5q0 -16 -11.5 -28t-28.5 -12q-16 0 -28 12z" />
    <glyph glyph-name="exclam" unicode="!" horiz-adv-x="120" 
d="M55 218q0 288 -30 669q-5 65 -5 74q0 17 12 28.5t28 11.5q17 0 28.5 -11.5t11.5 -28.5q0 -9 -5 -74q-30 -381 -30 -669h-10zM32 12q-12 12 -12 28q0 17 12 28.5t28 11.5q17 0 28.5 -11.5t11.5 -28.5q0 -16 -11.5 -28t-28.5 -12q-16 0 -28 12z" />
    <glyph glyph-name="exclamdown" unicode="&#xa1;" horiz-adv-x="120" 
d="M88.5 989.5q11.5 -11.5 11.5 -28.5q0 -16 -11.5 -28t-28.5 -12q-16 0 -28 12t-12 28q0 17 12 28.5t28 11.5q17 0 28.5 -11.5zM95 114q5 -65 5 -74q0 -16 -11.5 -28t-28.5 -12q-16 0 -28 12t-12 28q0 9 5 74q30 381 30 669h10q0 -288 30 -669z" />
    <glyph glyph-name="question" unicode="?" horiz-adv-x="562" 
d="M411.5 921q-50.5 69 -140.5 69t-140.5 -69t-50.5 -178h-60q0 86 35.5 143.5t93 85.5t122.5 28q66 0 128.5 -28t102.5 -86t40 -143q0 -52 -20.5 -98t-50.5 -83t-81 -91q-55 -58 -86.5 -97.5t-54 -91t-22.5 -112.5h-10q0 63 19 119.5t46 102t71 107.5q38 55 59 89.5
t35.5 74t14.5 80.5q0 109 -50.5 178zM194 12q-12 12 -12 28q0 17 12 28.5t28 11.5q17 0 28.5 -11.5t11.5 -28.5q0 -16 -11.5 -28t-28.5 -12q-16 0 -28 12z" />
    <glyph glyph-name="questiondown" unicode="&#xbf;" horiz-adv-x="562" 
d="M368.5 988.5q11.5 -11.5 11.5 -28.5q0 -16 -11.5 -28t-28.5 -12q-16 0 -28 12t-12 28q0 17 12 28.5t28 11.5q17 0 28.5 -11.5zM150.5 79q50.5 -69 140.5 -69t140.5 69t50.5 178h60q0 -86 -35.5 -143.5t-93 -85.5t-122.5 -28q-66 0 -128.5 28t-102.5 86t-40 143
q0 52 20.5 98t50.5 83t81 91q55 58 86.5 97.5t54 91t22.5 112.5h10q0 -63 -19 -119.5t-46 -102t-71 -107.5q-38 -55 -59 -89.5t-35.5 -74t-14.5 -80.5q0 -109 50.5 -178z" />
    <glyph glyph-name="periodcentered" unicode="&#xb7;" horiz-adv-x="120" 
d="M32 472q-12 12 -12 28q0 17 12 28.5t28 11.5q17 0 28.5 -11.5t11.5 -28.5q0 -16 -11.5 -28t-28.5 -12q-16 0 -28 12z" />
    <glyph glyph-name="bullet" unicode="&#x2022;" horiz-adv-x="120" 
d="M32 472q-12 12 -12 28q0 17 12 28.5t28 11.5q17 0 28.5 -11.5t11.5 -28.5q0 -16 -11.5 -28t-28.5 -12q-16 0 -28 12z" />
    <glyph glyph-name="asterisk" unicode="*" horiz-adv-x="360" 
d="M340 757q0 -10 -4 -17q-5 -8 -13 -13t-18 -5q-9 0 -17 5q-12 8 -28 29q-18 22 -35 38t-42 31q1 -29 6.5 -51t14.5 -47q4 -12 7.5 -23t3.5 -19q0 -15 -10.5 -25t-24.5 -10t-24.5 10.5t-10.5 24.5q0 12 11 41q9 25 14.5 47t6.5 51q-24 -15 -40.5 -30t-34.5 -37
q-21 -24 -30 -30q-8 -5 -17 -5t-17.5 5t-13.5 13q-4 7 -4 17q0 20 17 31q7 4 18 6.5t23 4.5q56 9 96 31q-40 21 -95 30q-31 6 -42 12q-17 11 -17 30q0 10 4 18q11 17 31 17q10 0 17 -4q9 -6 30 -30q3 -3 15 -17t27.5 -27t32.5 -24q-1 29 -6.5 51.5t-14.5 48.5q-11 29 -11 40
q0 14 10.5 24.5t24.5 10.5t24.5 -10t10.5 -25q0 -8 -3.5 -19t-7.5 -23q-9 -25 -14.5 -47t-6.5 -51q41 25 76 69q19 23 29 29q7 4 17 4q20 0 31 -17q4 -7 4 -17q0 -20 -17 -31q-7 -4 -18 -6.5t-23 -4.5q-26 -4 -48.5 -10.5t-47.5 -20.5q25 -14 47.5 -20.5t48.5 -10.5
q12 -2 23 -4.5t18 -6.5q17 -11 17 -31z" />
    <glyph glyph-name="numbersign" unicode="#" horiz-adv-x="766" 
d="M552 670l-83 -310h217v-10h-219l-93 -350h-10l93 350h-230l-93 -350h-10l93 350h-197v10h199l83 310h-222v10h224l85 320h10l-85 -320h230l85 320h10l-85 -320h192v-10h-194zM542 670h-230l-83 -310h230z" />
    <glyph glyph-name="slash" unicode="/" horiz-adv-x="350" 
d="M330 1000l-300 -1130h-10l300 1130h10z" />
    <glyph glyph-name="backslash" unicode="\" horiz-adv-x="350" 
d="M330 -130h-10l-300 1130h10z" />
    <glyph glyph-name="parenleft" unicode="(" horiz-adv-x="173" 
d="M153 1000q-42 -108 -68 -190t-40.5 -174t-14.5 -201t14.5 -201t40.5 -174t68 -190h-10q-42 108 -68 190t-40.5 174t-14.5 201t14.5 201t40.5 174t68 190h10z" />
    <glyph glyph-name="parenright" unicode=")" horiz-adv-x="173" 
d="M98 810q26 -82 40.5 -174t14.5 -201t-14.5 -201t-40.5 -174t-68 -190h-10q42 108 68 190t40.5 174t14.5 201t-14.5 201t-40.5 174t-68 190h10q42 -108 68 -190z" />
    <glyph glyph-name="braceleft" unicode="{" horiz-adv-x="342" 
d="M118.5 479q-23.5 -37 -63.5 -49q40 -12 63.5 -49t23.5 -91v-203q0 -117 51.5 -162t128.5 -45v-10q-85 0 -137.5 46.5t-52.5 170.5v203q0 44 -16.5 74.5t-42 45.5t-53.5 15v10q28 0 53.5 15t42 45.5t16.5 74.5v203q0 124 52.5 170.5t137.5 46.5v-10q-77 0 -128.5 -45
t-51.5 -162v-203q0 -54 -23.5 -91z" />
    <glyph glyph-name="braceright" unicode="}" horiz-adv-x="342" 
d="M226.5 495.5q16.5 -30.5 42 -45.5t53.5 -15v-10q-28 0 -53.5 -15t-42 -45.5t-16.5 -74.5v-203q0 -124 -52.5 -170.5t-137.5 -46.5v10q77 0 128.5 45t51.5 162v203q0 54 23.5 91t63.5 49q-40 12 -63.5 49t-23.5 91v203q0 117 -51.5 162t-128.5 45v10q85 0 137.5 -46.5
t52.5 -170.5v-203q0 -44 16.5 -74.5z" />
    <glyph glyph-name="bracketleft" unicode="[" horiz-adv-x="224" 
d="M30 990v-1110h174v-10h-184v1130h184v-10h-174z" />
    <glyph glyph-name="bracketright" unicode="]" horiz-adv-x="224" 
d="M204 -130h-184v10h174v1110h-174v10h184v-1130z" />
    <glyph glyph-name="hyphen" unicode="-" horiz-adv-x="340" 
d="M320 505v-10h-300v10h300z" />
    <glyph glyph-name="endash" unicode="&#x2013;" horiz-adv-x="470" 
d="M450 505v-10h-430v10h430z" />
    <glyph glyph-name="emdash" unicode="&#x2014;" horiz-adv-x="670" 
d="M650 505v-10h-630v10h630z" />
    <glyph glyph-name="underscore" unicode="_" horiz-adv-x="470" 
d="M450 10v-10h-430v10h430z" />
    <glyph glyph-name="quotesinglbase" unicode="&#x201a;" horiz-adv-x="132" 
d="M32 12q-12 12 -12 28q0 17 12 28.5t28 11.5q22 0 37 -18t15 -50q0 -85 -81 -133l-2 6q31 21 47.5 47.5t16.5 51.5q0 14 -6 28q-6 -12 -27 -12q-16 0 -28 12z" />
    <glyph glyph-name="quotedblbase" unicode="&#x201e;" horiz-adv-x="254" 
d="M32 12q-12 12 -12 28q0 17 12 28.5t28 11.5q22 0 37 -18t15 -50q0 -85 -81 -133l-2 6q31 21 47.5 47.5t16.5 51.5q0 14 -6 28q-6 -12 -27 -12q-16 0 -28 12zM154 12q-12 12 -12 28q0 17 12 28.5t28 11.5q22 0 37 -18t15 -50q0 -85 -81 -133l-2 6q31 21 47.5 47.5
t16.5 51.5q0 14 -6 28q-6 -12 -27 -12q-16 0 -28 12z" />
    <glyph glyph-name="quotedblleft" unicode="&#x201c;" horiz-adv-x="254" 
d="M100.5 867.5q11.5 -11.5 11.5 -28.5q0 -16 -11.5 -28t-28.5 -12q-22 0 -37 18t-15 50q0 85 81 133l2 -6q-31 -21 -47.5 -47.5t-16.5 -51.5q0 -14 6 -28q6 12 27 12q17 0 28.5 -11.5zM222.5 867.5q11.5 -11.5 11.5 -28.5q0 -16 -11.5 -28t-28.5 -12q-22 0 -37 18t-15 50
q0 85 81 133l2 -6q-31 -21 -47.5 -47.5t-16.5 -51.5q0 -14 6 -28q6 12 27 12q17 0 28.5 -11.5z" />
    <glyph glyph-name="quotedblright" unicode="&#x201d;" horiz-adv-x="254" 
d="M32 932q-12 12 -12 28q0 17 12 28.5t28 11.5q22 0 37 -18t15 -50q0 -85 -81 -133l-2 6q31 21 47.5 47.5t16.5 51.5q0 15 -6 28q-6 -12 -27 -12q-16 0 -28 12zM154 932q-12 12 -12 28q0 17 12 28.5t28 11.5q22 0 37 -18t15 -50q0 -85 -81 -133l-2 6q31 21 47.5 47.5
t16.5 51.5q0 15 -6 28q-6 -12 -27 -12q-16 0 -28 12z" />
    <glyph glyph-name="quoteleft" unicode="&#x2018;" horiz-adv-x="132" 
d="M100.5 867.5q11.5 -11.5 11.5 -28.5q0 -16 -11.5 -28t-28.5 -12q-22 0 -37 18t-15 50q0 85 81 133l2 -6q-31 -21 -47.5 -47.5t-16.5 -51.5q0 -14 6 -28q6 12 27 12q17 0 28.5 -11.5z" />
    <glyph glyph-name="quoteright" unicode="&#x2019;" horiz-adv-x="132" 
d="M32 932q-12 12 -12 28q0 17 12 28.5t28 11.5q22 0 37 -18t15 -50q0 -85 -81 -133l-2 6q31 21 47.5 47.5t16.5 51.5q0 15 -6 28q-6 -12 -27 -12q-16 0 -28 12z" />
    <glyph glyph-name="guillemotleft" unicode="&#xab;" horiz-adv-x="410" 
d="M220 700l10 -10l-127 -190l127 -190l-10 -10l-200 200zM380 700l10 -10l-127 -190l127 -190l-10 -10l-200 200z" />
    <glyph glyph-name="guillemotright" unicode="&#xbb;" horiz-adv-x="410" 
d="M30 300l-10 10l127 190l-127 190l10 10l200 -200zM190 300l-10 10l127 190l-127 190l10 10l200 -200z" />
    <glyph glyph-name="guilsinglleft" unicode="&#x2039;" horiz-adv-x="370" 
d="M20 505l330 195v-13l-317 -187l317 -187v-13l-330 195v10z" />
    <glyph glyph-name="guilsinglright" unicode="&#x203a;" horiz-adv-x="370" 
d="M20 300v13l317 187l-317 187v13l330 -195v-10z" />
    <glyph glyph-name="quotedbl" unicode="&#x22;" horiz-adv-x="230" 
d="M57 794q0 35 -6.5 62.5t-18.5 57.5q-1 4 -6.5 19.5t-5.5 26.5q0 17 12 28.5t28 11.5q17 0 28.5 -11.5t11.5 -28.5q0 -12 -5.5 -27.5t-6.5 -19.5q-12 -31 -18.5 -57.5t-6.5 -61.5h-6zM167 794q0 35 -6.5 62.5t-18.5 57.5q-1 4 -6.5 19.5t-5.5 26.5q0 17 12 28.5t28 11.5
q17 0 28.5 -11.5t11.5 -28.5q0 -12 -5.5 -27.5t-6.5 -19.5q-12 -31 -18.5 -57.5t-6.5 -61.5h-6z" />
    <glyph glyph-name="quotesingle" unicode="'" horiz-adv-x="120" 
d="M57 794q0 35 -6.5 62.5t-18.5 57.5q-1 4 -6.5 19.5t-5.5 26.5q0 17 12 28.5t28 11.5q17 0 28.5 -11.5t11.5 -28.5q0 -12 -5.5 -27.5t-6.5 -19.5q-12 -31 -18.5 -57.5t-6.5 -61.5h-6z" />
    <glyph glyph-name="cent" unicode="&#xa2;" horiz-adv-x="517" 
d="M497 307q-32 -27 -69 -42q-61 -25 -109 -25q-64 0 -121 26l-69 -266h-10l70 270q-76 38 -122.5 111.5t-46.5 160.5q0 81 40 149.5t108.5 108.5t150.5 40q12 0 18 -1l42 161h10l-42 -161q44 -5 81 -19v-89h-10q0 49 -16.5 71.5t-57.5 26.5l-142 -550q53 -29 117 -29
q27 0 52 6t54 18q37 14 64 41zM100.5 389.5q32.5 -68.5 92.5 -105.5l142 546h-16q-72 0 -129 -38.5t-89.5 -104.5t-32.5 -145q0 -84 32.5 -152.5z" />
    <glyph glyph-name="currency" unicode="&#xa4;" horiz-adv-x="388" 
d="M324.5 552.5q9.5 -24.5 9.5 -50.5t-10 -51t-28 -45l72 -72l-7 -7l-72 72q-19 -18 -44 -27.5t-51 -9.5q-55 0 -95 37l-72 -72l-7 7l72 72q-38 39 -38 96t37 95l-71 71l7 7l71 -71q40 37 95 37t96 -38l72 72l7 -7l-72 -72q19 -19 28.5 -43.5zM314.5 453q10.5 24 10.5 49
q0 52 -39 91t-92 39t-92 -39t-39 -92t39 -92t91 -39q25 0 49 10.5t43 29.5t29.5 43z" />
    <glyph glyph-name="dollar" unicode="$" horiz-adv-x="659" 
d="M606.5 144q-32.5 -59 -94 -98t-143.5 -45v-121h-10v121q-7 -1 -20 -1q-31 0 -60 6v-126h-10v128q-86 20 -140.5 71.5t-75 83t-23.5 35.5v-71h-10v315h10q0 -86 27.5 -175t81.5 -156.5t130 -90.5v500q-90 52 -139 109.5t-49 141.5q0 86 52 147.5t136 77.5v124h10v-123
q19 3 40 3t40 -3v123h10v-125q44 -9 82.5 -28t55.5 -36v69h9v-265h-9q0 46 -16.5 97t-48 91.5t-73.5 57.5v-422l22 -12q83 -46 131.5 -79.5t82.5 -83t34 -116.5q0 -65 -32.5 -124zM279 987v-374q21 -14 80 -48v419q-19 6 -40 6t-40 -3zM182 705.5q31 -45.5 87 -85.5v364
q-55 -12 -86.5 -56t-31.5 -117q0 -60 31 -105.5zM359 11v459l-80 45v-498q33 -7 60 -7q14 0 20 1zM482 53q45 35 66 82.5t21 92.5q0 54 -26.5 96t-68.5 74t-105 67v-454q68 7 113 42z" />
    <glyph glyph-name="Euro" unicode="&#x20ac;" horiz-adv-x="1012" 
d="M992 108q-50 -40 -117 -67q-100 -41 -182 -41q-125 0 -232.5 58.5t-177 159.5t-85.5 222h-178v10h177q-3 27 -3 55q0 15 2 45h-176v10h177q13 123 82.5 224.5t178.5 160t235 58.5q95 0 182 -34v-148h-10q0 68 -16.5 105t-53 52t-102.5 15q-111 0 -202 -57.5t-147 -156.5
t-67 -219h223v-10h-224q-2 -30 -2 -45q0 -19 2 -55h224v-10h-223q12 -120 65 -218t143 -155t208 -57q46 0 89 10.5t93 29.5q69 27 110 65z" />
    <glyph glyph-name="sterling" unicode="&#xa3;" horiz-adv-x="784" 
d="M764 257q0 -48 -12 -107t-44.5 -104.5t-89.5 -45.5q-29 0 -63.5 21t-66 49.5t-87.5 84.5q-24 -66 -76.5 -110.5t-137.5 -44.5q-37 0 -76 17t-65 52.5t-26 86.5t26 86t63.5 52t72.5 17q45 0 98 -28.5t124 -79.5q4 19 4 41q0 37 -14.5 71.5t-35.5 63.5t-60 76
q-26 30 -37 45h-149v10h141q-47 59 -73.5 118.5t-26.5 131.5q0 81 35.5 135t86.5 79.5t96 25.5q53 0 100 -27t76.5 -81t29.5 -132h-80q0 53 -12.5 105.5t-40.5 88.5t-73 36q-30 0 -61.5 -23.5t-54 -75t-22.5 -131.5q0 -72 21.5 -129t61.5 -121h231v-10h-225
q35 -57 52.5 -88.5t30.5 -74.5t13 -93q0 -19 -5 -47l24 -18q72 -52 111.5 -75.5t69.5 -23.5q46 0 75.5 29.5t42.5 70.5t13 77h15zM318.5 53.5q52.5 43.5 75.5 108.5q-70 68 -119 103.5t-93 35.5q-33 0 -68.5 -17t-59.5 -50t-24 -78t24 -78t60.5 -50.5t72.5 -17.5
q79 0 131.5 43.5z" />
    <glyph glyph-name="yen" unicode="&#xa5;" horiz-adv-x="777" 
d="M757 990q-42 0 -70.5 -15.5t-39.5 -37.5l-219 -436l1 -1v-125h200v-10h-200v-100h200v-10h-200v-185q0 -26 18.5 -43t60.5 -17v-10h-238v10q42 0 60.5 17t18.5 43v185h-200v10h200v100h-200v10h200v125l-219 437q-11 22 -39.5 37.5t-70.5 15.5v10h227v-10q-54 0 -54 -28
q0 -8 7 -24l223 -427l214 426q7 14 7 24q0 29 -55 29v10h168v-10z" />
    <glyph glyph-name="plus" unicode="+" horiz-adv-x="340" 
d="M320 495h-145v-145h-10v145h-145v10h145v145h10v-145h145v-10z" />
    <glyph glyph-name="minus" unicode="&#x2212;" horiz-adv-x="340" 
d="M320 505v-10h-300v10h300z" />
    <glyph glyph-name="multiply" unicode="&#xd7;" horiz-adv-x="260" 
d="M137 500l103 -103l-7 -7l-103 103l-103 -103l-7 7l103 103l-103 103l7 7l103 -103l103 103l7 -7z" />
    <glyph glyph-name="divide" unicode="&#xf7;" horiz-adv-x="470" 
d="M192.5 602.5q-17.5 17.5 -17.5 42.5t17.5 42.5t42.5 17.5t42.5 -17.5t17.5 -42.5t-17.5 -42.5t-42.5 -17.5t-42.5 17.5zM450 505v-10h-430v10h430zM192.5 322.5q-17.5 17.5 -17.5 42.5t17.5 42.5t42.5 17.5t42.5 -17.5t17.5 -42.5t-17.5 -42.5t-42.5 -17.5t-42.5 17.5z
" />
    <glyph glyph-name="equal" unicode="=" horiz-adv-x="340" 
d="M320 555v-10h-300v10h300zM320 455v-10h-300v10h300z" />
    <glyph glyph-name="notequal" unicode="&#x2260;" horiz-adv-x="340" 
d="M192 545l-33 -90h161v-10h-165l-49 -136l-9 4l48 132h-125v10h128l33 90h-161v10h165l49 136l9 -4l-48 -132h125v-10h-128z" />
    <glyph glyph-name="greater" unicode="&#x3e;" horiz-adv-x="370" 
d="M20 300v13l317 187l-317 187v13l330 -195v-10z" />
    <glyph glyph-name="less" unicode="&#x3c;" horiz-adv-x="370" 
d="M20 505l330 195v-13l-317 -187l317 -187v-13l-330 195v10z" />
    <glyph glyph-name="greaterequal" unicode="&#x2265;" horiz-adv-x="370" 
d="M20 300v13l317 187l-317 187v13l330 -195v-10zM350 200v10h-330v-10h330z" />
    <glyph glyph-name="lessequal" unicode="&#x2264;" horiz-adv-x="370" 
d="M20 505l330 195v-13l-317 -187l317 -187v-13l-330 195v10zM350 210h-330v-10h330v10z" />
    <glyph glyph-name="plusminus" unicode="&#xb1;" horiz-adv-x="340" 
d="M320 505v-10h-145v-145h-10v145h-145v10h145v145h10v-145h145zM20 270h300v-10h-300v10z" />
    <glyph glyph-name="asciitilde" unicode="~" horiz-adv-x="630" 
d="M40 536q20 32 52.5 50.5t67.5 18.5q54 0 98.5 -24t104.5 -71q49 -38 81 -56.5t66 -18.5q21 0 42 13t34.5 35.5t13.5 51.5h10q0 -39 -20 -71t-52.5 -50.5t-67.5 -18.5q-54 0 -98.5 24t-104.5 71q-49 38 -81 56.5t-66 18.5q-21 0 -42 -13t-34.5 -35.5t-13.5 -51.5h-10
q0 39 20 71z" />
    <glyph glyph-name="logicalnot" unicode="&#xac;" horiz-adv-x="470" 
d="M450 345h-10v150h-420v10h430v-160z" />
    <glyph glyph-name="asciicircum" unicode="^" horiz-adv-x="300" 
d="M155 1000l125 -260h-10l-120 250l-120 -250h-10l125 260h10z" />
    <glyph glyph-name="product" unicode="&#x220f;" horiz-adv-x="716" 
d="M635.5 973q-18.5 -17 -18.5 -43v-860q0 -26 18.5 -43t60.5 -17v-10h-238v10q42 0 60.5 17t18.5 43v860q0 26 -18.5 43t-60.5 17h-200q-42 0 -60.5 -17t-18.5 -43v-860q0 -26 18.5 -43t60.5 -17v-10h-238v10q42 0 60.5 17t18.5 43v860q0 26 -18.5 43t-60.5 17v10h676v-10
q-42 0 -60.5 -17z" />
    <glyph glyph-name="percent" unicode="%" horiz-adv-x="1060" 
d="M48 905.5q28 48.5 76.5 76.5t105.5 28t105.5 -28t76.5 -76.5t28 -105.5t-28.5 -105t-76.5 -76t-105 -28t-105 28t-76.5 76t-28.5 105t28 105.5zM110.5 656.5q40.5 -55.5 119.5 -55.5q80 0 120 55.5t40 143.5q0 89 -40 144.5t-120 55.5q-75 0 -117.5 -56.5t-42.5 -143.5
q0 -88 40.5 -143.5zM685 1000l-300 -1130h-10l300 1130h10zM648 174.5q28 48.5 76.5 76.5t105.5 28t105.5 -28t76.5 -76.5t28 -105.5t-28.5 -105t-76.5 -76t-105 -28t-105 28t-76.5 76t-28.5 105t28 105.5zM710.5 -74.5q40.5 -55.5 119.5 -55.5q80 0 120 55.5t40 143.5
q0 89 -40 144.5t-120 55.5q-75 0 -117.5 -56.5t-42.5 -143.5q0 -88 40.5 -143.5z" />
    <glyph glyph-name="at" unicode="@" horiz-adv-x="1442" 
d="M1073 1106q161 -94 255 -255t94 -351q0 -230 -42.5 -372t-103 -201.5t-118.5 -59.5q-60 0 -102 20t-73 63t-56 117l-156 525h-143l-152 -525q-3 -9 -3 -17q0 -40 63 -40v-10h-168v10q42 0 66.5 16.5t31.5 40.5l271 933l271 -933q27 -74 47.5 -113.5t44.5 -58t58 -18.5
q50 0 108 58.5t100.5 198t42.5 366.5q0 187 -92.5 345t-250.5 250.5t-345 92.5t-345 -92.5t-250.5 -250.5t-92.5 -345t92.5 -345t250.5 -250.5t345 -92.5v-12q-191 0 -352 94t-255 255t-94 351t94 351t255 255t352 94t352 -94zM768 602l-70 232l-67 -232h137z" />
    <glyph glyph-name="ampersand" unicode="&#x26;" horiz-adv-x="839" 
d="M741.5 59q40.5 -47 77.5 -47v-12q-90 0 -148.5 45t-90.5 95l-6 10q-42 -73 -101.5 -111.5t-134.5 -38.5q-68 0 -141.5 28.5t-125 93.5t-51.5 168q0 112 85.5 192t185.5 130q-50 95 -62 148q-6 32 -6 60q0 78 43 127.5t118 49.5q51 0 85.5 -42t34.5 -114
q0 -67 -35.5 -116.5t-98.5 -88.5q68 -131 233 -384q30 95 36 210q1 26 -17 43t-60 17v10h171v-10q-42 0 -61 -17t-20 -43q-8 -128 -39 -224l43 -65q45 -67 85.5 -114zM321.5 953q-20.5 -34 -20.5 -90q0 -40 8 -76q10 -52 55 -140q60 37 95 83t35 111q0 48 -17 81t-42.5 49
t-50.5 16q-42 0 -62.5 -34zM468 49q58 39 98 113l-48 75q-157 244 -221 363q-75 -38 -136 -107t-61 -177q0 -115 38.5 -183.5t92.5 -95.5t107 -27q72 0 130 39z" />
    <glyph glyph-name="paragraph" unicode="&#xb6;" horiz-adv-x="569" 
d="M549 990q-42 0 -60.5 -17t-18.5 -43v-930h-10v990h-80v-990h-10v500h-60q-83 0 -149 33.5t-103.5 90.5t-37.5 126t37.5 126t103.5 90.5t149 33.5h239v-10zM370 990h-60q-65 0 -112.5 -32t-72.5 -86.5t-25 -121.5t25 -121.5t72.5 -86.5t112.5 -32h60v480z" />
    <glyph glyph-name="section" unicode="&#xa7;" horiz-adv-x="493" 
d="M454.5 288.5q18.5 -34.5 18.5 -82.5q0 -59 -26 -105.5t-78 -73.5t-125 -27q-72 0 -117.5 35t-82.5 84q-10 16 -14 18v-49h-10v218h10q0 -68 24.5 -137t73.5 -114t116 -45q63 0 103.5 25t58.5 62t18 75q0 44 -24 75.5t-58 52t-94 48.5q-61 28 -97 49.5t-61 55t-25 81.5
q0 47 23.5 84.5t63.5 57.5q-41 27 -64 62.5t-23 85.5t24 90.5t65.5 63t93.5 22.5q43 0 84 -18t59 -35v53h10v-203h-10q0 42 -17.5 87t-50 75.5t-75.5 30.5q-59 0 -94 -33.5t-35 -101.5q0 -38 20 -64t50 -44t82 -41q65 -30 105 -55t68.5 -69t28.5 -110q0 -46 -21 -75.5
t-50 -45.5q34 -28 52.5 -62.5zM134 503.5q20 -24.5 50.5 -41t82.5 -39.5q83 -36 121 -62q32 34 32 73q0 49 -23.5 83.5t-58 56.5t-93.5 51q-53 26 -83 44q-48 -30 -48 -107q0 -34 20 -58.5z" />
    <glyph glyph-name="copyright" unicode="&#xa9;" horiz-adv-x="1041" 
d="M87.5 750.5q67.5 114.5 182.5 182t251 67.5t250.5 -67.5t182 -182t67.5 -250.5t-67.5 -250.5t-182 -182t-250.5 -67.5t-251 67.5t-182.5 182t-67.5 250.5t67.5 250.5zM96 254.5q66 -112.5 179 -178.5t246 -66t245.5 66t178.5 178.5t66 245.5t-66 245.5t-178.5 178.5
t-245.5 66t-246 -66t-179 -178.5t-66 -245.5t66 -245.5zM174.5 701.5q53.5 91.5 145 145t199.5 53.5q77 0 145 -27v-118h-7q0 54 -13 83.5t-42.5 41.5t-82.5 12q-95 0 -171.5 -53t-119.5 -142.5t-43 -194.5q0 -107 40 -197t116 -143.5t178 -53.5q37 0 71.5 8.5t73.5 23.5
q55 21 88 51l6 -5q-38 -30 -94 -53q-82 -33 -145 -33q-108 0 -199.5 54.5t-145 147t-53.5 200.5t53.5 199.5z" />
    <glyph glyph-name="registered" unicode="&#xae;" horiz-adv-x="540" 
d="M395.5 966.5q57.5 -33.5 91 -91t33.5 -125.5t-33.5 -125.5t-91 -91t-125.5 -33.5t-125.5 33.5t-91 91t-33.5 125.5t33.5 125.5t91 91t125.5 33.5t125.5 -33.5zM390.5 542q55.5 32 87.5 87.5t32 120.5t-32 120.5t-87.5 87.5t-120.5 32t-120.5 -32t-87.5 -87.5t-32 -120.5
t32 -120.5t87.5 -87.5t120.5 -32t120.5 32zM380 615v-3h-69v3q22 0 14 14l-71 126h-28v-123q0 -17 23 -17v-3h-69v3q12 0 17.5 5t5.5 12v246q0 7 -5.5 12t-17.5 5v3h46h46q30 0 55 -21t25 -50t-25 -50.5t-55 -21.5h5l70 -126q10 -14 33 -14zM272 758q27 0 42 19.5t15 49.5
t-15 49t-42 19h-46v-137h46z" />
    <glyph glyph-name="trademark" unicode="&#x2122;" horiz-adv-x="847" 
d="M35 1001v-1h343v1l15 -90h-5q-2 10 -11 30.5t-22 37t-27 16.5h-101v-460q0 -13 9.5 -21.5t30.5 -8.5v-5h-120v5q21 0 30.5 8.5t9.5 21.5v460h-102q-19 0 -36.5 -31t-23.5 -53h-5zM426 505q20 0 29.5 8.5t9.5 21.5v430q0 13 -9.5 21.5t-29.5 8.5v5h44l159 -313l119 313h79
v-5q-21 0 -30 -8.5t-9 -21.5v-430q0 -13 9 -21.5t30 -8.5v-5h-118v5q21 0 30 8.5t9 21.5v451l-134 -351l-144 276v-376q0 -13 9.5 -21.5t30.5 -8.5v-5h-84v5z" />
    <glyph glyph-name="degree" unicode="&#xb0;" horiz-adv-x="240" 
d="M49.5 970.5q29.5 29.5 70.5 29.5q42 0 71 -29.5t29 -70.5q0 -42 -29 -71t-71 -29q-41 0 -70.5 29t-29.5 71q0 41 29.5 70.5zM56 836q26 -26 64 -26t64 26t26 64t-26 64t-64 26t-64 -26t-26 -64t26 -64z" />
    <glyph glyph-name="bar" unicode="|" horiz-adv-x="50" 
d="M30 1000v-1000h-10v1000h10z" />
    <glyph glyph-name="brokenbar" unicode="&#xa6;" horiz-adv-x="50" 
d="M20 1000h10v-440h-10v440zM20 440h10v-440h-10v440z" />
    <glyph glyph-name="dagger" unicode="&#x2020;" horiz-adv-x="634" 
d="M597 743q17 -17 17 -40q0 -24 -16.5 -40.5t-40.5 -16.5q-13 0 -27.5 4.5t-39.5 13.5q-43 16 -81 25t-87 9q0 -52 15.5 -104.5t37.5 -93.5q-23 -42 -38.5 -138.5t-15.5 -240.5v-121h-7v121q0 144 -15.5 240.5t-37.5 138.5q21 41 36 93.5t15 104.5q-49 0 -87 -9t-81 -25
q-25 -9 -39.5 -13.5t-27.5 -4.5q-24 0 -40.5 16.5t-16.5 40.5q0 23 17 40t40 17q13 0 30 -5t35 -12q47 -17 84 -26t86 -9q0 49 -9 86t-26 84q-7 18 -12 35t-5 30q0 23 17 40t40 17q24 0 40.5 -16.5t16.5 -40.5q0 -13 -4.5 -27.5t-13.5 -39.5q-16 -43 -25 -81t-9 -87
q49 0 86 9t84 26q18 7 35 12t30 5q23 0 40 -17z" />
    <glyph glyph-name="daggerdbl" unicode="&#x2021;" horiz-adv-x="634" 
d="M597.5 337.5q16.5 -16.5 16.5 -40.5q0 -23 -17 -40t-40 -17q-13 0 -30 5t-35 12q-47 17 -84 26t-86 9q0 -49 9 -87t25 -81q9 -25 13.5 -39.5t4.5 -27.5q0 -24 -16.5 -40.5t-40.5 -16.5q-23 0 -40 17t-17 40q0 13 5 30t12 35q17 47 26 84t9 86q-49 0 -86 -9t-84 -26
q-18 -7 -35 -12t-30 -5q-23 0 -40 17t-17 40q0 24 16.5 40.5t40.5 16.5q13 0 27.5 -4.5t39.5 -13.5q43 -16 81 -25t87 -9q0 52 -15 104.5t-36 93.5q21 41 36 93.5t15 104.5q-49 0 -87 -9t-81 -25q-25 -9 -39.5 -13.5t-27.5 -4.5q-24 0 -40.5 16.5t-16.5 40.5q0 23 17 40
t40 17q13 0 30 -5t35 -12q47 -17 84 -26t86 -9q0 49 -9 86t-26 84q-7 18 -12 35t-5 30q0 23 17 40t40 17q24 0 40.5 -16.5t16.5 -40.5q0 -13 -4.5 -27.5t-13.5 -39.5q-16 -43 -25 -81t-9 -87q49 0 86 9t84 26q18 7 35 12t30 5q23 0 40 -17t17 -40q0 -24 -16.5 -40.5
t-40.5 -16.5q-13 0 -27.5 4.5t-39.5 13.5q-43 16 -81 25t-87 9q0 -52 15.5 -104.5t37.5 -93.5q-22 -41 -37.5 -93.5t-15.5 -104.5q49 0 87 9t81 25q25 9 39.5 13.5t27.5 4.5q24 0 40.5 -16.5z" />
    <glyph glyph-name="uni0308" unicode="&#x308;" horiz-adv-x="0" 
d="M-443.5 1132q-11.5 12 -11.5 28q0 17 11.5 28.5t28.5 11.5q16 0 28 -11.5t12 -28.5q0 -16 -12 -28t-28 -12q-17 0 -28.5 12zM-293.5 1132q-11.5 12 -11.5 28q0 17 11.5 28.5t28.5 11.5q16 0 28 -11.5t12 -28.5q0 -16 -12 -28t-28 -12q-17 0 -28.5 12z" />
    <glyph glyph-name="uni0307" unicode="&#x307;" horiz-adv-x="0" 
d="M-288.5 1132q-11.5 12 -11.5 28q0 17 11.5 28.5t28.5 11.5q16 0 28 -11.5t12 -28.5q0 -16 -12 -28t-28 -12q-17 0 -28.5 12z" />
    <glyph glyph-name="gravecomb" unicode="&#x300;" horiz-adv-x="0" 
d="M-465 1085.5q-28 21.5 -74 54.5q-20 13 -26 19q-7 7 -7 17t8 18t18 8q9 0 16 -7q4 -4 17 -22q66 -89 113 -136h-10q-27 27 -55 48.5z" />
    <glyph glyph-name="acutecomb" unicode="&#x301;" horiz-adv-x="0" 
d="M-565 1037q52 52 115 138l15 20q7 7 16 7q10 0 18 -8q7 -7 7 -17q0 -11 -7 -18q-6 -6 -26 -19q-41 -30 -71 -53t-57 -50h-10z" />
    <glyph glyph-name="uni030B" unicode="&#x30b;" horiz-adv-x="0" 
d="M-733 1037q45 45 108 130q16 22 22 28q7 7 16 7q10 0 18 -8q7 -7 7 -18q0 -10 -7 -17q-6 -6 -26 -19q-41 -30 -71 -53t-57 -50h-10zM-571 1037q52 52 115 138l15 20q7 7 16 7q10 0 18 -8q7 -7 7 -17q0 -11 -7 -18q-6 -6 -26 -19q-41 -30 -71 -53t-57 -50h-10z" />
    <glyph glyph-name="uni0302" unicode="&#x302;" horiz-adv-x="0" 
d="M-400 1063q0 -11 -7 -18t-17 -7q-11 0 -17 6q-6 5 -32 55q-38 71 -53 95q-24 -37 -64 -112q-17 -34 -21 -38q-6 -7 -15 -7q-11 0 -19 8t-8 18q0 9 8 17q4 4 44 38.5t70 83.5h10q30 -51 70.5 -85t43.5 -37q7 -6 7 -17z" />
    <glyph glyph-name="uni030C" unicode="&#x30c;" horiz-adv-x="0" 
d="M-400 1176q0 -10 -7 -17q-3 -3 -43.5 -37t-70.5 -85h-10q-30 49 -70 83.5t-44 38.5q-8 8 -8 18q0 9 8 17t19 8q9 0 15 -7q4 -4 21 -38q40 -75 64 -112q15 24 53 95q26 50 32 55q6 6 17 6q10 0 17 -7t7 -18z" />
    <glyph glyph-name="uni0306" unicode="&#x306;" horiz-adv-x="0" 
d="M-555 1140q0 -21 29 -35.5t66 -14.5t66 14.5t29 35.5h5q0 -17 -12.5 -36t-35 -31.5t-52.5 -12.5t-52.5 12.5t-35 31.5t-12.5 36h5z" />
    <glyph glyph-name="uni030A" unicode="&#x30a;" horiz-adv-x="0" 
d="M-502.5 1182.5q17.5 17.5 42.5 17.5t42.5 -17.5t17.5 -42.5t-17.5 -42.5t-42.5 -17.5t-42.5 17.5t-17.5 42.5t17.5 42.5zM-495.5 1104.5q14.5 -14.5 35.5 -14.5t35.5 14.5t14.5 35.5t-14.5 35.5t-35.5 14.5t-35.5 -14.5t-14.5 -35.5t14.5 -35.5z" />
    <glyph glyph-name="tildecomb" unicode="&#x303;" horiz-adv-x="0" 
d="M-856.5 1121.5q13.5 22.5 34.5 35.5t42 13q24 0 41.5 -8t39.5 -24q22 -15 36 -21.5t33 -6.5q60 0 60 60h10q0 -29 -13.5 -51.5t-34.5 -35.5t-42 -13q-24 0 -41.5 8t-39.5 24q-22 15 -36 21.5t-33 6.5q-60 0 -60 -60h-10q0 29 13.5 51.5z" />
    <glyph glyph-name="uni0304" unicode="&#x304;" horiz-adv-x="0" 
d="M-450 1100v-10h-200v10h200z" />
    <glyph glyph-name="uni0327" unicode="&#x327;" horiz-adv-x="0" 
d="M-423.5 -71.5q23.5 -22.5 23.5 -51.5q0 -31 -27 -54t-60 -23q-32 0 -54.5 22.5t-22.5 54.5h10q0 -29 22 -48t45 -19q27 0 42 19t15 48q0 24 -16.5 46t-46.5 22l6 10l24 45h10l-24 -46q30 -3 53.5 -25.5z" />
    <glyph glyph-name="uni0328" unicode="&#x328;" horiz-adv-x="0" 
d="M-422.5 -177.5q-22.5 -22.5 -54.5 -22.5q-34 0 -60.5 24.5t-26.5 62.5q0 41 25.5 70t61.5 43h10q-23 -16 -36 -28t-22 -32.5t-9 -52.5q0 -36 15 -56.5t42 -20.5q23 0 45 19t22 48h10q0 -32 -22.5 -54.5z" />
    <glyph glyph-name="acute" unicode="&#xb4;" horiz-adv-x="972" 
d="M401 1037q45 45 108 130q16 23 22 28q7 7 16 7q10 0 18 -8t8 -18q0 -9 -8 -17q-6 -6 -26 -19q-41 -30 -71 -53t-57 -50h-10z" />
    <glyph glyph-name="breve" unicode="&#x2d8;" horiz-adv-x="920" 
d="M365 1140q0 -21 29 -35.5t66 -14.5t66 14.5t29 35.5h5q0 -17 -12.5 -36t-35 -31.5t-52.5 -12.5t-52.5 12.5t-35 31.5t-12.5 36h5z" />
    <glyph glyph-name="caron" unicode="&#x2c7;" horiz-adv-x="1052" 
d="M653 1176q0 -9 -8 -17q-3 -3 -43.5 -37t-70.5 -85h-10q-30 49 -70 83.5t-44 38.5q-7 7 -7 18q0 10 7 17q8 8 19 8q9 0 15 -7q4 -4 21 -38q40 -75 64 -112q15 24 53 95q26 50 32 55q7 6 17 6t17 -7q8 -8 8 -18z" />
    <glyph glyph-name="cedilla" unicode="&#xb8;" horiz-adv-x="964" 
d="M540.5 -71.5q23.5 -22.5 23.5 -51.5q0 -31 -27 -54t-60 -23q-32 0 -54.5 22.5t-22.5 54.5h10q0 -29 22 -48t45 -19q27 0 42 19t15 48q0 24 -16.5 46t-46.5 22l6 10l24 45h10l-24 -46q30 -3 53.5 -25.5z" />
    <glyph glyph-name="circumflex" unicode="&#x2c6;" horiz-adv-x="1052" 
d="M653 1063q0 -10 -8 -18q-7 -7 -17 -7t-17 6q-6 5 -32 55q-38 71 -53 95q-24 -37 -64 -112q-17 -34 -21 -38q-6 -7 -15 -7q-11 0 -19 8q-7 7 -7 18q0 10 7 17q4 4 44 38.5t70 83.5h10q30 -51 70.5 -85t43.5 -37q8 -6 8 -17z" />
    <glyph glyph-name="dieresis" unicode="&#xa8;" horiz-adv-x="680" 
d="M212 1132q-12 12 -12 28q0 17 12 28.5t28 11.5q17 0 28.5 -11.5t11.5 -28.5q0 -16 -11.5 -28t-28.5 -12q-16 0 -28 12zM412 1132q-12 12 -12 28q0 17 12 28.5t28 11.5q17 0 28.5 -11.5t11.5 -28.5q0 -16 -11.5 -28t-28.5 -12q-16 0 -28 12z" />
    <glyph glyph-name="dotaccent" unicode="&#x2d9;" horiz-adv-x="520" 
d="M232 1132q-12 12 -12 28q0 17 12 28.5t28 11.5q17 0 28.5 -11.5t11.5 -28.5q0 -16 -11.5 -28t-28.5 -12q-16 0 -28 12z" />
    <glyph glyph-name="grave" unicode="`" horiz-adv-x="972" 
d="M507 1085.5q-28 21.5 -74 54.5q-20 13 -26 19q-7 7 -7 17t8 18t18 8q9 0 16 -7q4 -4 17 -22q66 -89 113 -136h-10q-27 27 -55 48.5z" />
    <glyph glyph-name="hungarumlaut" unicode="&#x2dd;" horiz-adv-x="1133" 
d="M400 1037q45 45 108 130q16 23 22 28q7 7 16 7q10 0 18 -8t8 -18q0 -9 -8 -17q-6 -6 -26 -19q-41 -30 -71 -53t-57 -50h-10zM562 1037q52 52 115 138l15 20q7 7 16 7q10 0 18 -8t8 -17q0 -10 -8 -18q-6 -6 -26 -19q-41 -30 -71 -53t-57 -50h-10z" />
    <glyph glyph-name="macron" unicode="&#xaf;" horiz-adv-x="1100" 
d="M650 1100v-10h-200v10h200z" />
    <glyph glyph-name="ogonek" unicode="&#x2db;" horiz-adv-x="964" 
d="M541.5 -177.5q-22.5 -22.5 -54.5 -22.5q-34 0 -60.5 24.5t-26.5 62.5q0 41 25.5 70t61.5 43h10q-23 -16 -36 -28t-22 -32.5t-9 -52.5q0 -36 15 -56.5t42 -20.5q23 0 45 19t22 48h10q0 -32 -22.5 -54.5z" />
    <glyph glyph-name="ring" unicode="&#x2da;" horiz-adv-x="920" 
d="M417.5 1182.5q17.5 17.5 42.5 17.5t42.5 -17.5t17.5 -42.5t-17.5 -42.5t-42.5 -17.5t-42.5 17.5t-17.5 42.5t17.5 42.5zM424.5 1104.5q14.5 -14.5 35.5 -14.5t35.5 14.5t14.5 35.5t-14.5 35.5t-35.5 14.5t-35.5 -14.5t-14.5 -35.5t14.5 -35.5z" />
    <glyph glyph-name="tilde" unicode="&#x2dc;" horiz-adv-x="1390" 
d="M533.5 1121.5q13.5 22.5 34.5 35.5t42 13q24 0 41.5 -8t39.5 -24q22 -15 36 -21.5t33 -6.5q60 0 60 60h10q0 -29 -13.5 -51.5t-34.5 -35.5t-42 -13q-24 0 -41.5 8t-39.5 24q-22 15 -36 21.5t-33 6.5q-60 0 -60 -60h-10q0 29 13.5 51.5z" />
    </font>
</defs>
</svg>
